<svg xmlns="http://www.w3.org/2000/svg" width="41" height="41" viewBox="0 0 41 41"><g transform="translate(-549 -3835)"><rect width="41" height="41" transform="translate(549 3835)" fill="#303ab2"/><path d="M-1.5-12.51v3q.78,0,1.635.045a4.96,4.96,0,0,1,1.575.33A2.667,2.667,0,0,1,2.9-8.22,3.051,3.051,0,0,1,3.36-6.39a3.075,3.075,0,0,1-.99,2.415A3.515,3.515,0,0,1-.06-3.09a3.62,3.62,0,0,1-1.605-.33A3.281,3.281,0,0,1-2.79-4.3a3.946,3.946,0,0,1-.69-1.32A6.06,6.06,0,0,1-3.75-7.23H-7.8a8.417,8.417,0,0,0,.525,3.24A6.583,6.583,0,0,0-5.7-1.605,6.765,6.765,0,0,0-3.225-.12,9.7,9.7,0,0,0,0,.39,9.611,9.611,0,0,0,2.94-.06,7.619,7.619,0,0,0,5.43-1.38,6.421,6.421,0,0,0,7.155-3.54,6.486,6.486,0,0,0,7.8-6.48a4.926,4.926,0,0,0-.99-3.09,4.573,4.573,0,0,0-2.73-1.68v-.06a3.686,3.686,0,0,0,2.2-1.59,4.968,4.968,0,0,0,.735-2.7,4.85,4.85,0,0,0-.63-2.49,6.09,6.09,0,0,0-1.635-1.83A7.173,7.173,0,0,0,2.49-21.045,8.8,8.8,0,0,0-.03-21.42a7.892,7.892,0,0,0-2.94.525A6.511,6.511,0,0,0-5.235-19.41a6.748,6.748,0,0,0-1.47,2.3A8.926,8.926,0,0,0-7.29-14.16h4.05a4.123,4.123,0,0,1,.8-2.685A2.9,2.9,0,0,1,0-17.91a3.22,3.22,0,0,1,2.07.72,2.5,2.5,0,0,1,.9,2.07,2.228,2.228,0,0,1-.435,1.44,2.792,2.792,0,0,1-1.11.825A4.627,4.627,0,0,1-.03-12.51,9.01,9.01,0,0,1-1.5-12.51Z" transform="translate(569.802 3866.42)" fill="#fff"/></g></svg>