<svg xmlns="http://www.w3.org/2000/svg" width="41" height="41" viewBox="0 0 41 41"><g transform="translate(-604 -3835)"><rect width="41" height="41" transform="translate(604 3835)" fill="#64a70b"/><path d="M6.66-17.49V-21H-5.07L-7.14-9.39H-3.3a4.342,4.342,0,0,1,1.35-1.275A3.769,3.769,0,0,1-.09-11.07a3.664,3.664,0,0,1,1.53.3,3.38,3.38,0,0,1,1.14.84A3.574,3.574,0,0,1,3.3-8.67a4.807,4.807,0,0,1,.24,1.53,4.59,4.59,0,0,1-.255,1.515,4.058,4.058,0,0,1-.72,1.29,3.613,3.613,0,0,1-1.14.9A3.28,3.28,0,0,1-.09-3.09a3.365,3.365,0,0,1-2.37-.855,3.483,3.483,0,0,1-1.08-2.3H-7.8a6.47,6.47,0,0,0,.675,2.9A6.245,6.245,0,0,0-5.4-1.26,7.3,7.3,0,0,0-2.925-.015,10.439,10.439,0,0,0,0,.39,7.712,7.712,0,0,0,3-.135,7.523,7.523,0,0,0,5.475-1.71,7.687,7.687,0,0,0,7.17-4.125,7.239,7.239,0,0,0,7.8-7.14a8.719,8.719,0,0,0-.435-2.775,6.666,6.666,0,0,0-1.26-2.265A6.061,6.061,0,0,0,4.08-13.71a6.361,6.361,0,0,0-2.76-.57,6.319,6.319,0,0,0-2.25.375A5.291,5.291,0,0,0-2.79-12.66l-.06-.06.84-4.77Z" transform="translate(624.8 3866)" fill="#fff"/></g></svg>