<svg id="グループ_54" data-name="グループ 54" xmlns="http://www.w3.org/2000/svg" xmlns:xlink="http://www.w3.org/1999/xlink" width="145.633" height="44.754" viewBox="0 0 145.633 44.754">
  <defs>
    <clipPath id="clip-path">
      <rect id="長方形_62" data-name="長方形 62" width="145.633" height="44.754" fill="#9f9f9f"/>
    </clipPath>
  </defs>
  <g id="グループ_16" data-name="グループ 16" clip-path="url(#clip-path)">
    <path id="パス_90" data-name="パス 90" d="M458.319,161a.334.334,0,0,0,.321.344H471.1a.334.334,0,0,0,.321-.344v-.223a.334.334,0,0,0-.321-.344H458.64a.334.334,0,0,0-.321.344Z" transform="translate(-340.051 -119.034)" fill="#9f9f9f"/>
    <path id="パス_91" data-name="パス 91" d="M513.653,161a.334.334,0,0,0,.321.344h12.058a.334.334,0,0,0,.321-.344v-.223a.334.334,0,0,0-.321-.344H513.974a.334.334,0,0,0-.321.344Z" transform="translate(-381.106 -119.034)" fill="#9f9f9f"/>
    <path id="パス_92" data-name="パス 92" d="M478.4,60.475a2.2,2.2,0,1,1-2.2-2.2,2.2,2.2,0,0,1,2.2,2.2" transform="translate(-351.688 -43.238)" fill="#9f9f9f"/>
    <path id="パス_93" data-name="パス 93" d="M464.9,48.668c-2.489-1.785-6.425-5.65-7.225-7.679h-.006a.357.357,0,0,0-.4-.266H454.63a.358.358,0,0,0-.4.266h-.022c-.8,2.029-4.736,5.894-7.225,7.679-.309.222-.33.608.12.608.027,0,3.227-.033,3.923-.033a.446.446,0,0,0,.214-.043c.82-.3,2.86-2.722,4.457-5.008a.354.354,0,0,1,.511.036c1.592,2.27,3.611,4.662,4.426,4.957a1.267,1.267,0,0,0,.185.014h4.063c.45,0,.321-.311.012-.532" transform="translate(-331.474 -30.215)" fill="#9f9f9f"/>
    <path id="パス_94" data-name="パス 94" d="M526.229,95.13l-.028.012V86.615a.576.576,0,0,0-.574-.574h-7.1v-.47l.016.04c0-.276,0-.52.4-.563h6.685a.576.576,0,0,0,.574-.574V75.2a.576.576,0,0,0-.574-.574H514.78a.574.574,0,0,0-.543.4h-.018v.059a.576.576,0,0,0-.013.118v9.274a.575.575,0,0,0,.013.118V86.5a.576.576,0,0,0-.013.118v8.512c-.023.341-.1,1.218-.331,1.3h12.7c-.342-.114-.342-1.939-.342-1.293M518.59,79.777l.005-.064a1.728,1.728,0,0,1,3.455,0l.014.064v1.858H518.59Zm3.474,13.092H518.59V90.1l.005-.063a1.728,1.728,0,1,1,3.455,0l.014.063Z" transform="translate(-381.271 -55.369)" fill="#9f9f9f"/>
    <path id="パス_95" data-name="パス 95" d="M198.958,160.912a.512.512,0,0,0,.554.452h6.056a.462.462,0,1,0,0-.9h-6.056a.512.512,0,0,0-.554.452" transform="translate(-147.617 -119.054)" fill="#9f9f9f"/>
    <path id="パス_96" data-name="パス 96" d="M284.5,160.46a.462.462,0,1,0,0,.9h6.056a.462.462,0,1,0,0-.9Z" transform="translate(-210.675 -119.054)" fill="#9f9f9f"/>
    <path id="パス_97" data-name="パス 97" d="M221.952,73.047h6.965c-.618-.374-1.284-1.3-5.511-6.465-.4-.688.6-.748,1.284-.748h2.441l-.01.008c1.142,0,.619.476,1.021.6a.381.381,0,0,0,.474-.138v-.84h-.012V62.595h.012v-.84a.381.381,0,0,0-.474-.138c-.4.124.121.6-1.021.6l0,0H217.064V60.272l.036,0c0-.49.445-.509.749-.509l0-.011h8.545c.433.13.18.444.5.542a.381.381,0,0,0,.474-.138v-.4h.01V56.008h-.01v-.4a.381.381,0,0,0-.474-.138c-.311.1-.071.4-.476.536h-9.348V54.085a.478.478,0,0,1,.4-.273h7.393c.377.137.149.435.455.53a.381.381,0,0,0,.474-.138v-.392h.01V50.065h-.01v-.411a.381.381,0,0,0-.474-.138c-.322.1-.053.423-.517.549h-7.728V48.329a.554.554,0,0,1,.553-.31h8.817c.4.134.164.439.475.535a.381.381,0,0,0,.474-.138v-.84h-.01V44.708h.01v-.84a.381.381,0,0,0-.474-.138c-.317.1-.062.413-.5.543h-5.134c.1-.608.687-.19.687-.722,0-.439-.665-.328-.665-.328h-3.954s-.875-.147-.893.348c-.018.476.6.095.7.7h-4.682c.1-.608.637-.209.714-.7.064-.417-.551-.348-.551-.348h-4.448s-.513-.033-.513.271c0,.513.57.171.673.779h-5.255c-.435-.13-.181-.445-.5-.543a.381.381,0,0,0-.474.138v.4H202.1v3.747h.014v.4a.381.381,0,0,0,.474.138c.311-.1.071-.4.475-.535h8.865a.435.435,0,0,1,.342.465h0v1.581h-7.529c-.464-.126-.2-.45-.517-.549a.381.381,0,0,0-.474.138v.411h-.021v3.747h.021V54.2a.381.381,0,0,0,.474.138c.306-.095.078-.392.455-.53h7.139a.456.456,0,0,1,.439.487h.012v1.711h-9.23c-.405-.134-.165-.44-.476-.536a.381.381,0,0,0-.474.138v.84h.006v2.869H202.1v.84a.381.381,0,0,0,.474.138c.316-.1.063-.412.5-.542h8.45l0,.011c.3,0,.749.019.749.509h.012v1.945H202.09l0,0c-1.142,0-.619-.476-1.021-.6a.381.381,0,0,0-.474.138v.84h0v2.869h0v.84a.381.381,0,0,0,.474.138c.4-.124-.121-.6,1.021-.6l-.01-.008H205.3c.6,0,1.089.2.794.74h.013c-4.245,5.173-4.977,6.1-5.6,6.475h6.965c-.515-.276-.264-.927,4.52-6.931l-.022.007a3.3,3.3,0,0,1,5.335-.172s5.446,6.7,4.645,7.1" transform="translate(-148.768 -32.054)" fill="#9f9f9f"/>
    <path id="長方形_55" data-name="長方形 55" d="M.456,0H13.4a.456.456,0,0,1,.456.456v0A.456.456,0,0,1,13.4.912H.456A.456.456,0,0,1,0,.456v0A.456.456,0,0,1,.456,0Z" transform="translate(117.918 42.692)" fill="#9f9f9f"/>
    <path id="長方形_56" data-name="長方形 56" d="M.456,0H12.965a.456.456,0,0,1,.456.456v0a.456.456,0,0,1-.456.456H.456A.456.456,0,0,1,0,.456v0A.456.456,0,0,1,.456,0Z" transform="translate(132.212 42.692)" fill="#9f9f9f"/>
    <path id="パス_98" data-name="パス 98" d="M331.938,165.9a.527.527,0,0,0,.574.456h5.018a.468.468,0,1,0,0-.912h-5.018a.527.527,0,0,0-.574.456" transform="translate(-246.282 -122.751)" fill="#9f9f9f"/>
    <path id="パス_99" data-name="パス 99" d="M370.044,165.9a.527.527,0,0,0,.574.456h5.018a.468.468,0,1,0,0-.912h-5.018a.527.527,0,0,0-.574.456" transform="translate(-274.555 -122.751)" fill="#9f9f9f"/>
    <path id="パス_100" data-name="パス 100" d="M407.856,165.9a.527.527,0,0,0,.574.456h5.018a.468.468,0,1,0,0-.912H408.43a.527.527,0,0,0-.574.456" transform="translate(-302.609 -122.751)" fill="#9f9f9f"/>
    <path id="パス_101" data-name="パス 101" d="M197.931,165.921a.526.526,0,0,0,.574.452h6.546a.465.465,0,1,0,0-.9h-6.546a.526.526,0,0,0-.574.452" transform="translate(-146.855 -122.77)" fill="#9f9f9f"/>
    <path id="パス_102" data-name="パス 102" d="M283.494,165.469a.465.465,0,1,0,0,.9h6.546a.465.465,0,1,0,0-.9Z" transform="translate(-209.913 -122.77)" fill="#9f9f9f"/>
    <path id="パス_103" data-name="パス 103" d="M406.281,48.764a.348.348,0,0,0,.445.139c.377-.125-.113-.6.959-.6l0,0h5.08l0,0c1.072,0,.581.48.959.6a.348.348,0,0,0,.445-.139v-.847h-.01V45.023h.01v-.847a.348.348,0,0,0-.445-.139c-.377.125.113.6-.959.6l.01.009h-5.1l.01-.009c-1.072,0-.581-.48-.959-.6a.348.348,0,0,0-.445.139v.475h-.013V48.3h.013Z" transform="translate(-301.431 -32.653)" fill="#9f9f9f"/>
    <path id="パス_104" data-name="パス 104" d="M333.264,44.395l.01-.013-.081-.064-.129-.139-.022.021-1.2-.941-1.405-1.125-.325-.307a.348.348,0,0,0-.406.228c-.126.27.226.322.1.658a11.768,11.768,0,0,1-2.06,1.4,24.575,24.575,0,0,1-2.575,1.22c-.616.117-.431-.35-.778-.343a.348.348,0,0,0-.373.279l.152.43,0,0,.97,3.223-.006,0,.025.063.061.2.018-.006.212.526a.348.348,0,0,0,.464-.037c.3-.257-.331-.519.663-.919l-.076-.028a28.179,28.179,0,0,0,2.991-1.415A15.227,15.227,0,0,0,332.3,45.38l0,.033c.786-.728.753-.043,1.115-.208a.348.348,0,0,0,.232-.4Z" transform="translate(-240.407 -31.027)" fill="#9f9f9f"/>
    <path id="パス_105" data-name="パス 105" d="M333.264,66.492l.01-.013-.081-.063-.129-.139-.022.021-1.2-.941-1.405-1.124-.325-.307a.348.348,0,0,0-.406.228c-.126.269.226.322.1.658a11.753,11.753,0,0,1-2.06,1.4,24.578,24.578,0,0,1-2.575,1.22c-.616.117-.431-.35-.778-.343a.348.348,0,0,0-.373.279l.152.43h0l.97,3.223-.006,0,.026.063.061.2.018-.006.212.526a.348.348,0,0,0,.464-.037c.3-.257-.331-.519.663-.919l-.076-.028c.113-.045.234-.095.359-.147V87.417c-.04.4-.125.942-.307,1h5.284c-.2-.068-.286-.739-.319-1.137V68.113c.3-.227.559-.442.779-.636l0,.033c.786-.728.753-.043,1.115-.208a.348.348,0,0,0,.232-.4Z" transform="translate(-240.407 -47.422)" fill="#9f9f9f"/>
    <path id="パス_106" data-name="パス 106" d="M413.217,65.942v-.847a.348.348,0,0,0-.445-.139c-.377.125.113.6-.958.6l.01.009h-6.731c-.832-.053-.423-.482-.777-.6a.348.348,0,0,0-.445.139v.847h0v2.879h0v.847a.348.348,0,0,0,.445.139c.377-.125-.113-.6.959-.6l0,0h.01a.445.445,0,0,1,.413.457V87.865c-.023.333-.1,1.228-.332,1.306h5.36c-.342-.114-.342-1.939-.342-1.293l-.028.012V69.707h0a.449.449,0,0,1,.417-.492h1.042l0,0c1.072,0,.581.48.958.6a.348.348,0,0,0,.445-.139v-.847h-.01V65.942Z" transform="translate(-299.653 -48.174)" fill="#9f9f9f"/>
    <rect id="長方形_57" data-name="長方形 57" width="5.742" height="0.912" transform="translate(85.868 41.4)" fill="#9f9f9f"/>
    <rect id="長方形_58" data-name="長方形 58" width="5.742" height="0.912" transform="translate(95.702 41.4)" fill="#9f9f9f"/>
    <rect id="長方形_59" data-name="長方形 59" width="5.742" height="0.912" transform="translate(105.459 41.4)" fill="#9f9f9f"/>
    <path id="パス_107" data-name="パス 107" d="M390.416,45.46a2.2,2.2,0,1,0,2.2,2.2,2.2,2.2,0,0,0-2.2-2.2" transform="translate(-288.038 -33.729)" fill="#9f9f9f"/>
    <path id="パス_108" data-name="パス 108" d="M471.41,95.554V92.571c-.087-1.015-.617-2.116-1.539-2.116v0s-3.281-.012-3.384,0c-.341.038-.537.328.076.532a1.029,1.029,0,0,1,.508.725,2.706,2.706,0,0,1,.1.719c0,.223-.076.552-.646.552h-2.936a.367.367,0,0,1-.392-.372V90.032c0-.3,0-.57.527-.57H471c.375-.049.376-.289.376-.561l0,0,.036-13.429a.576.576,0,0,0-.574-.574H459.554a.576.576,0,0,0-.574.574V95.341l-.008-.005c0-.646,0,1.179-.342,1.293h13.1c-.193-.064-.277-.671-.314-1.073M463.4,79.981l.005-.064a1.727,1.727,0,0,1,3.455,0l.014.064v5.508H463.4v-.816c.048-.148.173-.248.5-.248h1.275a.576.576,0,0,0,.574-.574V82.262a.576.576,0,0,0-.574-.574H463.4Z" transform="translate(-340.281 -55.574)" fill="#9f9f9f"/>
    <path id="パス_109" data-name="パス 109" d="M527.067,42.729h-3.58c-.363-.084-.536-.355-.22-.355.437,0,.589-.656,0-.656h-3.612c-.466,0-.475.618.038.618.324,0,.1.3-.288.393h-3.429a.576.576,0,0,0-.574.574v6.062a.576.576,0,0,0,.574.574h3.93c.342,0,.285-.342.057-.371s-.342-.2-.342-.57l-.009.01v-2.06a.576.576,0,0,1,.574-.574h2.653a.576.576,0,0,1,.574.574v2.4a.576.576,0,0,0,.574.574h2.053c.827,0,1.6-.527,1.6-2.209V43.3a.576.576,0,0,0-.574-.574" transform="translate(-382.403 -30.953)" fill="#9f9f9f"/>
    <path id="パス_110" data-name="パス 110" d="M370.417,56.468c-.291-.053-2.858-.044-4-.042V53.933h.009a.449.449,0,0,1,.417-.492h.586l0,0c1.072,0,.581.48.959.6a.348.348,0,0,0,.445-.139v-.847h-.01V50.169h.01v-.847a.348.348,0,0,0-.445-.139c-.377.125.113.6-.959.6l.01.009h-.382c-.791-.124-1.067-.41-1.2-.7l0-.019a38.021,38.021,0,0,1-.68-4.437c.051-.252.414-.425.414-.629s.076-.342-.95-.342h-.721c-1.027,0-.95.137-.95.342,0,.228.456.418.418.722h.013a34.853,34.853,0,0,1-.62,4.343l0,.021a1.766,1.766,0,0,1-1.314.7h-.845l.01-.009c-1.072,0-.581-.48-.958-.6a.348.348,0,0,0-.445.139V49.8h-.013v3.645h.013v.468a.348.348,0,0,0,.445.139c.377-.125-.113-.6.958-.6l0,0h.735a.441.441,0,0,1,.407.4v2.581c-1.23,0-3.462-.007-3.732.042-.337.062-.273.8.085.978s.507.7.5,1.573c0,1.61.186,9.141-.186,11.818-.165,1.189.152.882.532,0,.347-.8,1.3-4.812,2.8-10.232V72.091c-.022.332-.1,1.229-.332,1.307h5.36c-.342-.114-.342-1.939-.342-1.293l-.028.012V59.659c1.66,5.9,2.7,10.327,3.067,11.178.38.882.7,1.189.532,0-.372-2.677-.187-10.208-.186-11.818-.01-.871.139-1.391.5-1.573s.423-.916.086-.978" transform="translate(-265.477 -32.401)" fill="#9f9f9f"/>
    <rect id="長方形_60" data-name="長方形 60" width="7.164" height="0.905" transform="translate(0.457 41.406)" fill="#9f9f9f"/>
    <rect id="長方形_61" data-name="長方形 61" width="7.694" height="0.905" transform="translate(0.192 42.699)" fill="#9f9f9f"/>
    <path id="パス_111" data-name="パス 111" d="M31.427,71.038H23.672c-.57,0-.713-.272-.713-.272a15.74,15.74,0,0,0-4.97-5.444,1.362,1.362,0,0,1-.148-.342l.014-.875c0-.415.319-.484.593-.5H26.64c.472.119.2.444.512.543a.36.36,0,0,0,.452-.135V63.2H27.6V59.45H27.6v-.822a.36.36,0,0,0-.452-.135c-.329.1-.01.462-.6.56H17.814V56.84l.041,0c0-.479.424-.5.714-.5v-.007h8.949l-.006.005c1.088,0,.59.465.974.587a.36.36,0,0,0,.452-.135v-.457h.008V51.783h-.008v-.412a.36.36,0,0,0-.452-.135c-.316.1-.035.432-.534.547H17.814V49.578l.041,0c0-.479.424-.5.714-.5l0-.016h7.568c1.063.005.575.466.956.586a.36.36,0,0,0,.452-.135V48.7h-.012V44.891h.012V44.07a.36.36,0,0,0-.452-.135c-.354.112.041.516-.753.578H17.814v-.426c.062-.769.488-.388.606-.727a.332.332,0,0,0-.141-.431h-.465v0H12.99v0h-.374a.332.332,0,0,0-.141.431c.091.262.367.095.516.36v.792H4.239c-.648-.089-.306-.46-.642-.567a.36.36,0,0,0-.452.135v.432h-.01v4.555h.01V49.5a.36.36,0,0,0,.452.134c.34-.107-.011-.484.662-.569h8.008l0,.016c.29,0,.714.019.714.5h.01v2.2H2.7c-.434-.124-.182-.438-.487-.535a.36.36,0,0,0-.452.135v.4H1.743v4.555h.015v.469a.36.36,0,0,0,.452.134c.383-.121-.115-.587.974-.587l-.02-.017h9.1v.007c.29,0,.714.019.714.5h.01V61.1l-.01-.037c0,.541-.31,1.08-.815,1.095a23.628,23.628,0,0,0-3.6-1.147,1.167,1.167,0,0,1-.843-.95v-.747c.062-.769.488-.388.606-.727a.332.332,0,0,0-.141-.431H2.522a.332.332,0,0,0-.141.431c.091.262.366.094.516.36l0,12.87c-.04.4-.125.942-.307,1H3.31l4-.043h.722c-.2-.068-.286-.739-.319-1.137l0-5.792a.426.426,0,0,1,.5-.339,23.07,23.07,0,0,1,5.048,2.106A17.263,17.263,0,0,1,19.4,73.57c.57,1.255.817,1.924,1.73,1.924h7.3a.611.611,0,0,0,.485-.222c.142-.228.125-.576.456-1.693.344-1.16,1.674-1.876,2.167-2.242.27-.2-.114-.3-.114-.3" transform="translate(-1.293 -31.851)" fill="#9f9f9f"/>
    <path id="パス_112" data-name="パス 112" d="M134.923,73.672a9.533,9.533,0,0,0-5.624-2.5,1.164,1.164,0,0,1-.755-.461.893.893,0,0,1-.066-.733c.183-.5.162-.783,1.832-2.716a13.058,13.058,0,0,1,1.472-1.428,12.154,12.154,0,0,0,1.648-1.318,1.961,1.961,0,0,0,.132-2.57,2.515,2.515,0,0,0-2.021-.879,4.292,4.292,0,0,0-2,.615,18.508,18.508,0,0,0-1.845,1.077l-.031.022c-.625.252-1.057-.063-1-.286a.722.722,0,0,0-.571-1.032.835.835,0,0,0-.945.989,1.432,1.432,0,0,0,1.389.975,2.615,2.615,0,0,1-1.148.189c-.962-.071-1.254-.77-1.7-1.651a1.976,1.976,0,0,0-1.682-1.2,1.4,1.4,0,0,0-.811.262,1.087,1.087,0,0,0-.474.8,3.341,3.341,0,0,0,1.075,2.158,4.619,4.619,0,0,0,3.633,1.348,23.376,23.376,0,0,0,2.992-.287c.27.013.565.126.3.463l.068-.06c-.916,1.017-2.208,2.036-2.937,2.734-2.667,2.555-4.3,4.305-2.711,5.894a2.851,2.851,0,0,0,1.889.351c.5-.071,1.815-.627,2.285-.7,1.889-.308,4.53-.331,6.2,1.494a7.938,7.938,0,0,1,1.922,7.2c-.537,2.773-2.359,5.392-7.943,5.248a5.108,5.108,0,0,1-4.477-2.7,6.3,6.3,0,0,1-.722-3.514c.241-1.926,1.867-2.688,3.532-2.718a2.987,2.987,0,0,1,2.021.835,2.651,2.651,0,0,1,.527,1.538,1.7,1.7,0,0,1-1.532,1.54c-.438,0,.433-.6-.05-1.386a1.573,1.573,0,0,0-2.307-.505,1.87,1.87,0,0,0-.659,1.142,3.1,3.1,0,0,0,.419,1.9,4.159,4.159,0,0,0,3.248,1.887c3.682.268,5.44-3.322,3.611-4.959,2.455,1.059,2.455-2.552.578-4.14-1.3-1.1-3.081-1.685-5.777-1.493-2.4.172-6.307,2.167-6.559,6.055A8.552,8.552,0,0,0,121,86.932a8.108,8.108,0,0,0,6.4,2.889c2.42.11,9.877-.243,10.424-9.162a9.113,9.113,0,0,0-2.9-6.986" transform="translate(-88.535 -45.08)" fill="#9f9f9f"/>
    <path id="パス_113" data-name="パス 113" d="M4.134,1.172q0-.163-.2-.164V.845h1.4v.164a.173.173,0,0,0-.114.041.149.149,0,0,0-.05.123V5.3a.149.149,0,0,0,.05.123.173.173,0,0,0,.114.041v.163h-1.4V5.461q.2,0,.2-.164V3.589H1.208V5.3a.149.149,0,0,0,.05.123.174.174,0,0,0,.114.041v.163H0V5.461q.173,0,.173-.164V1.172q0-.163-.173-.164V.845H1.372v.164a.174.174,0,0,0-.114.041.149.149,0,0,0-.05.123V2.717H4.134Z" transform="translate(0 -0.627)" fill="#9f9f9f"/>
    <path id="パス_114" data-name="パス 114" d="M40.5,5.462q.236,0,.236-.164V1.173q0-.163-.236-.163V.846h1.509V1.01q-.237,0-.236.163V5.3q0,.164.236.164v.164H40.5Z" transform="translate(-30.053 -0.628)" fill="#9f9f9f"/>
    <path id="パス_115" data-name="パス 115" d="M68.892.846a3.715,3.715,0,0,1,.791.077,1.783,1.783,0,0,1,.609.245,1.129,1.129,0,0,1,.391.436,1.442,1.442,0,0,1,.136.659,1.169,1.169,0,0,1-.355.918,1.906,1.906,0,0,1-.954.427l1.208,1.726a.246.246,0,0,0,.15.109.774.774,0,0,0,.159.018v.164h-1.7V5.462a.335.335,0,0,0,.141-.027c.039-.018.059-.042.059-.073a.207.207,0,0,0-.036-.1q-.036-.059-.109-.159l-1-1.418h-1.3V5.3a.139.139,0,0,0,.059.123.4.4,0,0,0,.213.041v.164H65.784V5.462q.264,0,.264-.163V1.173q0-.164-.264-.164V.846Zm-.236,2.126a2.477,2.477,0,0,0,.545-.05.957.957,0,0,0,.345-.141.527.527,0,0,0,.182-.214.687.687,0,0,0,0-.536.526.526,0,0,0-.182-.213.962.962,0,0,0-.345-.141,2.511,2.511,0,0,0-.545-.05H67.084V2.972Z" transform="translate(-48.809 -0.628)" fill="#9f9f9f"/>
    <path id="パス_116" data-name="パス 116" d="M106.939.634a3.652,3.652,0,0,1,1.018.15,3.172,3.172,0,0,1,.945.45,2.434,2.434,0,0,1,.7.759,2.087,2.087,0,0,1,.273,1.086,2.087,2.087,0,0,1-.273,1.086,2.434,2.434,0,0,1-.7.759,2.925,2.925,0,0,1-.945.436,3.869,3.869,0,0,1-2.035,0,2.923,2.923,0,0,1-.945-.436,2.431,2.431,0,0,1-.7-.759A2.084,2.084,0,0,1,104,3.078a2.085,2.085,0,0,1,.273-1.086,2.431,2.431,0,0,1,.7-.759,3.169,3.169,0,0,1,.945-.45,3.651,3.651,0,0,1,1.018-.15m0,.836a2.286,2.286,0,0,0-.691.109,2.11,2.11,0,0,0-.622.314,1.627,1.627,0,0,0-.45.5,1.34,1.34,0,0,0-.173.681,1.342,1.342,0,0,0,.173.682,1.626,1.626,0,0,0,.45.5,2.11,2.11,0,0,0,.622.314,2.244,2.244,0,0,0,1.381,0,2.113,2.113,0,0,0,.622-.314,1.636,1.636,0,0,0,.45-.5,1.344,1.344,0,0,0,.172-.682A1.343,1.343,0,0,0,108.7,2.4a1.637,1.637,0,0,0-.45-.5,2.113,2.113,0,0,0-.622-.314,2.287,2.287,0,0,0-.691-.109" transform="translate(-77.166 -0.47)" fill="#9f9f9f"/>
    <path id="パス_117" data-name="パス 117" d="M148.442.845a2.9,2.9,0,0,1,.932.146,1.984,1.984,0,0,1,1.249,1.186,2.814,2.814,0,0,1,.182,1.059,2.814,2.814,0,0,1-.182,1.059,1.986,1.986,0,0,1-1.249,1.186,2.9,2.9,0,0,1-.932.145h-3.017V5.461q.209,0,.209-.164V1.172q0-.163-.209-.164V.845Zm-.363,4a3.37,3.37,0,0,0,.745-.073,1.166,1.166,0,0,0,.527-.259,1.137,1.137,0,0,0,.314-.5,2.481,2.481,0,0,0,.1-.781,2.485,2.485,0,0,0-.1-.781,1.138,1.138,0,0,0-.314-.5,1.169,1.169,0,0,0-.527-.259,3.387,3.387,0,0,0-.745-.073H146.67V4.843Z" transform="translate(-107.898 -0.627)" fill="#9f9f9f"/>
    <path id="パス_118" data-name="パス 118" d="M189.725,1.2a.167.167,0,0,0-.077-.15.523.523,0,0,0-.268-.05h-2.944V2.127h1.781a.645.645,0,0,0,.282-.05q.1-.05.1-.259h.164V3.236H188.6c0-.139-.033-.229-.1-.268a.557.557,0,0,0-.282-.059h-1.781V4.163h3.035a.366.366,0,0,0,.222-.063.2.2,0,0,0,.086-.173h.164V5.171h-.164q0-.136-.086-.155A1.113,1.113,0,0,0,189.471,5h-4.235V4.835a.174.174,0,0,0,.114-.041.149.149,0,0,0,.05-.123V.546a.149.149,0,0,0-.05-.123.174.174,0,0,0-.114-.041V.219h4.143a.457.457,0,0,0,.268-.059A.19.19,0,0,0,189.725,0h.164V1.2Z" transform="translate(-137.436 -0.001)" fill="#9f9f9f"/>
    <path id="パス_119" data-name="パス 119" d="M222.741,5.462q.173,0,.173-.164V1.173q0-.163-.173-.163V.846h1.554V1.01c-.048,0-.072.03-.072.091s.06.133.182.254l2.608,2.708V1.173q0-.163-.236-.163V.846h1.372V1.01q-.173,0-.173.163V5.3q0,.164.173.164v.164h-1.472V5.462q.118,0,.118-.082,0-.063-.146-.209l-2.771-2.89V5.3c0,.109.069.164.209.164v.164h-1.345Z" transform="translate(-165.263 -0.628)" fill="#9f9f9f"/>
    <path id="パス_120" data-name="パス 120" d="M286.583,5.462a.266.266,0,0,0,.186-.118,1.9,1.9,0,0,0,.132-.227l1.681-3.535q.063-.118.114-.218a.4.4,0,0,0,.05-.173.134.134,0,0,0-.063-.127.55.55,0,0,0-.136-.055V.846h1.536v.163a.755.755,0,0,0-.127.05.133.133,0,0,0-.064.132.357.357,0,0,0,.032.145c.021.049.053.112.1.191l1.89,3.7a.31.31,0,0,0,.123.146,1.894,1.894,0,0,0,.177.091v.164h-1.6V5.462a.212.212,0,0,0,.091-.027.087.087,0,0,0,.055-.082.566.566,0,0,0-.073-.236l-.345-.672h-2.217l-.327.645a.761.761,0,0,0-.091.273q0,.1.173.1v.164h-1.29Zm3.426-1.69-.763-1.69-.854,1.69Z" transform="translate(-212.631 -0.628)" fill="#9f9f9f"/>
    <path id="パス_121" data-name="パス 121" d="M329.525.846a3.717,3.717,0,0,1,.791.077,1.78,1.78,0,0,1,.608.245,1.13,1.13,0,0,1,.391.436,1.443,1.443,0,0,1,.136.659,1.17,1.17,0,0,1-.354.918,1.906,1.906,0,0,1-.954.427l1.209,1.726a.245.245,0,0,0,.15.109.77.77,0,0,0,.159.018v.164h-1.7V5.462a.336.336,0,0,0,.141-.027c.039-.018.059-.042.059-.073a.209.209,0,0,0-.036-.1q-.036-.059-.109-.159l-1-1.418h-1.3V5.3a.14.14,0,0,0,.059.123.4.4,0,0,0,.214.041v.164h-1.572V5.462q.264,0,.263-.163V1.173q0-.164-.263-.164V.846Zm-.236,2.126a2.48,2.48,0,0,0,.545-.05.961.961,0,0,0,.346-.141.528.528,0,0,0,.182-.214.687.687,0,0,0,0-.536.528.528,0,0,0-.182-.213.966.966,0,0,0-.346-.141,2.514,2.514,0,0,0-.545-.05h-1.572V2.972Z" transform="translate(-242.186 -0.628)" fill="#9f9f9f"/>
    <path id="パス_122" data-name="パス 122" d="M367.186,4.671c0,.109.066.164.2.164V5h-1.4V4.834a.175.175,0,0,0,.114-.041.15.15,0,0,0,.05-.123V1.054h-1.5a.31.31,0,0,0-.159.045.183.183,0,0,0-.077.173h-.163V0h.163a.183.183,0,0,0,.077.173.308.308,0,0,0,.159.046h4.035a.309.309,0,0,0,.159-.046A.183.183,0,0,0,368.921,0h.164V1.272h-.164a.183.183,0,0,0-.077-.173.311.311,0,0,0-.159-.045h-1.5Z" transform="translate(-270.257)" fill="#9f9f9f"/>
    <path id="パス_123" data-name="パス 123" d="M427.61,4.671q0,.163.2.164V5h-1.4V4.834a.174.174,0,0,0,.114-.041.149.149,0,0,0,.05-.123V1.054h-1.5a.31.31,0,0,0-.159.045.183.183,0,0,0-.077.173h-.164V0h.164a.183.183,0,0,0,.077.173.307.307,0,0,0,.159.046h4.035a.309.309,0,0,0,.159-.046A.183.183,0,0,0,429.346,0h.164V1.272h-.164a.184.184,0,0,0-.077-.173.311.311,0,0,0-.159-.045h-1.5Z" transform="translate(-315.088)" fill="#9f9f9f"/>
    <path id="パス_124" data-name="パス 124" d="M464.777.846a3.717,3.717,0,0,1,.791.077,1.78,1.78,0,0,1,.608.245,1.13,1.13,0,0,1,.391.436,1.445,1.445,0,0,1,.136.659,1.17,1.17,0,0,1-.354.918,1.906,1.906,0,0,1-.954.427L466.6,5.335a.245.245,0,0,0,.15.109.769.769,0,0,0,.159.018v.164h-1.7V5.462a.336.336,0,0,0,.141-.027c.039-.018.059-.042.059-.073a.209.209,0,0,0-.036-.1q-.036-.059-.109-.159l-1-1.418h-1.3V5.3a.14.14,0,0,0,.059.123.4.4,0,0,0,.214.041v.164H461.67V5.462q.264,0,.263-.163V1.173q0-.164-.263-.164V.846Zm-.236,2.126a2.48,2.48,0,0,0,.545-.05.963.963,0,0,0,.346-.141.529.529,0,0,0,.182-.214.687.687,0,0,0,0-.536.528.528,0,0,0-.182-.213.968.968,0,0,0-.346-.141,2.514,2.514,0,0,0-.545-.05h-1.572V2.972Z" transform="translate(-342.537 -0.628)" fill="#9f9f9f"/>
    <path id="パス_125" data-name="パス 125" d="M499.653,5.462a.265.265,0,0,0,.186-.118,1.932,1.932,0,0,0,.132-.227l1.681-3.535c.042-.079.08-.151.114-.218a.4.4,0,0,0,.05-.173.134.134,0,0,0-.063-.127.548.548,0,0,0-.136-.055V.846h1.536v.163a.757.757,0,0,0-.127.05.133.133,0,0,0-.064.132.356.356,0,0,0,.032.145c.021.049.053.112.1.191l1.89,3.7a.308.308,0,0,0,.123.146,1.866,1.866,0,0,0,.177.091v.164h-1.6V5.462a.212.212,0,0,0,.091-.027.087.087,0,0,0,.055-.082.569.569,0,0,0-.073-.236l-.345-.672h-2.217l-.327.645a.761.761,0,0,0-.091.273c0,.067.058.1.173.1v.164h-1.29Zm3.426-1.69-.763-1.69-.854,1.69Z" transform="translate(-370.719 -0.628)" fill="#9f9f9f"/>
    <path id="パス_126" data-name="パス 126" d="M539.626,5.462a.207.207,0,0,0,.128-.041.144.144,0,0,0,.054-.123V1.155a.121.121,0,0,0-.054-.114.249.249,0,0,0-.128-.032V.846h1.7V1.01a.2.2,0,0,0-.1.027.088.088,0,0,0-.05.082.282.282,0,0,0,.036.118c.024.049.051.1.082.155l1.3,2.362,1.308-2.335q.064-.118.1-.186a.3.3,0,0,0,.032-.123q0-.1-.118-.1V.846H545.6V1.01a.249.249,0,0,0-.127.032.12.12,0,0,0-.054.114V5.3a.143.143,0,0,0,.054.123.207.207,0,0,0,.127.041v.164h-1.427V5.462q.245,0,.245-.164V2.282H544.4L542.57,5.626h-.027l-1.79-3.353h-.018V5.3q0,.164.255.164v.164h-1.363Z" transform="translate(-400.376 -0.628)" fill="#9f9f9f"/>
  </g>
</svg>
