<svg xmlns="http://www.w3.org/2000/svg" width="356" height="80" viewBox="0 0 356 80"><g transform="translate(-654.5 -2130)"><text transform="translate(654.5 2192)" fill="#fff" font-size="80" font-family="Helvetica"><tspan x="0" y="0">ARCHIVE</tspan></text><path d="M140.391,1.984A27.568,27.568,0,0,1,131.022.441,23.724,23.724,0,0,1,123.261-4.2a25.24,25.24,0,0,1-6.847-10.389A43.435,43.435,0,0,1,114.148-29.3,38.152,38.152,0,0,1,115.852-41a28.4,28.4,0,0,1,5.13-9.433,23.809,23.809,0,0,1,8.826-6.76,28.626,28.626,0,0,1,11.6-2.249,30.686,30.686,0,0,1,9.838,1.462,19.894,19.894,0,0,1,7.421,4.418,23.612,23.612,0,0,1,4.778,6.267,19.346,19.346,0,0,1,2.055,7.1l.05.545h-8.523l-.09-.387a15.354,15.354,0,0,0-4.972-8.52c-2.46-2.073-5.986-3.125-10.479-3.125a18.6,18.6,0,0,0-7.462,1.448,16.532,16.532,0,0,0-5.854,4.339,18.915,18.915,0,0,0-3.807,7.352,38.938,38.938,0,0,0-1.285,10.58,32.6,32.6,0,0,0,1.157,8.988,21.678,21.678,0,0,0,3.45,7.06,14.327,14.327,0,0,0,5.668,4.546,19.5,19.5,0,0,0,7.975,1.524,16.17,16.17,0,0,0,7.343-1.6A14.168,14.168,0,0,0,154-12.234a24.738,24.738,0,0,0,3.478-8.961l.083-.4h8.544l-.062.556a28.886,28.886,0,0,1-2.227,8.477,25.274,25.274,0,0,1-4.622,7A22.524,22.524,0,0,1,150.987.1,28.428,28.428,0,0,1,140.391,1.984Zm1.016-60.43a27.637,27.637,0,0,0-11.195,2.165,22.82,22.82,0,0,0-8.458,6.481,27.407,27.407,0,0,0-4.949,9.1,37.158,37.158,0,0,0-1.656,11.4,42.448,42.448,0,0,0,2.206,14.371,24.25,24.25,0,0,0,6.572,9.983A22.727,22.727,0,0,0,131.361-.5a26.575,26.575,0,0,0,9.03,1.484,27.437,27.437,0,0,0,10.224-1.81,21.534,21.534,0,0,0,7.846-5.413,24.279,24.279,0,0,0,4.441-6.728,27.637,27.637,0,0,0,2.081-7.628h-6.609a25.292,25.292,0,0,1-3.547,8.923,15.153,15.153,0,0,1-5.7,5.115,17.156,17.156,0,0,1-7.794,1.7,20.488,20.488,0,0,1-8.383-1.611,15.316,15.316,0,0,1-6.06-4.859,22.674,22.674,0,0,1-3.611-7.384,33.6,33.6,0,0,1-1.2-9.264A39.923,39.923,0,0,1,123.4-38.824a19.9,19.9,0,0,1,4.016-7.736,17.523,17.523,0,0,1,6.207-4.6,19.6,19.6,0,0,1,7.861-1.531c4.735,0,8.477,1.13,11.123,3.36a16.2,16.2,0,0,1,5.208,8.671h6.629a18.339,18.339,0,0,0-1.891-6.186,22.617,22.617,0,0,0-4.578-6,18.9,18.9,0,0,0-7.052-4.195A29.7,29.7,0,0,0,141.406-58.445ZM352.023.5H308.6V-57.883h42.836v8.031H317.18V-33.43h31.68v7.641H317.18V-7.336h34.844ZM309.6-.5h41.422V-6.336H316.18V-26.789h31.68V-32.43H316.18V-50.852h34.258v-6.031H309.6ZM280.428.5h-8.942l-.12-.329L250.223-57.883h9.667l16.123,47.795,15.932-47.795h9.786Zm-8.242-1h7.542L300.3-56.883h-7.636L276.018-6.943l-16.846-49.94h-7.52Zm-29.3,1h-8.852V-57.883h8.852Zm-7.852-1h6.852V-56.883h-6.852ZM221.242.5h-8.852V-26.336H183.547V.5H174.7V-57.883h8.852v23.711h28.844V-57.883h8.852Zm-7.852-1h6.852V-56.883h-6.852v23.711H182.547V-56.883H175.7V-.5h6.852V-27.336h30.844ZM108.547.5H98.214L98.073.233A7.691,7.691,0,0,1,97.4-1.816,36.683,36.683,0,0,1,97-6.422l-.469-9.569a10.245,10.245,0,0,0-1.119-4.479A6.274,6.274,0,0,0,92.634-23.1a16.946,16.946,0,0,0-6.775-1h-17.2V.5H59.891V-57.883H86.953a27.1,27.1,0,0,1,11.025,1.958c5.562,2.526,8.381,7.239,8.381,14.011a15.8,15.8,0,0,1-2.209,8.71,15.648,15.648,0,0,1-5.254,4.95,11.623,11.623,0,0,1,4.333,3.342c1.208,1.583,1.861,4.039,2,7.51l.273,7.7a23.329,23.329,0,0,0,.53,4.771v.005a4.361,4.361,0,0,0,2.215,3.182l.3.131ZM98.83-.5h8.717V-.977a5.486,5.486,0,0,1-2.483-3.7A23.875,23.875,0,0,1,104.5-9.67l-.273-7.7c-.125-3.211-.729-5.547-1.792-6.941a11.305,11.305,0,0,0-4.85-3.434l-1-.408.959-.5a14.96,14.96,0,0,0,5.768-5.1,14.828,14.828,0,0,0,2.048-8.165,15.584,15.584,0,0,0-1.951-8.074,12.7,12.7,0,0,0-5.842-5.026,26.13,26.13,0,0,0-10.614-1.869H60.891V-.5h6.773V-25.109h18.2c3.282,0,5.64.361,7.206,1.1l.006,0c2.768,1.356,4.268,4.036,4.459,7.964L98-6.47a36.633,36.633,0,0,0,.381,4.458A7.487,7.487,0,0,0,98.83-.5ZM53.1.5H43.509l-5.82-17.187H15.7L9.492.5H.449L22.427-57.883h9.486l.12.329Zm-8.87-1H51.67L31.212-56.883H23.119L1.894-.5h6.9L15-17.688h23.4ZM36.247-23.016H16.863L26.85-50.364Zm-17.954-1H34.846L26.822-47.37Zm67.84-6.578H67.664V-51.2H87.148a15.1,15.1,0,0,1,6.588,1.223c3.141,1.571,4.732,4.534,4.732,8.808,0,3.959-1.144,6.752-3.4,8.3C92.871-31.359,89.865-30.594,86.133-30.594Zm-17.469-1H86.133c3.526,0,6.342-.706,8.369-2.1a6.146,6.146,0,0,0,2.207-2.841,12.491,12.491,0,0,0,.76-4.637,10.425,10.425,0,0,0-1.055-4.921,6.983,6.983,0,0,0-3.122-2.991A14.143,14.143,0,0,0,87.148-50.2H68.664Z" transform="translate(654.5 2192)" fill="#707070"/></g></svg>