<svg xmlns="http://www.w3.org/2000/svg" width="240" height="80" viewBox="0 0 240 80"><g transform="translate(-715 -4908.5)"><text transform="translate(715 4970.5)" fill="#fff" font-size="80" font-family="Helvetica"><tspan x="0" y="0">NEWS</tspan></text><path d="M212.93-59.328a31.086,31.086,0,0,1,8.481,1.108,24.117,24.117,0,0,1,7.135,3.336,14.107,14.107,0,0,1,4.9,5.864,20.486,20.486,0,0,1,1.622,8.473v.5h-8.245l-.056-.437a13.969,13.969,0,0,0-2.4-6.826,10.27,10.27,0,0,0-4.575-3.208,20.522,20.522,0,0,0-7.1-1.092c-4.428,0-7.637.926-9.536,2.751a9.578,9.578,0,0,0-2.146,2.969A8.238,8.238,0,0,0,200.3-42.5a6.046,6.046,0,0,0,3.258,5.735c1.492.808,4.957,1.842,10.3,3.075l8.046,1.836a25.249,25.249,0,0,1,9.168,3.716c3.766,2.771,5.674,6.836,5.674,12.084a18.416,18.416,0,0,1-1.788,8.4,13.793,13.793,0,0,1-5.391,5.663,29.025,29.025,0,0,1-7.626,3.13A35.5,35.5,0,0,1,213.2,2.18a31.35,31.35,0,0,1-9.7-1.392,20.343,20.343,0,0,1-7.4-4.206A17.649,17.649,0,0,1,191.47-10a21.977,21.977,0,0,1-1.462-8.523l.006-.494h8.271l.026.472a15.27,15.27,0,0,0,2.221,7.68,11.317,11.317,0,0,0,5.119,4.093,21.09,21.09,0,0,0,8.1,1.387,23.747,23.747,0,0,0,7.8-1.222,10.767,10.767,0,0,0,4.989-3.219,7.743,7.743,0,0,0,1.628-4.98,9.511,9.511,0,0,0-.69-3.813,5.664,5.664,0,0,0-2.017-2.451,29.286,29.286,0,0,0-9.13-3.327l-7.772-1.758c-5.113-1.154-8.8-2.452-10.945-3.858-3.779-2.483-5.695-6.238-5.695-11.161a18.532,18.532,0,0,1,1.377-7.235,16.863,16.863,0,0,1,4.134-5.827,17.834,17.834,0,0,1,6.649-3.829A28.547,28.547,0,0,1,212.93-59.328Zm21.136,18.281a19.13,19.13,0,0,0-1.528-7.56,13.12,13.12,0,0,0-4.56-5.454,23.119,23.119,0,0,0-6.84-3.2,30.089,30.089,0,0,0-8.208-1.07,27.557,27.557,0,0,0-8.536,1.215,16.843,16.843,0,0,0-6.28,3.612,15.871,15.871,0,0,0-3.893,5.482,17.54,17.54,0,0,0-1.3,6.847,13.192,13.192,0,0,0,1.313,6.033,11.23,11.23,0,0,0,3.931,4.291c2.049,1.34,5.621,2.592,10.617,3.719l7.774,1.758a30.183,30.183,0,0,1,9.461,3.468l.006,0c2.089,1.421,3.149,3.807,3.149,7.093,0,4.383-2.452,7.459-7.289,9.144a24.741,24.741,0,0,1-8.133,1.278,22.068,22.068,0,0,1-8.484-1.465,12.3,12.3,0,0,1-5.563-4.458,15.9,15.9,0,0,1-2.359-7.71h-6.338a20.7,20.7,0,0,0,1.391,7.643,16.659,16.659,0,0,0,4.382,6.211,19.352,19.352,0,0,0,7.038,4A30.358,30.358,0,0,0,213.2,1.18,34.5,34.5,0,0,0,221.7.17a28.026,28.026,0,0,0,7.364-3.022,12.809,12.809,0,0,0,5.009-5.255,17.436,17.436,0,0,0,1.679-7.947,15.329,15.329,0,0,0-1.32-6.536,12.372,12.372,0,0,0-3.945-4.741,24.294,24.294,0,0,0-8.8-3.548l-8.047-1.836c-5.513-1.272-8.966-2.31-10.557-3.173l0,0A7.057,7.057,0,0,1,199.3-42.5a9.568,9.568,0,0,1,3.161-7.079,9.983,9.983,0,0,1,4.181-2.287,21.806,21.806,0,0,1,6.049-.743,21.5,21.5,0,0,1,7.45,1.154,11.256,11.256,0,0,1,5.013,3.527,14.511,14.511,0,0,1,2.545,6.881ZM5.594-57.883h9.957L43.758-12.645V-57.883h8.383V.5H42.654L14.016-44.721V.5H5.594Zm9.4,1h-8.4V-.5h6.422V-48.169L43.2-.5h7.936V-56.883H44.758V-9.152Zm49.113-1h42.836v8.031H72.688V-33.43h31.68v7.641H72.688V-7.336h34.844V.5H64.109Zm41.836,1H65.109V-.5h41.422V-6.336H71.688V-26.789h31.68V-32.43H71.688V-50.852h34.258Zm5.985-1h9.482L131.88-12.729l12.545-45.154h9.2l12.545,45.154,10.467-45.154H186.2L170.854.5h-8.93l-.1-.366L149.061-45.718,136.121.5h-8.929Zm8.688,1h-7.393L127.964-.5h7.4l13.7-48.938L162.685-.5h7.4L184.9-56.883h-7.47L166.7-10.59l-.969.021L152.862-56.883h-7.677L132.318-10.569l-.969-.021Z" transform="translate(715 4970.5)" fill="#707070"/></g></svg>