<svg xmlns="http://www.w3.org/2000/svg" width="418" height="80" viewBox="0 0 418 80"><g transform="translate(-619.5 -2964)"><text transform="translate(619.5 3026)" fill="#fff" font-size="80" font-family="Helvetica"><tspan x="0" y="0">NOWHERE</tspan></text><path d="M88.633-59.445a33.655,33.655,0,0,1,13.422,2.483,23.247,23.247,0,0,1,9.479,7.483,27.6,27.6,0,0,1,4.357,8.841,39.1,39.1,0,0,1,1.446,10.951,40.854,40.854,0,0,1-1.653,11.914,30.716,30.716,0,0,1-4.974,9.758,24.966,24.966,0,0,1-9.476,7.651A30.471,30.471,0,0,1,88.477,2.18,30.912,30.912,0,0,1,76.457-.047a24.752,24.752,0,0,1-9.178-6.7l-.012-.015a29.9,29.9,0,0,1-5.155-9.712A39.526,39.526,0,0,1,60.4-28.4a39.293,39.293,0,0,1,1.465-10.94,31.46,31.46,0,0,1,4.406-9.268,24.346,24.346,0,0,1,9.391-8.133A29.578,29.578,0,0,1,88.633-59.445ZM88.477,1.18a29.484,29.484,0,0,0,12.341-2.455,23.977,23.977,0,0,0,9.1-7.349,29.721,29.721,0,0,0,4.811-9.442,39.859,39.859,0,0,0,1.609-11.622,38.1,38.1,0,0,0-1.406-10.67,26.608,26.608,0,0,0-4.2-8.522,22.259,22.259,0,0,0-9.076-7.165,32.671,32.671,0,0,0-13.024-2.4A28.593,28.593,0,0,0,76.1-55.839a23.358,23.358,0,0,0-9.007,7.805,30.463,30.463,0,0,0-4.266,8.974A38.3,38.3,0,0,0,61.4-28.4a38.531,38.531,0,0,0,1.666,11.626A28.908,28.908,0,0,0,68.04-7.391a23.759,23.759,0,0,0,8.8,6.422A29.923,29.923,0,0,0,88.477,1.18ZM5.594-57.883h9.957l.147.235,28.06,45V-57.883h8.383V.5H42.654L42.507.267,14.016-44.721V.5H5.594Zm9.4,1h-8.4V-.5h6.422V-48.169L43.2-.5h7.936V-56.883H44.758V-9.152Zm105.8-1h9.482l.09.387,10.377,44.767,12.545-45.154h9.2l12.545,45.154L185.5-57.883h9.561L179.722.5h-8.93L157.928-45.718,144.989.5h-8.929Zm8.688,1h-7.393L136.831-.5h7.4l13.7-48.938L171.552-.5h7.4l14.815-56.383H186.3L175.565-10.59l-.969.021L161.729-56.883h-7.677L141.185-10.569l-.969-.021Zm71.811-1h8.852v23.711h28.844V-57.883h8.852V.5h-8.852V-26.336H210.148V.5H201.3Zm7.852,1H202.3V-.5h6.852V-27.336h30.844V-.5h6.852V-56.883h-6.852v23.711H209.148Zm50.469-1h42.836v8.031H268.2V-33.43h31.68v7.641H268.2V-7.336h34.844V.5H259.617Zm41.836,1H260.617V-.5h41.422V-6.336H267.2V-26.789h31.68V-32.43H267.2V-50.852h34.258Zm11.719-1h27.063a27.1,27.1,0,0,1,11.025,1.958c5.562,2.526,8.381,7.239,8.381,14.011a15.8,15.8,0,0,1-2.209,8.71,15.648,15.648,0,0,1-5.254,4.95,11.622,11.622,0,0,1,4.333,3.342c1.208,1.583,1.861,4.04,2,7.51l.274,7.7a23.329,23.329,0,0,0,.53,4.771v.005a4.361,4.361,0,0,0,2.215,3.182l.3.131V.5H351.495l-.141-.267a7.69,7.69,0,0,1-.673-2.049,36.683,36.683,0,0,1-.4-4.606l-.469-9.569a10.246,10.246,0,0,0-1.12-4.479,6.274,6.274,0,0,0-2.779-2.634,16.949,16.949,0,0,0-6.774-1h-17.2V.5h-8.773Zm45.172,53.2a23.893,23.893,0,0,1-.562-4.99l-.273-7.7c-.125-3.211-.728-5.547-1.792-6.941a11.305,11.305,0,0,0-4.85-3.434l-1-.407.959-.5a14.96,14.96,0,0,0,5.768-5.1,14.828,14.828,0,0,0,2.048-8.165,15.584,15.584,0,0,0-1.951-8.074,12.7,12.7,0,0,0-5.842-5.026,26.13,26.13,0,0,0-10.614-1.869H314.172V-.5h6.773V-25.109h18.2c3.282,0,5.64.361,7.206,1.1l.006,0c2.768,1.356,4.268,4.036,4.459,7.964l.469,9.57a36.615,36.615,0,0,0,.382,4.458A7.484,7.484,0,0,0,352.111-.5h8.717V-.977A5.488,5.488,0,0,1,358.344-4.68Zm12.406-53.2h42.836v8.031H379.328V-33.43h31.68v7.641h-31.68V-7.336h34.844V.5H370.75Zm41.836,1H371.75V-.5h41.422V-6.336H378.328V-26.789h31.68V-32.43h-31.68V-50.852h34.258ZM89.1-52.531a21.335,21.335,0,0,1,8.4,1.583,17.482,17.482,0,0,1,6.448,4.763,21.275,21.275,0,0,1,4.066,7.329,30.1,30.1,0,0,1,1.348,9.285,35.006,35.006,0,0,1-1.165,9.149,30.071,30.071,0,0,1-3.5,8.049,15.225,15.225,0,0,1-6.213,5.706,20.328,20.328,0,0,1-9.074,1.893A24.688,24.688,0,0,1,79.9-6.448a15.32,15.32,0,0,1-6.533-5.072,24.23,24.23,0,0,1-3.695-7.443,31.089,31.089,0,0,1-1.227-8.928A35.857,35.857,0,0,1,69.874-38.5,20.19,20.19,0,0,1,74.2-46.257a18.971,18.971,0,0,1,6.619-4.707A21.247,21.247,0,0,1,89.1-52.531Zm.313,46.758a19.345,19.345,0,0,0,8.631-1.789,14.24,14.24,0,0,0,5.808-5.339,29.071,29.071,0,0,0,3.384-7.781,34.007,34.007,0,0,0,1.13-8.888,29.1,29.1,0,0,0-1.3-8.976,20.281,20.281,0,0,0-3.874-6.987,16.49,16.49,0,0,0-6.081-4.494,20.345,20.345,0,0,0-8.012-1.5,20.256,20.256,0,0,0-7.892,1.489,17.977,17.977,0,0,0-6.271,4.463,19.2,19.2,0,0,0-4.109,7.374,34.871,34.871,0,0,0-1.384,10.315,30.093,30.093,0,0,0,1.185,8.64,23.233,23.233,0,0,0,3.542,7.137A14.334,14.334,0,0,0,80.286-7.37,23.705,23.705,0,0,0,89.414-5.773ZM320.945-51.2H340.43a15.1,15.1,0,0,1,6.588,1.223c3.141,1.571,4.732,4.534,4.732,8.808,0,3.959-1.144,6.752-3.4,8.3-2.2,1.51-5.2,2.275-8.935,2.275H320.945Zm18.469,19.609c3.526,0,6.342-.706,8.369-2.1a6.147,6.147,0,0,0,2.207-2.841,12.491,12.491,0,0,0,.76-4.637,10.424,10.424,0,0,0-1.055-4.921,6.983,6.983,0,0,0-3.122-2.991A14.144,14.144,0,0,0,340.43-50.2H321.945v18.609Z" transform="translate(619.5 3026)" fill="#707070"/></g></svg>