<svg xmlns="http://www.w3.org/2000/svg" width="392" height="80" viewBox="0 0 392 80"><g transform="translate(-637.5 -6107.5)"><text transform="translate(637.5 6169.5)" fill="#fff" font-size="80" font-family="Helvetica"><tspan x="0" y="0">CONCEPT</tspan></text><path d="M30.273-59.445a30.686,30.686,0,0,1,9.839,1.462,19.894,19.894,0,0,1,7.421,4.418A23.611,23.611,0,0,1,52.31-47.3a19.346,19.346,0,0,1,2.055,7.1l.05.545H45.892l-.09-.387a15.354,15.354,0,0,0-4.972-8.52c-2.461-2.073-5.986-3.125-10.479-3.125A18.6,18.6,0,0,0,22.89-50.24,16.531,16.531,0,0,0,17.036-45.9a18.915,18.915,0,0,0-3.807,7.352,38.936,38.936,0,0,0-1.284,10.58A32.6,32.6,0,0,0,13.1-18.981a21.677,21.677,0,0,0,3.45,7.06A14.327,14.327,0,0,0,22.22-7.376,19.5,19.5,0,0,0,30.2-5.852a16.17,16.17,0,0,0,7.343-1.6,14.168,14.168,0,0,0,5.329-4.786A24.738,24.738,0,0,0,46.346-21.2l.082-.4h8.544l-.062.556a28.888,28.888,0,0,1-2.227,8.477,25.275,25.275,0,0,1-4.622,7A22.525,22.525,0,0,1,39.854.1a28.428,28.428,0,0,1-10.6,1.882A27.57,27.57,0,0,1,19.889.441,23.724,23.724,0,0,1,12.128-4.2,25.24,25.24,0,0,1,5.282-14.586,43.434,43.434,0,0,1,3.016-29.3,38.153,38.153,0,0,1,4.719-41a28.4,28.4,0,0,1,5.13-9.433,23.809,23.809,0,0,1,8.826-6.76A28.627,28.627,0,0,1,30.273-59.445ZM53.312-40.656a18.339,18.339,0,0,0-1.891-6.186,22.617,22.617,0,0,0-4.578-6,18.9,18.9,0,0,0-7.052-4.195,29.7,29.7,0,0,0-9.517-1.409,27.637,27.637,0,0,0-11.195,2.165A22.82,22.82,0,0,0,10.62-49.8a27.407,27.407,0,0,0-4.949,9.1A37.158,37.158,0,0,0,4.016-29.3,42.449,42.449,0,0,0,6.222-14.926a24.251,24.251,0,0,0,6.572,9.983A22.727,22.727,0,0,0,20.228-.5,26.574,26.574,0,0,0,29.258.984,27.437,27.437,0,0,0,39.482-.826a21.532,21.532,0,0,0,7.846-5.413,24.278,24.278,0,0,0,4.441-6.728,27.636,27.636,0,0,0,2.081-7.628H47.241a25.293,25.293,0,0,1-3.547,8.923,15.154,15.154,0,0,1-5.7,5.115,17.156,17.156,0,0,1-7.794,1.7,20.488,20.488,0,0,1-8.383-1.611,15.316,15.316,0,0,1-6.06-4.859A22.672,22.672,0,0,1,12.142-18.7a33.6,33.6,0,0,1-1.2-9.264,39.924,39.924,0,0,1,1.323-10.855,19.9,19.9,0,0,1,4.016-7.736,17.522,17.522,0,0,1,6.207-4.6,19.594,19.594,0,0,1,7.861-1.531c4.735,0,8.477,1.13,11.123,3.36a16.2,16.2,0,0,1,5.208,8.671ZM88.633-59.445a33.655,33.655,0,0,1,13.422,2.483,23.247,23.247,0,0,1,9.479,7.483,27.6,27.6,0,0,1,4.357,8.841,39.1,39.1,0,0,1,1.446,10.951,40.855,40.855,0,0,1-1.653,11.914,30.716,30.716,0,0,1-4.974,9.758,24.966,24.966,0,0,1-9.476,7.651A30.471,30.471,0,0,1,88.477,2.18,30.912,30.912,0,0,1,76.457-.047a24.753,24.753,0,0,1-9.178-6.7l-.012-.015a29.9,29.9,0,0,1-5.155-9.712A39.526,39.526,0,0,1,60.4-28.4a39.293,39.293,0,0,1,1.465-10.94,31.46,31.46,0,0,1,4.406-9.268,24.346,24.346,0,0,1,9.391-8.133A29.579,29.579,0,0,1,88.633-59.445ZM88.477,1.18a29.483,29.483,0,0,0,12.341-2.455,23.977,23.977,0,0,0,9.1-7.349,29.721,29.721,0,0,0,4.811-9.442,39.857,39.857,0,0,0,1.609-11.622,38.1,38.1,0,0,0-1.406-10.67,26.609,26.609,0,0,0-4.2-8.522,22.259,22.259,0,0,0-9.076-7.165,32.672,32.672,0,0,0-13.024-2.4A28.593,28.593,0,0,0,76.1-55.839a23.358,23.358,0,0,0-9.007,7.805,30.463,30.463,0,0,0-4.266,8.974A38.3,38.3,0,0,0,61.4-28.4a38.531,38.531,0,0,0,1.666,11.626A28.908,28.908,0,0,0,68.04-7.391a23.76,23.76,0,0,0,8.8,6.422A29.923,29.923,0,0,0,88.477,1.18Zm119.57-60.625a30.686,30.686,0,0,1,9.839,1.462,19.9,19.9,0,0,1,7.421,4.418,23.612,23.612,0,0,1,4.777,6.267,19.346,19.346,0,0,1,2.055,7.1l.05.545h-8.523l-.09-.387a15.354,15.354,0,0,0-4.972-8.52c-2.461-2.073-5.986-3.125-10.479-3.125a18.6,18.6,0,0,0-7.462,1.448A16.531,16.531,0,0,0,194.81-45.9,18.914,18.914,0,0,0,191-38.549a38.936,38.936,0,0,0-1.285,10.58,32.6,32.6,0,0,0,1.157,8.988,21.677,21.677,0,0,0,3.45,7.06,14.327,14.327,0,0,0,5.668,4.546,19.5,19.5,0,0,0,7.975,1.524,16.17,16.17,0,0,0,7.343-1.6,14.168,14.168,0,0,0,5.329-4.786A24.738,24.738,0,0,0,224.12-21.2l.083-.4h8.544l-.062.556a28.886,28.886,0,0,1-2.227,8.477,25.274,25.274,0,0,1-4.622,7A22.524,22.524,0,0,1,217.627.1a28.428,28.428,0,0,1-10.6,1.882A27.57,27.57,0,0,1,197.662.441,23.725,23.725,0,0,1,189.9-4.2a25.24,25.24,0,0,1-6.847-10.389A43.435,43.435,0,0,1,180.789-29.3,38.152,38.152,0,0,1,182.493-41a28.4,28.4,0,0,1,5.13-9.433,23.809,23.809,0,0,1,8.826-6.76A28.627,28.627,0,0,1,208.047-59.445Zm23.038,18.789a18.339,18.339,0,0,0-1.891-6.186,22.617,22.617,0,0,0-4.578-6,18.9,18.9,0,0,0-7.052-4.195,29.7,29.7,0,0,0-9.517-1.409,27.637,27.637,0,0,0-11.195,2.165,22.82,22.82,0,0,0-8.458,6.481,27.407,27.407,0,0,0-4.949,9.1,37.157,37.157,0,0,0-1.656,11.4A42.448,42.448,0,0,0,184-14.926a24.25,24.25,0,0,0,6.572,9.983A22.727,22.727,0,0,0,198-.5a26.575,26.575,0,0,0,9.03,1.484,27.437,27.437,0,0,0,10.224-1.81A21.532,21.532,0,0,0,225.1-6.238a24.279,24.279,0,0,0,4.441-6.728,27.638,27.638,0,0,0,2.081-7.628h-6.609a25.293,25.293,0,0,1-3.547,8.923,15.154,15.154,0,0,1-5.7,5.115,17.156,17.156,0,0,1-7.794,1.7,20.488,20.488,0,0,1-8.383-1.611,15.316,15.316,0,0,1-6.06-4.859,22.673,22.673,0,0,1-3.611-7.384,33.6,33.6,0,0,1-1.2-9.264,39.925,39.925,0,0,1,1.323-10.855,19.9,19.9,0,0,1,4.016-7.736,17.523,17.523,0,0,1,6.207-4.6,19.594,19.594,0,0,1,7.861-1.531c4.735,0,8.477,1.13,11.123,3.36a16.2,16.2,0,0,1,5.208,8.671ZM125.594-57.883h9.957l.147.235,28.06,45V-57.883h8.383V.5h-9.486l-.147-.233L134.016-44.721V.5h-8.422Zm9.4,1h-8.4V-.5h6.422V-48.169L163.2-.5h7.936V-56.883h-6.383V-9.152Zm106.887-1h42.836v8.031H250.461V-33.43h31.68v7.641h-31.68V-7.336H285.3V.5H241.883Zm41.836,1H242.883V-.5H284.3V-6.336H249.461V-26.789h31.68V-32.43h-31.68V-50.852h34.258Zm11.523-1h26.32a21.446,21.446,0,0,1,7.079,1.107,16.019,16.019,0,0,1,5.6,3.341,14.2,14.2,0,0,1,3.643,5.378,19.733,19.733,0,0,1,1.206,7.119,18.2,18.2,0,0,1-4.3,12.021,13.394,13.394,0,0,1-5.505,3.88,21.433,21.433,0,0,1-7.729,1.279H304.016V.5h-8.773Zm26.32,33.125a20.447,20.447,0,0,0,7.368-1.211,12.406,12.406,0,0,0,5.1-3.59,17.166,17.166,0,0,0,3.047-5.262,18.129,18.129,0,0,0,1.016-6.116,18.743,18.743,0,0,0-1.138-6.758,13.2,13.2,0,0,0-3.388-5,15.024,15.024,0,0,0-5.256-3.133,20.453,20.453,0,0,0-6.749-1.051h-25.32V-.5h6.773V-24.758Zm21.492-33.125h47.563v7.836H371.281V.5h-8.891V-50.047H343.055Zm46.563,1H344.055v5.836h19.336V-.5h6.891V-51.047h19.336ZM89.1-52.531a21.335,21.335,0,0,1,8.4,1.583,17.482,17.482,0,0,1,6.448,4.763,21.275,21.275,0,0,1,4.066,7.329,30.1,30.1,0,0,1,1.348,9.285,35,35,0,0,1-1.165,9.149,30.069,30.069,0,0,1-3.5,8.049,15.225,15.225,0,0,1-6.213,5.706,20.328,20.328,0,0,1-9.074,1.893A24.688,24.688,0,0,1,79.9-6.448a15.32,15.32,0,0,1-6.533-5.072,24.23,24.23,0,0,1-3.695-7.443,31.089,31.089,0,0,1-1.227-8.928A35.857,35.857,0,0,1,69.874-38.5,20.19,20.19,0,0,1,74.2-46.257a18.971,18.971,0,0,1,6.619-4.707A21.247,21.247,0,0,1,89.1-52.531Zm.313,46.758a19.346,19.346,0,0,0,8.631-1.789,14.24,14.24,0,0,0,5.808-5.339,29.073,29.073,0,0,0,3.384-7.781,34.007,34.007,0,0,0,1.13-8.888,29.1,29.1,0,0,0-1.3-8.976,20.281,20.281,0,0,0-3.874-6.987,16.49,16.49,0,0,0-6.081-4.494,20.345,20.345,0,0,0-8.012-1.5,20.256,20.256,0,0,0-7.892,1.489,17.977,17.977,0,0,0-6.271,4.463,19.2,19.2,0,0,0-4.109,7.374,34.87,34.87,0,0,0-1.384,10.315,30.093,30.093,0,0,0,1.185,8.64,23.233,23.233,0,0,0,3.542,7.137A14.334,14.334,0,0,0,80.286-7.37,23.705,23.705,0,0,0,89.414-5.773Zm213.6-45.43h15.969a17.479,17.479,0,0,1,7.283,1.258l.005,0c3.3,1.594,4.97,4.637,4.97,9.044,0,3.908-1.171,6.688-3.48,8.265a15.334,15.334,0,0,1-8.778,2.314H303.016Zm22.823,2.162a16.541,16.541,0,0,0-6.855-1.162H304.016V-31.32h14.969A14.368,14.368,0,0,0,327.2-33.46a6.3,6.3,0,0,0,2.266-2.855,12.017,12.017,0,0,0,.777-4.584,10.541,10.541,0,0,0-1.111-5.073A7.233,7.233,0,0,0,325.839-49.041Z" transform="translate(637.5 6169.5)" fill="#707070"/></g></svg>