<svg xmlns="http://www.w3.org/2000/svg" xmlns:xlink="http://www.w3.org/1999/xlink" width="144.119" height="142.916" viewBox="0 0 144.119 142.916"><defs><clipPath id="a"><rect width="144.119" height="142.916" fill="none"/></clipPath></defs><g clip-path="url(#a)"><path d="M84.343,133.567l-.513-7.327a12.337,12.337,0,0,1,3.321-9.181l27.873-29.6a7.536,7.536,0,0,0,2.057-5.184V34.423a1.427,1.427,0,0,0-.5-1.093,1.484,1.484,0,0,0-1.184-.346,12.551,12.551,0,0,0-7.279,3.258,11.272,11.272,0,0,0-2.412,3.562,18.565,18.565,0,0,0-1.351,5.376c-1.075,9.614-1.971,17.892-1.98,17.974l-1.988-.215c.009-.083.905-8.364,1.981-17.981A20.547,20.547,0,0,1,103.875,39a13.26,13.26,0,0,1,2.845-4.188,12.774,12.774,0,0,1,3.875-2.575,17.711,17.711,0,0,1,4.519-1.233,3.484,3.484,0,0,1,2.779.814,3.445,3.445,0,0,1,1.189,2.6V82.271a9.529,9.529,0,0,1-2.6,6.555l-27.873,29.6a10.329,10.329,0,0,0-2.781,7.684l.512,7.313Z" transform="translate(24.746 9.328)" fill="#ba0220"/><path d="M63.407,124.87l-.248-23.42A27.03,27.03,0,0,1,69.951,83.2,26.365,26.365,0,0,1,86.61,74.454l9.857-10.468a11.174,11.174,0,0,1,5.576-3.186,10.186,10.186,0,0,1,4.813.132A15.361,15.361,0,0,1,112.548,64a2.544,2.544,0,0,1,.236,3.714L92.839,88.894l-1.456-1.371,19.945-21.184a.549.549,0,0,0,.149-.415.527.527,0,0,0-.193-.377c-3.03-2.468-6-3.408-8.815-2.794a9.119,9.119,0,0,0-4.546,2.6L87.559,76.363l-.37.038a24.363,24.363,0,0,0-15.741,8.127,25.034,25.034,0,0,0-6.289,16.9l.248,23.42Z" transform="translate(18.721 17.966)" fill="#ba0220"/><path d="M34.738,133.567l-2-.139.511-7.313a10.332,10.332,0,0,0-2.78-7.683L2.6,88.827A9.528,9.528,0,0,1,0,82.271V34.423a3.445,3.445,0,0,1,1.189-2.6A3.484,3.484,0,0,1,3.967,31a17.711,17.711,0,0,1,4.519,1.233,12.772,12.772,0,0,1,3.874,2.575A13.259,13.259,0,0,1,15.205,39a20.551,20.551,0,0,1,1.507,5.957c1.077,9.618,1.972,17.9,1.981,17.982l-1.988.215c-.009-.082-.9-8.36-1.98-17.974A18.57,18.57,0,0,0,13.374,39.8a11.271,11.271,0,0,0-2.412-3.562,12.549,12.549,0,0,0-7.279-3.258A1.485,1.485,0,0,0,2.5,33.33,1.427,1.427,0,0,0,2,34.423V82.271a7.535,7.535,0,0,0,2.056,5.184l27.874,29.6a12.34,12.34,0,0,1,3.32,9.181v.008Z" transform="translate(0.292 9.328)" fill="#ba0220"/><path d="M59.072,124.87l-2-.021.248-23.42a25.033,25.033,0,0,0-6.289-16.9A24.363,24.363,0,0,0,35.291,76.4l-.37-.038L24.556,65.357a9.119,9.119,0,0,0-4.546-2.6c-2.819-.614-5.785.326-8.816,2.794a.526.526,0,0,0-.192.376.548.548,0,0,0,.149.415L31.1,87.523l-1.456,1.371L9.7,67.71A2.544,2.544,0,0,1,9.931,64a15.362,15.362,0,0,1,5.692-3.065,10.186,10.186,0,0,1,4.813-.132,11.174,11.174,0,0,1,5.577,3.187L35.87,74.454A26.365,26.365,0,0,1,52.529,83.2a27.03,27.03,0,0,1,6.792,18.247Z" transform="translate(2.918 17.966)" fill="#ba0220"/><path d="M75.851,19.38a9.69,9.69,0,1,1,9.689-9.69A9.7,9.7,0,0,1,75.851,19.38Zm0-17.38a7.69,7.69,0,1,0,7.689,7.69A7.7,7.7,0,0,0,75.851,2Z" transform="translate(19.597 0.292)" fill="#ba0220"/><path d="M93.846,56.864h-2V27.8a5.385,5.385,0,0,0-5.379-5.379H70.53v-2H86.467A7.387,7.387,0,0,1,93.846,27.8Z" transform="translate(20.58 6.25)" fill="#ba0220"/><path d="M8.689-1A9.689,9.689,0,1,1-1,8.689,9.7,9.7,0,0,1,8.689-1Zm0,17.378A7.689,7.689,0,1,0,1,8.689,7.7,7.7,0,0,0,8.689,16.378Z" transform="translate(39.982 1.293)" fill="#ba0220"/><path d="M24.759,56.864h-2V27.8a7.387,7.387,0,0,1,7.379-7.379H46.075v2H30.138A5.385,5.385,0,0,0,24.759,27.8Z" transform="translate(6.933 6.25)" fill="#ba0220"/><path d="M57.746,33.019a9.69,9.69,0,1,1,9.689-9.69A9.7,9.7,0,0,1,57.746,33.019Zm0-17.38a7.69,7.69,0,1,0,7.689,7.69A7.7,7.7,0,0,0,57.746,15.639Z" transform="translate(14.314 4.272)" fill="#ba0220"/><path d="M81.332,66.359h-2V41.438a5.384,5.384,0,0,0-5.379-5.378H46.746a5.384,5.384,0,0,0-5.379,5.378V66.359h-2V41.438a7.387,7.387,0,0,1,7.379-7.378H73.954a7.387,7.387,0,0,1,7.379,7.378Z" transform="translate(11.779 10.23)" fill="#ba0220"/></g></svg>