<svg xmlns="http://www.w3.org/2000/svg" xmlns:xlink="http://www.w3.org/1999/xlink" width="136.13" height="142.232" viewBox="0 0 136.13 142.232"><defs><clipPath id="a"><rect width="136.13" height="142.233" fill="none"/></clipPath></defs><g transform="translate(0 0)" clip-path="url(#a)"><path d="M17.492,124.9l-1.458-1.369,11.323-12.052A14.258,14.258,0,0,1,37.708,107H82.982a5.154,5.154,0,0,0,3.545-1.406L128.356,66.2a1.879,1.879,0,0,0,.589-1.445,1.82,1.82,0,0,0-.69-1.368,14.865,14.865,0,0,0-8.718-3.647,13.331,13.331,0,0,0-5.036.806,21.851,21.851,0,0,0-5.713,3.186c-9.045,6.788-17.049,12.845-17.129,12.905l-1.207-1.595c.08-.06,8.087-6.12,17.135-12.91a23.832,23.832,0,0,1,6.245-3.471,15.318,15.318,0,0,1,5.791-.92,14.775,14.775,0,0,1,5.244,1.233,20.6,20.6,0,0,1,4.637,2.851,3.866,3.866,0,0,1,.224,5.831L87.9,107.047A7.146,7.146,0,0,1,82.982,109H37.708a12.25,12.25,0,0,0-8.894,3.847Z" transform="translate(4.891 17.138)" fill="#ba0220"/><path d="M1.386,94.971,0,93.529,20.616,73.721a31.431,31.431,0,0,1,20.86-8.795A30.647,30.647,0,0,1,62.2,72.093H79.074a12.534,12.534,0,0,1,7.692,2.374c2.97,2.265,4.658,6.022,5.017,11.166a2.807,2.807,0,0,1-2.8,2.994H54.968v-2H88.979a.806.806,0,0,0,.6-.259.786.786,0,0,0,.213-.6c-.674-9.652-6.2-11.678-10.714-11.678H61.464l-.282-.243a28.646,28.646,0,0,0-19.646-6.925A29.434,29.434,0,0,0,22,75.163Z" transform="translate(0.202 19.232)" fill="#ba0220"/><path d="M77.621,82.112l-7.656-7.663,1.415-1.414,6.241,6.247,9.328-9.33a10.715,10.715,0,0,0,2.9-9.8l-1.64-7.711,22.791-22.791a26.705,26.705,0,0,0,5.663-8.7,40.983,40.983,0,0,0,2.565-9.318,51.748,51.748,0,0,0,.612-9.607,51.75,51.75,0,0,0-9.607.612A40.991,40.991,0,0,0,100.919,5.2a26.71,26.71,0,0,0-8.7,5.662L69.431,33.656,61.72,32.018a10.712,10.712,0,0,0-9.8,2.9l-9.33,9.329,6.327,6.327L47.5,51.99l-7.741-7.741L50.5,33.506a12.712,12.712,0,0,1,11.633-3.445l6.648,1.413L90.808,9.451a28.707,28.707,0,0,1,9.368-6.1,43.048,43.048,0,0,1,9.8-2.69,50.6,50.6,0,0,1,10.9-.578l.848.069.068.848a50.6,50.6,0,0,1-.578,10.9,43.039,43.039,0,0,1-2.691,9.8,28.7,28.7,0,0,1-6.106,9.368L90.4,53.085l1.414,6.649a12.715,12.715,0,0,1-3.446,11.633Z" transform="translate(12.014 0.292)" fill="#ba0220"/><path d="M.707,6.082-.707,4.668,4.668-.707,6.082.707Z" transform="translate(108.253 20.548)" fill="#ba0220"/><path d="M.707,26.918-.707,25.5,25.5-.707,26.918.707Z" transform="translate(50.858 47.038)" fill="#ba0220"/><path d="M.707,19.366-.707,17.952,17.952-.707,19.366.707Z" transform="translate(68.479 57.108)" fill="#ba0220"/></g></svg>