<svg xmlns="http://www.w3.org/2000/svg" xmlns:xlink="http://www.w3.org/1999/xlink" width="136.015" height="136.527" viewBox="0 0 136.015 136.527"><defs><clipPath id="a"><rect width="136.015" height="136.527" fill="none"/></clipPath></defs><g clip-path="url(#a)"><path d="M21.246,1H0V-1H21.246Z" transform="translate(114.77 135.235)" fill="#ba0220"/><path d="M21.246,1H0V-1H21.246Z" transform="translate(0 135.235)" fill="#ba0220"/><path d="M50.169,1H0V-1H50.169Z" transform="translate(42.923 135.235)" fill="#ba0220"/></g><path d="M38.094,68.207,13.049,51.046,38.094,33.885V43.9H73.664v2H36.094V37.68L16.587,51.046,36.094,64.413V57.2h2Z" transform="translate(4.324 10.441)" fill="#ba0220"/><path d="M80.491,68.208V58.2H44.92v-2H82.491v8.216L102,51.046,82.491,37.68V44.9h-2V33.885l25.045,17.161Z" transform="translate(13.107 10.441)" fill="#ba0220"/><g clip-path="url(#a)"><path d="M74.48,118.158,71.053,71.869A12.538,12.538,0,0,1,59.372,59.362v-.585h2v.585A10.548,10.548,0,0,0,71.908,69.9H74.39l-1.375,1.383,3.459,46.73Z" transform="translate(17.616 17.151)" fill="#ba0220"/><path d="M98.15,127.42l-1.995-.148,3.458-46.73-1.373-1.381h2.4a10.548,10.548,0,0,0,10.538-10.536V36.632a8.605,8.605,0,0,0-8.6-8.6H69.966a8.6,8.6,0,0,0-8.594,8.6V47.447h-2V36.632a10.607,10.607,0,0,1,10.594-10.6h32.62a10.607,10.607,0,0,1,10.6,10.6V68.624a12.538,12.538,0,0,1-11.606,12.5Z" transform="translate(17.616 7.889)" fill="#ba0220"/><path d="M34.224,120.031l-1.995-.148,3.489-47.148v-.963H36.8A10.536,10.536,0,0,0,47.332,61.235V52.36h2v8.875A12.537,12.537,0,0,1,37.65,73.742Z" transform="translate(9.695 15.278)" fill="#ba0220"/><path d="M18.844,127.42,15.419,81.125a12.538,12.538,0,0,1-11.606-12.5V36.632a10.607,10.607,0,0,1,10.6-10.6h32.62a10.607,10.607,0,0,1,10.6,10.6v2.525h-2V36.632a8.605,8.605,0,0,0-8.6-8.6H14.408a8.605,8.605,0,0,0-8.6,8.6V68.624A10.548,10.548,0,0,0,16.349,79.159h2.407l-1.375,1.383,3.458,46.73Z" transform="translate(1.404 7.889)" fill="#ba0220"/><path d="M83.03,25.768A12.884,12.884,0,1,1,95.912,12.884,12.9,12.9,0,0,1,83.03,25.768ZM83.03,2A10.884,10.884,0,1,0,93.912,12.884,10.9,10.9,0,0,0,83.03,2Z" transform="translate(20.76 0.292)" fill="#ba0220"/><path d="M27.631,25.768A12.884,12.884,0,1,1,40.514,12.884,12.9,12.9,0,0,1,27.631,25.768ZM27.631,2A10.884,10.884,0,1,0,38.514,12.884,10.9,10.9,0,0,0,27.631,2Z" transform="translate(4.595 0.292)" fill="#ba0220"/></g></svg>