<svg xmlns="http://www.w3.org/2000/svg" xmlns:xlink="http://www.w3.org/1999/xlink" width="1050.754" height="332.5" viewBox="0 0 1050.754 332.5"><defs><clipPath id="a"><rect width="220.354" height="32.665" fill="none"/></clipPath><clipPath id="b"><rect width="159.09" height="32.665" fill="none"/></clipPath><clipPath id="c"><rect width="174.548" height="33.014" fill="none"/></clipPath></defs><g transform="translate(-300 -2184)"><text transform="translate(765 2184)" font-size="18" font-family="ShipporiMinchoB1-Bold, Shippori Mincho B1" font-weight="700"><tspan x="0" y="21">地域活性化と地域型スタートアップエコシステムの構築</tspan></text><text transform="translate(768.267 2285)" font-size="18" font-family="ShipporiMinchoB1-Bold, Shippori Mincho B1" font-weight="700"><tspan x="0" y="21">中国・四国地域を産業イノベーション発祥の拠点に</tspan></text><text transform="translate(770.754 2390)" font-size="18" font-family="ShipporiMinchoB1-Bold, Shippori Mincho B1" font-weight="700"><tspan x="0" y="21">投資活動を通じた新産業の創出と既存産業の革新</tspan></text><text transform="translate(770.754 2423.5)" font-size="15" font-family="NotoSansJP-Regular, Noto Sans JP"><tspan x="0" y="17">新規産業</tspan><tspan y="17">の</tspan><tspan y="17">創出</tspan><tspan y="17">や</tspan><tspan y="17">既存産業</tspan><tspan y="17">を</tspan><tspan y="17">支援</tspan><tspan y="17">する</tspan><tspan y="17">研究</tspan><tspan y="17">シーズの</tspan><tspan y="17">発掘</tspan><tspan y="17">に</tspan><tspan y="17">注力</tspan><tspan y="17">します。</tspan><tspan x="0" y="41">起業・</tspan><tspan y="41">マーケット</tspan><tspan y="41">拡大</tspan><tspan y="41">に</tspan><tspan y="41">向</tspan><tspan y="41">けた</tspan><tspan y="41">多様</tspan><tspan y="41">な</tspan><tspan y="41">支援</tspan><tspan y="41">を</tspan><tspan y="41">行</tspan><tspan y="41">います。</tspan><tspan x="0" y="65">特</tspan><tspan y="65">に、</tspan><tspan y="65">半導体、材料工学、通信/編集、再生医療、</tspan><tspan y="65">DX</tspan><tspan y="65">（デジタルトランスフォーメーシ</tspan><tspan x="0" y="89">ョン）、カーボンニュートラルといった</tspan><tspan y="89">分野</tspan><tspan y="89">での</tspan><tspan y="89">支援</tspan><tspan y="89">を</tspan><tspan y="89">重点的</tspan><tspan y="89">に</tspan><tspan y="89">実施</tspan><tspan y="89">しています。</tspan></text><text transform="translate(765 2212.52)" font-size="15" font-family="NotoSansJP-Regular, Noto Sans JP"><tspan x="0" y="17">スタートアップによる</tspan><tspan y="17">地域活性化</tspan><tspan y="17">の</tspan><tspan y="17">推進</tspan><tspan y="17">と</tspan><tspan y="17">雇用機会</tspan><tspan y="17">の</tspan><tspan y="17">増加</tspan><tspan y="17">を</tspan><tspan y="17">目指</tspan><tspan y="17">します。</tspan><tspan x="0" y="41">地域型</tspan><tspan y="41">スタートアップエコシステムにおける</tspan><tspan y="41">資金循環</tspan><tspan y="41">の</tspan><tspan y="41">実現</tspan><tspan y="41">を</tspan><tspan y="41">目指</tspan><tspan y="41">します。</tspan></text><text transform="translate(768.267 2317.301)" font-size="15" font-family="NotoSansJP-Regular, Noto Sans JP"><tspan x="0" y="17">エコシステムを</tspan><tspan y="17">通</tspan><tspan y="17">じたヒト・モノ・カネ・</tspan><tspan y="17">情報</tspan><tspan y="17">の</tspan><tspan y="17">循環</tspan><tspan y="17">を</tspan><tspan y="17">促進</tspan><tspan y="17">します。</tspan><tspan x="0" y="41">未来</tspan><tspan y="41">の</tspan><tspan y="41">街中</tspan><tspan y="41">にサイエンスパークを</tspan><tspan y="41">形成</tspan><tspan y="41">し、</tspan><tspan y="41">地域全体</tspan><tspan y="41">への</tspan><tspan y="41">貢献</tspan><tspan y="41">を</tspan><tspan y="41">目指</tspan><tspan y="41">します。</tspan></text><g opacity="0.26"><path d="M-1233.883,6305.926h218.6l-70.685-99.781h-78.539Z" transform="translate(1657.223 -3954.418)" fill="#ba0220"/><path d="M-1014.316,6306.426H-1234.84l.546-.786,69.525-100h79.059l.149.211Zm-218.611-1h216.677l-69.977-98.781h-78.019Z" transform="translate(1657.223 -3954.418)" fill="rgba(112,112,112,0)"/></g><g opacity="0.38"><path d="M-1148.569,6181.166h75.519l-38.34-55.465Z" transform="translate(1643.363 -3935.496)" fill="#ba0220"/><path d="M-1072.1,6181.666h-77.409l.522-.778,37.587-56.075.418.6Zm-75.535-1H-1074l-37.38-54.076Z" transform="translate(1643.363 -3935.496)" fill="rgba(112,112,112,0)"/></g><g opacity="0.14"><path d="M-2423.012,6352.445h225.549l106.229,141.944h-437Z" transform="translate(2843.234 -3993.145)" fill="#ba0220"/><path d="M-2423.264,6351.945h226.051l.15.2,106.827,142.744h-438.992l.592-.8Zm225.55,1h-225.047l-104.481,140.944h435.008Z" transform="translate(2843.234 -3993.145)" fill="rgba(112,112,112,0)"/></g><path d="M203.5.5H0v-1H203.5Z" transform="translate(541.5 2219.5)" fill="#ba0220"/><path d="M177,.5H0v-1H177Z" transform="translate(568 2298)" fill="#ba0220"/><path d="M177,.5H0v-1H177Z" transform="translate(568 2406)" fill="#ba0220"/><g transform="translate(300 2201)"><g transform="translate(0 0)" clip-path="url(#a)"><path d="M.347,32.212Q0,32.212,0,31.558q0-.567.347-.567H.956a3.911,3.911,0,0,0,2.605-1A3.141,3.141,0,0,0,4.733,27.5V4.476a2.346,2.346,0,0,0-.89-2.115A5.394,5.394,0,0,0,.956,1.772H.347q-.3,0-.3-.61t.3-.61H7.686a1.045,1.045,0,0,1,1.085.7l9.856,23.638q.173.567.608.566c.231,0,.434-.188.608-.566L30.221,1.248a1.059,1.059,0,0,1,1.042-.7h6.99A.274.274,0,0,1,38.536.7a1.233,1.233,0,0,1,.065.459q0,.611-.347.61H37.6a5,5,0,0,0-2.866.61,2.438,2.438,0,0,0-.824,2.093V28.244a2.432,2.432,0,0,0,.868,2.137,5.023,5.023,0,0,0,2.823.61h.651q.3,0,.3.567,0,.654-.3.654h-12.2q-.26,0-.26-.654,0-.567.26-.567h.739a4.977,4.977,0,0,0,2.865-.633,2.441,2.441,0,0,0,.869-2.115V7.31a1.07,1.07,0,0,0-.131-.588.4.4,0,0,0-.347-.2c-.232,0-.434.19-.608.567L18.888,31.514c-.2.466-.391.7-.565.7s-.362-.232-.564-.7L7.468,7.136c-.173-.377-.362-.567-.564-.567a.4.4,0,0,0-.347.2,1.071,1.071,0,0,0-.131.589V27.5a3.1,3.1,0,0,0,1.216,2.485,3.919,3.919,0,0,0,2.518,1h.695q.261,0,.261.567,0,.654-.261.654Z" transform="translate(0 -0.158)" fill="#ba0220"/><path d="M66.362,32.212q-.3,0-.3-.61t.3-.61h.7a4.988,4.988,0,0,0,2.843-.633,2.363,2.363,0,0,0,.89-2.072V4.519a2.382,2.382,0,0,0-.911-2.137,5.159,5.159,0,0,0-2.822-.61h-.7q-.3,0-.3-.61t.3-.61H78.65A.274.274,0,0,1,78.932.7,1.231,1.231,0,0,1,79,1.161q0,.611-.348.61H78a5.11,5.11,0,0,0-2.887.61,2.461,2.461,0,0,0-.847,2.137V28.287a2.369,2.369,0,0,0,.869,2.115A5.272,5.272,0,0,0,78,30.992h.651a.273.273,0,0,1,.282.153A1.224,1.224,0,0,1,79,31.6q0,.611-.348.61Z" transform="translate(-18.948 -0.158)" fill="#ba0220"/><path d="M104.691,32.207a22.957,22.957,0,0,1-3.713-1.025,3.416,3.416,0,0,0-1.085-.175,2.778,2.778,0,0,0-1.737.7.936.936,0,0,1-.608.262q-.39,0-.608-.654L95.2,23.986l-.044-.262q0-.218.434-.392l.26-.044a.531.531,0,0,1,.478.349q4.125,7.457,11.637,7.458a10.442,10.442,0,0,0,5.319-1.418q2.453-1.416,2.453-4.862a5.628,5.628,0,0,0-.869-2.987,6.356,6.356,0,0,0-2.518-2.29,19.847,19.847,0,0,0-2.605-1.133q-1.259-.436-3.082-1a30.212,30.212,0,0,1-3.821-1.309A10.689,10.689,0,0,1,98.264,12.6a7.647,7.647,0,0,1-1.237-4.23A9.523,9.523,0,0,1,97.809,4.8a7.748,7.748,0,0,1,2.8-3.358A9.22,9.22,0,0,1,106.059,0a13.037,13.037,0,0,1,2.692.284,23.689,23.689,0,0,1,2.952.85,4.366,4.366,0,0,0,1.172.218,2.351,2.351,0,0,0,1.519-.567,1.1,1.1,0,0,1,.652-.262c.289,0,.477.19.565.567l1.824,6.28.044.305q0,.262-.348.392a1.34,1.34,0,0,1-.39.088.51.51,0,0,1-.434-.262,16.555,16.555,0,0,0-1.868-2.356,14.963,14.963,0,0,0-3.6-2.791A9.863,9.863,0,0,0,105.8,1.439a5.939,5.939,0,0,0-4.081,1.243,5.749,5.749,0,0,0-1.781,2.53,7.4,7.4,0,0,0-.391,1.941q0,3.1,3.691,4.972a35.915,35.915,0,0,0,4.863,1.744q1.911.567,3.278,1.046a22.9,22.9,0,0,1,2.671,1.134,8.588,8.588,0,0,1,5.036,8.112,7.6,7.6,0,0,1-1.281,4.317,8.649,8.649,0,0,1-3.712,3.032,13.559,13.559,0,0,1-5.688,1.112,19.535,19.535,0,0,1-3.713-.414" transform="translate(-27.296 0)" fill="#ba0220"/><path d="M148.893,32.207a22.936,22.936,0,0,1-3.713-1.025,3.419,3.419,0,0,0-1.085-.175,2.778,2.778,0,0,0-1.737.7.936.936,0,0,1-.608.262q-.39,0-.608-.654l-1.737-7.327-.044-.262c0-.145.144-.276.434-.392l.26-.044a.531.531,0,0,1,.478.349q4.125,7.457,11.637,7.458a10.444,10.444,0,0,0,5.319-1.418q2.453-1.416,2.453-4.862a5.628,5.628,0,0,0-.869-2.987,6.356,6.356,0,0,0-2.518-2.29,19.847,19.847,0,0,0-2.605-1.133q-1.26-.436-3.082-1a30.235,30.235,0,0,1-3.822-1.309,10.686,10.686,0,0,1-4.581-3.489,7.641,7.641,0,0,1-1.237-4.23,9.523,9.523,0,0,1,.782-3.576,7.748,7.748,0,0,1,2.8-3.358A9.218,9.218,0,0,1,150.26,0a13.03,13.03,0,0,1,2.691.284,23.663,23.663,0,0,1,2.953.85,4.366,4.366,0,0,0,1.172.218A2.351,2.351,0,0,0,158.6.785a1.1,1.1,0,0,1,.652-.262c.289,0,.477.19.565.567l1.824,6.28.044.305q0,.262-.348.392a1.34,1.34,0,0,1-.39.088.51.51,0,0,1-.434-.262,16.608,16.608,0,0,0-1.868-2.356,14.964,14.964,0,0,0-3.6-2.791A9.865,9.865,0,0,0,150,1.439a5.941,5.941,0,0,0-4.082,1.243,5.747,5.747,0,0,0-1.78,2.53,7.4,7.4,0,0,0-.391,1.941q0,3.1,3.691,4.972a35.914,35.914,0,0,0,4.863,1.744q1.911.567,3.278,1.046a22.9,22.9,0,0,1,2.671,1.134,8.588,8.588,0,0,1,5.036,8.112,7.6,7.6,0,0,1-1.281,4.317,8.649,8.649,0,0,1-3.712,3.032,13.559,13.559,0,0,1-5.688,1.112,19.535,19.535,0,0,1-3.713-.414" transform="translate(-39.975 0)" fill="#ba0220"/><path d="M184.171,32.212q-.3,0-.3-.61t.3-.61h.7a4.988,4.988,0,0,0,2.843-.633,2.363,2.363,0,0,0,.89-2.072V4.519a2.382,2.382,0,0,0-.911-2.137,5.159,5.159,0,0,0-2.822-.61h-.7q-.3,0-.3-.61t.3-.61h12.288a.274.274,0,0,1,.282.152,1.231,1.231,0,0,1,.066.459q0,.611-.348.61h-.651a5.11,5.11,0,0,0-2.887.61,2.461,2.461,0,0,0-.847,2.137V28.287a2.369,2.369,0,0,0,.869,2.115,5.272,5.272,0,0,0,2.865.589h.651a.273.273,0,0,1,.282.153,1.224,1.224,0,0,1,.066.458q0,.611-.348.61Z" transform="translate(-52.741 -0.158)" fill="#ba0220"/><path d="M220.989,30.768a14.779,14.779,0,0,1-5.406-5.6,17.492,17.492,0,0,1-2.127-8.853,17.4,17.4,0,0,1,2.127-8.81,14.789,14.789,0,0,1,5.406-5.6,12.619,12.619,0,0,1,13.308,0,14.862,14.862,0,0,1,5.384,5.6,17.412,17.412,0,0,1,2.127,8.81,17.5,17.5,0,0,1-2.127,8.853,14.851,14.851,0,0,1-5.384,5.6,12.619,12.619,0,0,1-13.308,0m11.593-1.221a11.8,11.8,0,0,0,3.778-5.059,20.645,20.645,0,0,0,1.455-8.177A20.367,20.367,0,0,0,236.36,8.2a11.817,11.817,0,0,0-3.778-5.037,8.274,8.274,0,0,0-4.928-1.679,8.368,8.368,0,0,0-4.95,1.679A11.584,11.584,0,0,0,218.927,8.2a20.636,20.636,0,0,0-1.433,8.111,20.919,20.919,0,0,0,1.433,8.177,11.566,11.566,0,0,0,3.778,5.059,8.362,8.362,0,0,0,4.95,1.679,8.269,8.269,0,0,0,4.928-1.679" transform="translate(-61.228 0)" fill="#ba0220"/><path d="M264.659,32.212q-.261,0-.26-.654c0-.378.086-.567.26-.567h.695a3.78,3.78,0,0,0,2.54-1,3.167,3.167,0,0,0,1.15-2.485V4.476a2.382,2.382,0,0,0-.868-2.093,5.03,5.03,0,0,0-2.823-.61h-.695q-.3,0-.3-.61t.3-.61h6.99a1.247,1.247,0,0,1,1.085.566l15.892,22.547q.3.436.608.436.521,0,.521-.784V5.261a2.943,2.943,0,0,0-.586-1.766,4.156,4.156,0,0,0-1.476-1.264,3.747,3.747,0,0,0-1.715-.458h-.651a.273.273,0,0,1-.282-.153,1.224,1.224,0,0,1-.065-.458c0-.407.115-.61.347-.61h10.508a.273.273,0,0,1,.282.152,1.231,1.231,0,0,1,.066.459q0,.611-.347.61h-.695A3.733,3.733,0,0,0,292.6,2.8a3.187,3.187,0,0,0-1.151,2.464V31.3a1.27,1.27,0,0,1-.151.676.438.438,0,0,1-.369.24,1.108,1.108,0,0,1-.911-.567L271.91,5.7c-.2-.29-.406-.436-.608-.436q-.521,0-.521.785V27.5A3.1,3.1,0,0,0,272,29.988a3.967,3.967,0,0,0,2.562,1h.694q.3,0,.3.567,0,.654-.3.654Z" transform="translate(-75.828 -0.158)" fill="#ba0220"/></g></g><g transform="translate(300 2289)"><g transform="translate(0 0)" clip-path="url(#b)"><path d="M14.5,32.081,5.081,4.519A3.967,3.967,0,0,0,3.256,2.4a4.869,4.869,0,0,0-2.214-.632H.3q-.3,0-.3-.61T.3.55H12.418A.275.275,0,0,1,12.7.7a1.246,1.246,0,0,1,.065.459q0,.611-.347.61h-.695A4.909,4.909,0,0,0,9.4,2.229a1.508,1.508,0,0,0-.847,1.417,3.684,3.684,0,0,0,.174.872l4.125,11.862,3.474,10.074c.173.408.375.611.608.611a.5.5,0,0,0,.347-.175,1.1,1.1,0,0,0,.26-.436Q23.837,8.269,24.749,5.3a4.287,4.287,0,0,0,.217-1.352,1.842,1.842,0,0,0-.781-1.679,3.3,3.3,0,0,0-1.824-.5h-.7q-.3,0-.3-.61t.3-.611H31.957A.275.275,0,0,1,32.24.7a1.231,1.231,0,0,1,.065.459q0,.611-.347.61h-.7a4.583,4.583,0,0,0-2.714.959A5.762,5.762,0,0,0,26.573,5.3Q25.4,8.618,23.1,15.356T18.584,28.679q-.522,1.44-1.172,3.4a1.017,1.017,0,0,1-1.043.742h-.825a1.016,1.016,0,0,1-1.042-.742" transform="translate(0 -0.158)" fill="#ba0220"/><path d="M54.065,32.212q-.3,0-.3-.61t.3-.61h.695a4.988,4.988,0,0,0,2.843-.633,2.363,2.363,0,0,0,.89-2.072V4.519a2.382,2.382,0,0,0-.911-2.137,5.159,5.159,0,0,0-2.822-.61h-.695q-.3,0-.3-.61t.3-.61H66.352A.275.275,0,0,1,66.635.7a1.248,1.248,0,0,1,.065.459q0,.611-.348.61H65.7a5.11,5.11,0,0,0-2.887.61,2.461,2.461,0,0,0-.847,2.137V28.287a2.371,2.371,0,0,0,.869,2.115,5.271,5.271,0,0,0,2.865.589h.651a.275.275,0,0,1,.283.153,1.242,1.242,0,0,1,.065.458q0,.611-.348.61Z" transform="translate(-15.421 -0.158)" fill="#ba0220"/><path d="M92.394,32.207a22.957,22.957,0,0,1-3.713-1.025,3.416,3.416,0,0,0-1.085-.175,2.778,2.778,0,0,0-1.737.7.936.936,0,0,1-.608.262q-.39,0-.608-.654l-1.737-7.327-.044-.262q0-.218.434-.392l.26-.044a.531.531,0,0,1,.478.349Q88.16,31.095,95.672,31.1a10.442,10.442,0,0,0,5.319-1.418q2.453-1.416,2.453-4.862a5.628,5.628,0,0,0-.869-2.987,6.356,6.356,0,0,0-2.518-2.29A19.847,19.847,0,0,0,97.452,18.4q-1.259-.436-3.082-1a30.213,30.213,0,0,1-3.821-1.309A10.689,10.689,0,0,1,85.967,12.6a7.647,7.647,0,0,1-1.237-4.23A9.522,9.522,0,0,1,85.512,4.8a7.748,7.748,0,0,1,2.8-3.358A9.22,9.22,0,0,1,93.761,0a13.037,13.037,0,0,1,2.692.284,23.689,23.689,0,0,1,2.952.85,4.366,4.366,0,0,0,1.172.218A2.351,2.351,0,0,0,102.1.785a1.1,1.1,0,0,1,.652-.262c.289,0,.477.19.565.567l1.824,6.28.044.305q0,.262-.348.392a1.34,1.34,0,0,1-.39.088.51.51,0,0,1-.434-.262,16.554,16.554,0,0,0-1.868-2.356,14.963,14.963,0,0,0-3.6-2.791A9.863,9.863,0,0,0,93.5,1.439,5.939,5.939,0,0,0,89.42,2.682a5.749,5.749,0,0,0-1.781,2.53,7.4,7.4,0,0,0-.391,1.941q0,3.1,3.691,4.972A35.916,35.916,0,0,0,95.8,13.869q1.911.567,3.278,1.046a22.9,22.9,0,0,1,2.671,1.134,8.588,8.588,0,0,1,5.036,8.112,7.6,7.6,0,0,1-1.281,4.317,8.649,8.649,0,0,1-3.712,3.032,13.559,13.559,0,0,1-5.688,1.112,19.535,19.535,0,0,1-3.713-.414" transform="translate(-23.769 0)" fill="#ba0220"/><path d="M135.084,30.768a14.779,14.779,0,0,1-5.406-5.6,17.492,17.492,0,0,1-2.127-8.853,17.4,17.4,0,0,1,2.127-8.81,14.79,14.79,0,0,1,5.406-5.6,12.619,12.619,0,0,1,13.308,0,14.862,14.862,0,0,1,5.384,5.6,17.412,17.412,0,0,1,2.127,8.81,17.5,17.5,0,0,1-2.127,8.853,14.851,14.851,0,0,1-5.384,5.6,12.619,12.619,0,0,1-13.308,0m11.593-1.221a11.8,11.8,0,0,0,3.778-5.059,20.645,20.645,0,0,0,1.455-8.177A20.367,20.367,0,0,0,150.455,8.2a11.817,11.817,0,0,0-3.778-5.037,8.274,8.274,0,0,0-4.928-1.679,8.368,8.368,0,0,0-4.95,1.679A11.584,11.584,0,0,0,133.022,8.2a20.636,20.636,0,0,0-1.433,8.111,20.919,20.919,0,0,0,1.433,8.177,11.567,11.567,0,0,0,3.778,5.059,8.362,8.362,0,0,0,4.95,1.679,8.269,8.269,0,0,0,4.928-1.679" transform="translate(-36.587 0)" fill="#ba0220"/><path d="M178.754,32.212q-.261,0-.26-.654c0-.378.086-.567.26-.567h.695a3.78,3.78,0,0,0,2.54-1,3.167,3.167,0,0,0,1.15-2.485V4.476a2.382,2.382,0,0,0-.868-2.093,5.03,5.03,0,0,0-2.823-.61h-.695c-.2,0-.3-.2-.3-.61s.1-.61.3-.61h6.99a1.247,1.247,0,0,1,1.085.566l15.892,22.547q.3.436.608.436.521,0,.521-.784V5.261a2.943,2.943,0,0,0-.586-1.766,4.156,4.156,0,0,0-1.476-1.264,3.747,3.747,0,0,0-1.715-.458h-.652a.272.272,0,0,1-.282-.153,1.224,1.224,0,0,1-.065-.458c0-.407.115-.61.347-.61H209.93a.273.273,0,0,1,.282.152,1.231,1.231,0,0,1,.066.459q0,.611-.347.61h-.695a3.733,3.733,0,0,0-2.54,1.025,3.187,3.187,0,0,0-1.151,2.464V31.3a1.27,1.27,0,0,1-.151.676.439.439,0,0,1-.369.24,1.11,1.11,0,0,1-.912-.567L186,5.7c-.2-.29-.405-.436-.608-.436q-.521,0-.521.785V27.5a3.1,3.1,0,0,0,1.216,2.485,3.97,3.97,0,0,0,2.562,1h.695q.3,0,.3.567,0,.654-.3.654Z" transform="translate(-51.187 -0.158)" fill="#ba0220"/></g></g><g transform="translate(300 2376)"><g transform="translate(0 0)" clip-path="url(#c)"><path d="M14.5,32.57,5.08,5.008A3.966,3.966,0,0,0,3.256,2.893a4.873,4.873,0,0,0-2.214-.632H.3q-.3,0-.3-.61t.3-.611H12.418a.275.275,0,0,1,.282.153,1.248,1.248,0,0,1,.064.459q0,.611-.347.61h-.695A4.914,4.914,0,0,0,9.4,2.718a1.509,1.509,0,0,0-.847,1.417,3.71,3.71,0,0,0,.173.872L12.853,16.87l3.473,10.074c.174.408.376.611.608.611a.5.5,0,0,0,.347-.175,1.092,1.092,0,0,0,.261-.436Q23.836,8.758,24.749,5.793a4.287,4.287,0,0,0,.217-1.352,1.841,1.841,0,0,0-.782-1.679,3.3,3.3,0,0,0-1.824-.5h-.695q-.3,0-.3-.61t.3-.611H31.957a.273.273,0,0,1,.282.153,1.231,1.231,0,0,1,.065.459q0,.611-.347.61h-.7a4.583,4.583,0,0,0-2.714.959,5.762,5.762,0,0,0-1.975,2.573Q25.4,9.107,23.1,15.845T18.583,29.168q-.521,1.44-1.172,3.4a1.015,1.015,0,0,1-1.042.742h-.825A1.016,1.016,0,0,1,14.5,32.57" transform="translate(0 -0.298)" fill="#ba0220"/><path d="M82.934,31.378a1.938,1.938,0,0,1,.044.414q0,.611-.26.61H70.386a.236.236,0,0,1-.239-.153,1.63,1.63,0,0,1,0-.916.237.237,0,0,1,.239-.153,7.484,7.484,0,0,0,2.865-.5,1.812,1.812,0,0,0,1.215-1.809,2.931,2.931,0,0,0-.173-1l-2.127-6.15a1.017,1.017,0,0,0-1.043-.741H60.7a1.016,1.016,0,0,0-1.042.741l-.738,2.05-.956,2.791a5.806,5.806,0,0,0-.39,1.919q0,2.7,4.124,2.7a.213.213,0,0,1,.218.2,1.938,1.938,0,0,1,.043.414q0,.611-.261.61H51.021a.238.238,0,0,1-.239-.153,1.63,1.63,0,0,1,0-.916.238.238,0,0,1,.239-.153,4.45,4.45,0,0,0,2.562-.916,6.428,6.428,0,0,0,2.127-3.009l9.77-26.036a1.435,1.435,0,0,1,.912-.872l.738-.218A1.765,1.765,0,0,1,67.737,0a.5.5,0,0,1,.347.087.521.521,0,0,1,.261.305L69.822,4.71q1.475,4.231,4.45,12.822t3.5,9.9q1.389,3.751,4.95,3.75a.213.213,0,0,1,.217.2m-22.1-12.713a.579.579,0,0,0,.217.479.943.943,0,0,0,.608.175h8.6q.825,0,.825-.7l-.086-.349L66.652,5.712a2.445,2.445,0,0,0-.434-.916q-.26-.3-.347-.087-2.432,6.411-4.949,13.563a1.371,1.371,0,0,0-.087.393" transform="translate(-14.547 0)" fill="#ba0220"/><path d="M127.689,32.7H105.025a.237.237,0,0,1-.239-.153,1.219,1.219,0,0,1-.066-.458q0-.655.3-.654h.695a5.283,5.283,0,0,0,2.865-.589,2.372,2.372,0,0,0,.869-2.115V5.008a2.382,2.382,0,0,0-.912-2.137,5.158,5.158,0,0,0-2.822-.61h-.695q-.3,0-.3-.61t.3-.61h12.331a.273.273,0,0,1,.282.152,1.231,1.231,0,0,1,.066.459q0,.611-.347.61H116.7a5.111,5.111,0,0,0-2.866.633,2.39,2.39,0,0,0-.912,2.115V28.733a2.182,2.182,0,0,0,.891,2.028,6.3,6.3,0,0,0,2.888.633l1,.043,1.737-.043a11.024,11.024,0,0,0,6.209-1.766,18.353,18.353,0,0,0,4.385-4.514.392.392,0,0,1,.347-.218,1,1,0,0,1,.391.131c.231.116.347.262.347.436l-.044.218-1.3,3.489-1.043,2.791a1.015,1.015,0,0,1-1.042.742" transform="translate(-30.038 -0.298)" fill="#ba0220"/><path d="M159.834,30.542a9.582,9.582,0,0,1-3-7.392V4.964a2.35,2.35,0,0,0-.89-2.115,5.3,5.3,0,0,0-2.844-.588h-.652q-.3,0-.3-.61t.3-.611H164.7a.275.275,0,0,1,.282.153,1.248,1.248,0,0,1,.065.459q0,.611-.347.61h-.651a5.416,5.416,0,0,0-2.865.588,2.324,2.324,0,0,0-.912,2.115q0,8.242.021,11.252t.022,3.882v1.134a15.3,15.3,0,0,0,1.65,7.37q1.65,3.054,6.426,3.053,5.167,0,7.012-2.878a13.787,13.787,0,0,0,1.846-7.545V5.749a3.1,3.1,0,0,0-1.216-2.486,3.925,3.925,0,0,0-2.518-1h-.652q-.3,0-.3-.61t.3-.611h10.551a.274.274,0,0,1,.282.153,1.233,1.233,0,0,1,.065.459q0,.611-.347.61h-.651a3.921,3.921,0,0,0-2.518,1,3.1,3.1,0,0,0-1.216,2.486L178.939,22.5A11.084,11.084,0,0,1,176.2,30.39q-2.735,2.923-7.816,2.922-5.558,0-8.554-2.769" transform="translate(-43.643 -0.298)" fill="#ba0220"/><path d="M233.873,25.506a3.1,3.1,0,0,1-.217.7q-1.433,3.62-2.172,5.757a1.014,1.014,0,0,1-1.042.741H207.126c-.2,0-.3-.2-.3-.61s.1-.61.3-.61h.695a4.994,4.994,0,0,0,2.845-.633,2.415,2.415,0,0,0,.89-2.115V5.009a2.359,2.359,0,0,0-.934-2.137,5.178,5.178,0,0,0-2.8-.61h-.695c-.2,0-.3-.2-.3-.61s.1-.61.3-.61H229.14a1.1,1.1,0,0,1,1.085.654q.738,1.266,1.389,2.486t.955,1.788a.5.5,0,0,1,.044.218q0,.218-.347.436a.607.607,0,0,1-.347.088.586.586,0,0,1-.434-.175,14.336,14.336,0,0,0-4.646-3.074A15.023,15.023,0,0,0,220.933,2.3h-1.085a18.576,18.576,0,0,0-2.735.153,2.677,2.677,0,0,0-1.52.72,2.522,2.522,0,0,0-.565,1.832v9.638a.916.916,0,0,0,.239.676.906.906,0,0,0,.673.24h3q2.648,0,3.473-.044a3.691,3.691,0,0,0,2.845-1.222,4.367,4.367,0,0,0,1.02-2.965q0-.3.565-.305a1.217,1.217,0,0,1,.456.066.24.24,0,0,1,.152.24v9.987c0,.233-.2.349-.608.349-.377,0-.565-.116-.565-.349a4.37,4.37,0,0,0-1.02-2.966,3.693,3.693,0,0,0-2.845-1.221q-.825-.043-3.473-.044h-3a.832.832,0,0,0-.912.916V28.733a2.217,2.217,0,0,0,.912,2.05,6,6,0,0,0,2.822.655q.564.044,1.954.044,1.042,0,1.52-.044a13.066,13.066,0,0,0,4.6-1.134,11.817,11.817,0,0,0,3.148-2.115,32.428,32.428,0,0,0,2.757-3.118.412.412,0,0,1,.347-.175,1.368,1.368,0,0,1,.391.088.512.512,0,0,1,.391.523" transform="translate(-59.325 -0.298)" fill="#ba0220"/></g></g></g></svg>