<svg xmlns="http://www.w3.org/2000/svg" xmlns:xlink="http://www.w3.org/1999/xlink" width="335.998" height="1111.418" viewBox="0 0 335.998 1111.418"><defs><clipPath id="a"><rect width="154.901" height="22.962" fill="none"/></clipPath><clipPath id="c"><rect width="111.835" height="22.962" fill="none"/></clipPath><clipPath id="e"><rect width="122.701" height="23.208" fill="none"/></clipPath></defs><g transform="translate(-20 -1286.113)"><g opacity="0.26"><path d="M-1233.883,6280.1h162.016l-52.389-73.953h-58.209Z" transform="translate(1345.296 -4873.547)" fill="#ba0220"/><path d="M-1070.9,6280.6h-163.94l.546-.786,51.567-74.167H-1124l.149.211Zm-162.026-1h160.093l-51.68-72.953h-57.69Z" transform="translate(1345.296 -4873.547)" fill="rgba(112,112,112,0)"/></g><g opacity="0.38"><path d="M-1148.569,6166.809h55.971l-28.416-41.108Z" transform="translate(1312.941 -4838.699)" fill="#ba0220"/><path d="M-1091.645,6167.309h-57.861l.522-.778,27.964-41.718.418.6Zm-55.987-1h54.08l-27.456-39.719Z" transform="translate(1312.941 -4838.699)" fill="rgba(112,112,112,0)"/></g><g opacity="0.14"><path d="M-2450.249,6352.445h167.166l78.732,105.2h-323.883Z" transform="translate(2559.352 -4940.117)" fill="#ba0220"/><path d="M-2450.5,6351.945h167.667l.15.2,79.33,106h-325.875l.592-.8Zm167.167,1H-2450l-77.244,104.2h321.891Z" transform="translate(2559.352 -4940.117)" fill="rgba(112,112,112,0)"/></g><text transform="translate(20 1614)" font-size="18" font-family="ShipporiMinchoB1-Bold, Shippori Mincho B1" font-weight="700"><tspan x="0" y="21">地域活性化と地域型スタートアップエコ</tspan><tspan x="0" y="47">システムの構築</tspan></text><text transform="translate(20 1876.012)" font-size="18" font-family="ShipporiMinchoB1-Bold, Shippori Mincho B1" font-weight="700"><tspan x="0" y="21">中国・四国地域を産業イノベーション発</tspan><tspan x="0" y="47">祥の拠点に</tspan></text><text transform="translate(20 2135.012)" font-size="18" font-family="ShipporiMinchoB1-Bold, Shippori Mincho B1" font-weight="700"><tspan x="0" y="21">投資活動を通じた新産業の創出と既存産</tspan><tspan x="0" y="47">業の革新</tspan></text><text transform="translate(20 1688.52)" font-size="15" font-family="NotoSansJP-Regular, Noto Sans JP"><tspan x="0" y="17">スタートアップによる</tspan><tspan y="17">地域活性化</tspan><tspan y="17">の</tspan><tspan y="17">推進</tspan><tspan y="17">と</tspan><tspan y="17">雇用機</tspan><tspan x="0" y="41">会</tspan><tspan y="41">の</tspan><tspan y="41">増加</tspan><tspan y="41">を</tspan><tspan y="41">目指</tspan><tspan y="41">します。</tspan><tspan x="0" y="65">地域型</tspan><tspan y="65">スタートアップエコシステムにおける</tspan><tspan y="65">資金</tspan><tspan x="0" y="89">循環</tspan><tspan y="89">の</tspan><tspan y="89">実現</tspan><tspan y="89">を</tspan><tspan y="89">目指</tspan><tspan y="89">します。</tspan></text><text transform="translate(20 1948.531)" font-size="15" font-family="NotoSansJP-Regular, Noto Sans JP"><tspan x="0" y="17">エコシステムを</tspan><tspan y="17">通</tspan><tspan y="17">じたヒト・モノ・カネ・</tspan><tspan y="17">情報</tspan><tspan y="17">の</tspan><tspan x="0" y="41">循環</tspan><tspan y="41">を</tspan><tspan y="41">促進</tspan><tspan y="41">します。</tspan><tspan x="0" y="65">未来</tspan><tspan y="65">の</tspan><tspan y="65">街中</tspan><tspan y="65">にサイエンスパークを</tspan><tspan y="65">形成</tspan><tspan y="65">し、</tspan><tspan y="65">地域全</tspan><tspan x="0" y="89">体</tspan><tspan y="89">への</tspan><tspan y="89">貢献</tspan><tspan y="89">を</tspan><tspan y="89">目指</tspan><tspan y="89">します。</tspan></text><text transform="translate(20 2208.531)" font-size="15" font-family="NotoSansJP-Regular, Noto Sans JP"><tspan x="0" y="17">新規産業</tspan><tspan y="17">の</tspan><tspan y="17">創出</tspan><tspan y="17">や</tspan><tspan y="17">既存産業</tspan><tspan y="17">を</tspan><tspan y="17">支援</tspan><tspan y="17">する</tspan><tspan y="17">研究</tspan><tspan y="17">シーズ</tspan><tspan x="0" y="41">の</tspan><tspan y="41">発掘</tspan><tspan y="41">に</tspan><tspan y="41">注力</tspan><tspan y="41">します。</tspan><tspan x="0" y="65">起業・</tspan><tspan y="65">マーケット</tspan><tspan y="65">拡大</tspan><tspan y="65">に</tspan><tspan y="65">向</tspan><tspan y="65">けた</tspan><tspan y="65">多様</tspan><tspan y="65">な</tspan><tspan y="65">支援</tspan><tspan y="65">を</tspan><tspan y="65">行</tspan><tspan y="65">い</tspan><tspan x="0" y="89">ます。</tspan><tspan x="0" y="113">特</tspan><tspan y="113">に、</tspan><tspan y="113">半導体、材料工学、通信/編集、再生医</tspan><tspan x="0" y="137">療、</tspan><tspan y="137">DX</tspan><tspan y="137">（デジタルトランスフォーメーション）、</tspan><tspan x="0" y="161">カーボンニュートラルといった</tspan><tspan y="161">分野</tspan><tspan y="161">での</tspan><tspan y="161">支援</tspan><tspan y="161">を</tspan><tspan y="161">重</tspan><tspan x="0" y="185">点的</tspan><tspan y="185">に</tspan><tspan y="185">実施</tspan><tspan y="185">しています。</tspan></text><g transform="translate(20 1297.865)"><g transform="translate(0 0)" clip-path="url(#a)"><path d="M.244,22.808q-.244,0-.244-.46,0-.4.244-.4H.672A2.749,2.749,0,0,0,2.5,21.244,2.208,2.208,0,0,0,3.327,19.5V3.31A1.649,1.649,0,0,0,2.7,1.823,3.792,3.792,0,0,0,.672,1.409H.244Q.031,1.409.031.98T.244.551H5.4a.734.734,0,0,1,.763.49l6.928,16.617q.122.4.428.4c.162,0,.305-.132.427-.4l7.3-16.617a.744.744,0,0,1,.732-.49h4.914a.192.192,0,0,1,.2.107.867.867,0,0,1,.046.322q0,.429-.244.429h-.458a3.515,3.515,0,0,0-2.015.429,1.714,1.714,0,0,0-.58,1.471V20.018a1.709,1.709,0,0,0,.61,1.5,3.531,3.531,0,0,0,1.984.429h.458q.214,0,.214.4,0,.459-.214.46H18.313q-.183,0-.183-.46,0-.4.183-.4h.519a3.5,3.5,0,0,0,2.014-.445,1.716,1.716,0,0,0,.611-1.487V5.3a.752.752,0,0,0-.092-.414.28.28,0,0,0-.244-.138c-.163,0-.305.133-.428.4L13.278,22.317c-.143.327-.275.491-.4.491s-.255-.163-.4-.491L5.25,5.18c-.122-.265-.255-.4-.4-.4a.279.279,0,0,0-.244.138.753.753,0,0,0-.092.414V19.5a2.178,2.178,0,0,0,.855,1.747,2.755,2.755,0,0,0,1.77.705h.488q.183,0,.183.4,0,.459-.183.46Z" transform="translate(0 -0.275)" fill="#ba0220"/><path d="M66.272,22.808q-.214,0-.214-.429t.214-.429h.489a3.507,3.507,0,0,0,2-.445,1.661,1.661,0,0,0,.626-1.456V3.34a1.674,1.674,0,0,0-.641-1.5,3.627,3.627,0,0,0-1.984-.429h-.489q-.214,0-.214-.429t.214-.429h8.638a.192.192,0,0,1,.2.107.865.865,0,0,1,.046.322q0,.429-.245.429h-.458a3.592,3.592,0,0,0-2.029.429,1.73,1.73,0,0,0-.6,1.5V20.049a1.665,1.665,0,0,0,.611,1.487,3.706,3.706,0,0,0,2.014.414h.458a.192.192,0,0,1,.2.107.86.86,0,0,1,.046.322q0,.429-.245.429Z" transform="translate(-32.941 -0.275)" fill="#ba0220"/><path d="M101.86,22.641a16.138,16.138,0,0,1-2.61-.72,2.4,2.4,0,0,0-.763-.123,1.953,1.953,0,0,0-1.221.491.658.658,0,0,1-.428.184q-.274,0-.427-.46l-1.221-5.151-.031-.184q0-.153.305-.276l.183-.031a.373.373,0,0,1,.336.245q2.9,5.242,8.18,5.242a7.34,7.34,0,0,0,3.739-1,3.619,3.619,0,0,0,1.725-3.418,3.956,3.956,0,0,0-.611-2.1,4.468,4.468,0,0,0-1.77-1.61,13.951,13.951,0,0,0-1.831-.8q-.885-.307-2.167-.705a21.238,21.238,0,0,1-2.686-.92A7.514,7.514,0,0,1,97.342,8.86a5.376,5.376,0,0,1-.87-2.973,6.694,6.694,0,0,1,.549-2.514,5.447,5.447,0,0,1,1.969-2.361A6.481,6.481,0,0,1,102.821,0a9.165,9.165,0,0,1,1.893.2,16.653,16.653,0,0,1,2.075.6,3.069,3.069,0,0,0,.824.153,1.653,1.653,0,0,0,1.068-.4.776.776,0,0,1,.458-.184c.2,0,.335.133.4.4l1.282,4.415.031.215q0,.184-.245.276a.942.942,0,0,1-.274.062.358.358,0,0,1-.305-.184,11.637,11.637,0,0,0-1.313-1.656,10.519,10.519,0,0,0-2.533-1.962,6.933,6.933,0,0,0-3.54-.92,4.175,4.175,0,0,0-2.869.874,4.041,4.041,0,0,0-1.252,1.778,5.2,5.2,0,0,0-.275,1.364q0,2.178,2.594,3.5a25.247,25.247,0,0,0,3.419,1.226q1.343.4,2.3.735a16.1,16.1,0,0,1,1.877.8,6.037,6.037,0,0,1,3.54,5.7,5.343,5.343,0,0,1-.9,3.035,6.08,6.08,0,0,1-2.609,2.131,9.532,9.532,0,0,1-4,.782,13.732,13.732,0,0,1-2.61-.291" transform="translate(-47.454 0)" fill="#ba0220"/><path d="M146.062,22.641a16.124,16.124,0,0,1-2.61-.72,2.4,2.4,0,0,0-.763-.123,1.953,1.953,0,0,0-1.221.491.658.658,0,0,1-.428.184q-.274,0-.427-.46l-1.221-5.151-.031-.184c0-.1.1-.194.305-.276l.183-.031a.373.373,0,0,1,.336.245q2.9,5.242,8.18,5.242a7.341,7.341,0,0,0,3.739-1,3.619,3.619,0,0,0,1.725-3.418,3.956,3.956,0,0,0-.611-2.1,4.468,4.468,0,0,0-1.77-1.61,13.952,13.952,0,0,0-1.831-.8q-.886-.307-2.167-.705a21.253,21.253,0,0,1-2.687-.92,7.512,7.512,0,0,1-3.22-2.453,5.372,5.372,0,0,1-.87-2.973,6.694,6.694,0,0,1,.549-2.514,5.447,5.447,0,0,1,1.969-2.361A6.48,6.48,0,0,1,147.023,0a9.16,9.16,0,0,1,1.892.2,16.634,16.634,0,0,1,2.076.6,3.069,3.069,0,0,0,.824.153,1.653,1.653,0,0,0,1.068-.4.776.776,0,0,1,.458-.184c.2,0,.335.133.4.4l1.282,4.415.031.215q0,.184-.245.276a.942.942,0,0,1-.274.062.358.358,0,0,1-.305-.184,11.674,11.674,0,0,0-1.313-1.656,10.519,10.519,0,0,0-2.533-1.962,6.935,6.935,0,0,0-3.54-.92,4.176,4.176,0,0,0-2.87.874,4.04,4.04,0,0,0-1.251,1.778,5.2,5.2,0,0,0-.275,1.364q0,2.178,2.594,3.5a25.247,25.247,0,0,0,3.419,1.226q1.343.4,2.3.735a16.1,16.1,0,0,1,1.877.8,6.037,6.037,0,0,1,3.54,5.7,5.343,5.343,0,0,1-.9,3.035,6.08,6.08,0,0,1-2.609,2.131,9.532,9.532,0,0,1-4,.782,13.732,13.732,0,0,1-2.61-.291" transform="translate(-69.496 0)" fill="#ba0220"/><path d="M184.081,22.808q-.214,0-.214-.429t.214-.429h.489a3.506,3.506,0,0,0,2-.445,1.661,1.661,0,0,0,.626-1.456V3.34a1.674,1.674,0,0,0-.641-1.5,3.627,3.627,0,0,0-1.984-.429h-.489q-.214,0-.214-.429t.214-.429h8.638a.192.192,0,0,1,.2.107.865.865,0,0,1,.046.322q0,.429-.245.429h-.458a3.592,3.592,0,0,0-2.029.429,1.73,1.73,0,0,0-.6,1.5V20.049a1.665,1.665,0,0,0,.611,1.487,3.706,3.706,0,0,0,2.014.414h.458a.192.192,0,0,1,.2.107.861.861,0,0,1,.046.322q0,.429-.245.429Z" transform="translate(-91.69 -0.275)" fill="#ba0220"/><path d="M218.752,21.629a10.389,10.389,0,0,1-3.8-3.939,12.3,12.3,0,0,1-1.5-6.223,12.235,12.235,0,0,1,1.5-6.193,10.4,10.4,0,0,1,3.8-3.939,8.871,8.871,0,0,1,9.355,0,10.447,10.447,0,0,1,3.785,3.939,12.24,12.24,0,0,1,1.5,6.193,12.3,12.3,0,0,1-1.5,6.223,10.44,10.44,0,0,1-3.785,3.939,8.871,8.871,0,0,1-9.355,0m8.15-.858a8.293,8.293,0,0,0,2.656-3.556,14.513,14.513,0,0,0,1.023-5.748,14.317,14.317,0,0,0-1.023-5.7A8.307,8.307,0,0,0,226.9,2.223a5.817,5.817,0,0,0-3.464-1.181,5.882,5.882,0,0,0-3.48,1.181A8.143,8.143,0,0,0,217.3,5.764a14.507,14.507,0,0,0-1.007,5.7,14.705,14.705,0,0,0,1.007,5.748,8.131,8.131,0,0,0,2.656,3.556,5.878,5.878,0,0,0,3.48,1.18,5.813,5.813,0,0,0,3.464-1.18" transform="translate(-106.445 0)" fill="#ba0220"/><path d="M264.569,22.808q-.184,0-.183-.46c0-.266.061-.4.183-.4h.488a2.657,2.657,0,0,0,1.786-.705,2.226,2.226,0,0,0,.809-1.747V3.31a1.675,1.675,0,0,0-.61-1.471,3.536,3.536,0,0,0-1.984-.429h-.488q-.214,0-.214-.429t.214-.429h4.914a.877.877,0,0,1,.763.4L281.417,16.8q.214.307.427.306.366,0,.366-.551V3.862A2.069,2.069,0,0,0,281.8,2.62a2.921,2.921,0,0,0-1.038-.889,2.634,2.634,0,0,0-1.206-.322H279.1a.192.192,0,0,1-.2-.107.86.86,0,0,1-.046-.322c0-.286.081-.429.244-.429h7.387a.192.192,0,0,1,.2.107.865.865,0,0,1,.046.322q0,.429-.244.429H286a2.624,2.624,0,0,0-1.786.72,2.24,2.24,0,0,0-.809,1.732v18.3a.893.893,0,0,1-.106.475.308.308,0,0,1-.26.168.779.779,0,0,1-.641-.4L269.666,4.168c-.143-.2-.285-.306-.428-.306q-.366,0-.366.552V19.5a2.177,2.177,0,0,0,.855,1.747,2.789,2.789,0,0,0,1.8.705h.488q.214,0,.214.4,0,.459-.214.46Z" transform="translate(-131.827 -0.275)" fill="#ba0220"/></g></g><g transform="translate(20 1569.518)"><g transform="translate(0 0)" clip-path="url(#a)"><path d="M.244,22.808q-.244,0-.244-.46,0-.4.244-.4H.672A2.749,2.749,0,0,0,2.5,21.244,2.208,2.208,0,0,0,3.327,19.5V3.31A1.649,1.649,0,0,0,2.7,1.823,3.792,3.792,0,0,0,.672,1.409H.244Q.031,1.409.031.98T.244.551H5.4a.734.734,0,0,1,.763.49l6.928,16.617q.122.4.428.4c.162,0,.305-.132.427-.4l7.3-16.617a.744.744,0,0,1,.732-.49h4.914a.192.192,0,0,1,.2.107.867.867,0,0,1,.046.322q0,.429-.244.429h-.458a3.515,3.515,0,0,0-2.015.429,1.714,1.714,0,0,0-.58,1.471V20.018a1.709,1.709,0,0,0,.61,1.5,3.531,3.531,0,0,0,1.984.429h.458q.214,0,.214.4,0,.459-.214.46H18.313q-.183,0-.183-.46,0-.4.183-.4h.519a3.5,3.5,0,0,0,2.014-.445,1.716,1.716,0,0,0,.611-1.487V5.3a.752.752,0,0,0-.092-.414.28.28,0,0,0-.244-.138c-.163,0-.305.133-.428.4L13.278,22.317c-.143.327-.275.491-.4.491s-.255-.163-.4-.491L5.25,5.18c-.122-.265-.255-.4-.4-.4a.279.279,0,0,0-.244.138.753.753,0,0,0-.092.414V19.5a2.178,2.178,0,0,0,.855,1.747,2.755,2.755,0,0,0,1.77.705h.488q.183,0,.183.4,0,.459-.183.46Z" transform="translate(0 -0.275)" fill="#ba0220"/><path d="M66.272,22.808q-.214,0-.214-.429t.214-.429h.489a3.507,3.507,0,0,0,2-.445,1.661,1.661,0,0,0,.626-1.456V3.34a1.674,1.674,0,0,0-.641-1.5,3.627,3.627,0,0,0-1.984-.429h-.489q-.214,0-.214-.429t.214-.429h8.638a.192.192,0,0,1,.2.107.865.865,0,0,1,.046.322q0,.429-.245.429h-.458a3.592,3.592,0,0,0-2.029.429,1.73,1.73,0,0,0-.6,1.5V20.049a1.665,1.665,0,0,0,.611,1.487,3.706,3.706,0,0,0,2.014.414h.458a.192.192,0,0,1,.2.107.86.86,0,0,1,.046.322q0,.429-.245.429Z" transform="translate(-32.941 -0.275)" fill="#ba0220"/><path d="M101.86,22.641a16.138,16.138,0,0,1-2.61-.72,2.4,2.4,0,0,0-.763-.123,1.953,1.953,0,0,0-1.221.491.658.658,0,0,1-.428.184q-.274,0-.427-.46l-1.221-5.151-.031-.184q0-.153.305-.276l.183-.031a.373.373,0,0,1,.336.245q2.9,5.242,8.18,5.242a7.34,7.34,0,0,0,3.739-1,3.619,3.619,0,0,0,1.725-3.418,3.956,3.956,0,0,0-.611-2.1,4.468,4.468,0,0,0-1.77-1.61,13.951,13.951,0,0,0-1.831-.8q-.885-.307-2.167-.705a21.238,21.238,0,0,1-2.686-.92A7.514,7.514,0,0,1,97.342,8.86a5.376,5.376,0,0,1-.87-2.973,6.694,6.694,0,0,1,.549-2.514,5.447,5.447,0,0,1,1.969-2.361A6.481,6.481,0,0,1,102.821,0a9.165,9.165,0,0,1,1.893.2,16.653,16.653,0,0,1,2.075.6,3.069,3.069,0,0,0,.824.153,1.653,1.653,0,0,0,1.068-.4.776.776,0,0,1,.458-.184c.2,0,.335.133.4.4l1.282,4.415.031.215q0,.184-.245.276a.942.942,0,0,1-.274.062.358.358,0,0,1-.305-.184,11.637,11.637,0,0,0-1.313-1.656,10.519,10.519,0,0,0-2.533-1.962,6.933,6.933,0,0,0-3.54-.92,4.175,4.175,0,0,0-2.869.874,4.041,4.041,0,0,0-1.252,1.778,5.2,5.2,0,0,0-.275,1.364q0,2.178,2.594,3.5a25.247,25.247,0,0,0,3.419,1.226q1.343.4,2.3.735a16.1,16.1,0,0,1,1.877.8,6.037,6.037,0,0,1,3.54,5.7,5.343,5.343,0,0,1-.9,3.035,6.08,6.08,0,0,1-2.609,2.131,9.532,9.532,0,0,1-4,.782,13.732,13.732,0,0,1-2.61-.291" transform="translate(-47.454 0)" fill="#ba0220"/><path d="M146.062,22.641a16.124,16.124,0,0,1-2.61-.72,2.4,2.4,0,0,0-.763-.123,1.953,1.953,0,0,0-1.221.491.658.658,0,0,1-.428.184q-.274,0-.427-.46l-1.221-5.151-.031-.184c0-.1.1-.194.305-.276l.183-.031a.373.373,0,0,1,.336.245q2.9,5.242,8.18,5.242a7.341,7.341,0,0,0,3.739-1,3.619,3.619,0,0,0,1.725-3.418,3.956,3.956,0,0,0-.611-2.1,4.468,4.468,0,0,0-1.77-1.61,13.952,13.952,0,0,0-1.831-.8q-.886-.307-2.167-.705a21.253,21.253,0,0,1-2.687-.92,7.512,7.512,0,0,1-3.22-2.453,5.372,5.372,0,0,1-.87-2.973,6.694,6.694,0,0,1,.549-2.514,5.447,5.447,0,0,1,1.969-2.361A6.48,6.48,0,0,1,147.023,0a9.16,9.16,0,0,1,1.892.2,16.634,16.634,0,0,1,2.076.6,3.069,3.069,0,0,0,.824.153,1.653,1.653,0,0,0,1.068-.4.776.776,0,0,1,.458-.184c.2,0,.335.133.4.4l1.282,4.415.031.215q0,.184-.245.276a.942.942,0,0,1-.274.062.358.358,0,0,1-.305-.184,11.674,11.674,0,0,0-1.313-1.656,10.519,10.519,0,0,0-2.533-1.962,6.935,6.935,0,0,0-3.54-.92,4.176,4.176,0,0,0-2.87.874,4.04,4.04,0,0,0-1.251,1.778,5.2,5.2,0,0,0-.275,1.364q0,2.178,2.594,3.5a25.247,25.247,0,0,0,3.419,1.226q1.343.4,2.3.735a16.1,16.1,0,0,1,1.877.8,6.037,6.037,0,0,1,3.54,5.7,5.343,5.343,0,0,1-.9,3.035,6.08,6.08,0,0,1-2.609,2.131,9.532,9.532,0,0,1-4,.782,13.732,13.732,0,0,1-2.61-.291" transform="translate(-69.496 0)" fill="#ba0220"/><path d="M184.081,22.808q-.214,0-.214-.429t.214-.429h.489a3.506,3.506,0,0,0,2-.445,1.661,1.661,0,0,0,.626-1.456V3.34a1.674,1.674,0,0,0-.641-1.5,3.627,3.627,0,0,0-1.984-.429h-.489q-.214,0-.214-.429t.214-.429h8.638a.192.192,0,0,1,.2.107.865.865,0,0,1,.046.322q0,.429-.245.429h-.458a3.592,3.592,0,0,0-2.029.429,1.73,1.73,0,0,0-.6,1.5V20.049a1.665,1.665,0,0,0,.611,1.487,3.706,3.706,0,0,0,2.014.414h.458a.192.192,0,0,1,.2.107.861.861,0,0,1,.046.322q0,.429-.245.429Z" transform="translate(-91.69 -0.275)" fill="#ba0220"/><path d="M218.752,21.629a10.389,10.389,0,0,1-3.8-3.939,12.3,12.3,0,0,1-1.5-6.223,12.235,12.235,0,0,1,1.5-6.193,10.4,10.4,0,0,1,3.8-3.939,8.871,8.871,0,0,1,9.355,0,10.447,10.447,0,0,1,3.785,3.939,12.24,12.24,0,0,1,1.5,6.193,12.3,12.3,0,0,1-1.5,6.223,10.44,10.44,0,0,1-3.785,3.939,8.871,8.871,0,0,1-9.355,0m8.15-.858a8.293,8.293,0,0,0,2.656-3.556,14.513,14.513,0,0,0,1.023-5.748,14.317,14.317,0,0,0-1.023-5.7A8.307,8.307,0,0,0,226.9,2.223a5.817,5.817,0,0,0-3.464-1.181,5.882,5.882,0,0,0-3.48,1.181A8.143,8.143,0,0,0,217.3,5.764a14.507,14.507,0,0,0-1.007,5.7,14.705,14.705,0,0,0,1.007,5.748,8.131,8.131,0,0,0,2.656,3.556,5.878,5.878,0,0,0,3.48,1.18,5.813,5.813,0,0,0,3.464-1.18" transform="translate(-106.445 0)" fill="#ba0220"/><path d="M264.569,22.808q-.184,0-.183-.46c0-.266.061-.4.183-.4h.488a2.657,2.657,0,0,0,1.786-.705,2.226,2.226,0,0,0,.809-1.747V3.31a1.675,1.675,0,0,0-.61-1.471,3.536,3.536,0,0,0-1.984-.429h-.488q-.214,0-.214-.429t.214-.429h4.914a.877.877,0,0,1,.763.4L281.417,16.8q.214.307.427.306.366,0,.366-.551V3.862A2.069,2.069,0,0,0,281.8,2.62a2.921,2.921,0,0,0-1.038-.889,2.634,2.634,0,0,0-1.206-.322H279.1a.192.192,0,0,1-.2-.107.86.86,0,0,1-.046-.322c0-.286.081-.429.244-.429h7.387a.192.192,0,0,1,.2.107.865.865,0,0,1,.046.322q0,.429-.244.429H286a2.624,2.624,0,0,0-1.786.72,2.24,2.24,0,0,0-.809,1.732v18.3a.893.893,0,0,1-.106.475.308.308,0,0,1-.26.168.779.779,0,0,1-.641-.4L269.666,4.168c-.143-.2-.285-.306-.428-.306q-.366,0-.366.552V19.5a2.177,2.177,0,0,0,.855,1.747,2.789,2.789,0,0,0,1.8.705h.488q.214,0,.214.4,0,.459-.214.46Z" transform="translate(-131.827 -0.275)" fill="#ba0220"/></g></g><g transform="translate(20 1359.727)"><g transform="translate(0 0)" clip-path="url(#c)"><path d="M10.194,22.715,3.571,3.34A2.788,2.788,0,0,0,2.289,1.853,3.423,3.423,0,0,0,.732,1.409H.214Q0,1.409,0,.98T.214.55H8.73a.193.193,0,0,1,.2.107A.876.876,0,0,1,8.974.98q0,.429-.244.429H8.241a3.451,3.451,0,0,0-1.633.322,1.06,1.06,0,0,0-.6,1,2.59,2.59,0,0,0,.122.613l2.9,8.339,2.442,7.082c.122.287.264.43.427.43a.353.353,0,0,0,.244-.123.773.773,0,0,0,.183-.307Q16.757,5.976,17.4,3.892a3.014,3.014,0,0,0,.152-.951A1.3,1.3,0,0,0,17,1.761a2.321,2.321,0,0,0-1.282-.352h-.489q-.214,0-.214-.429t.214-.43h7.234a.193.193,0,0,1,.2.107.865.865,0,0,1,.046.322q0,.429-.244.429h-.489a3.221,3.221,0,0,0-1.908.674A4.05,4.05,0,0,0,18.68,3.892q-.824,2.33-2.442,7.066t-3.174,9.366q-.367,1.012-.824,2.391a.715.715,0,0,1-.733.521h-.58a.715.715,0,0,1-.732-.521" transform="translate(0 -0.274)" fill="#ba0220"/><path d="M53.974,22.808q-.214,0-.214-.429t.214-.429h.488a3.507,3.507,0,0,0,2-.445,1.661,1.661,0,0,0,.626-1.456V3.34a1.674,1.674,0,0,0-.641-1.5,3.627,3.627,0,0,0-1.984-.429h-.488q-.214,0-.214-.429t.214-.429h8.637a.194.194,0,0,1,.2.107.878.878,0,0,1,.046.322q0,.429-.245.429h-.458a3.592,3.592,0,0,0-2.029.429,1.73,1.73,0,0,0-.6,1.5V20.049a1.667,1.667,0,0,0,.611,1.487,3.706,3.706,0,0,0,2.014.414h.458a.193.193,0,0,1,.2.107.873.873,0,0,1,.046.322q0,.429-.245.429Z" transform="translate(-26.809 -0.275)" fill="#ba0220"/><path d="M89.563,22.641a16.138,16.138,0,0,1-2.61-.72,2.4,2.4,0,0,0-.763-.123,1.953,1.953,0,0,0-1.221.491.658.658,0,0,1-.428.184q-.274,0-.427-.46l-1.221-5.151-.031-.184q0-.153.305-.276l.183-.031a.373.373,0,0,1,.336.245q2.9,5.242,8.18,5.242a7.34,7.34,0,0,0,3.739-1,3.619,3.619,0,0,0,1.725-3.418,3.956,3.956,0,0,0-.611-2.1,4.468,4.468,0,0,0-1.77-1.61,13.952,13.952,0,0,0-1.831-.8q-.885-.307-2.167-.705a21.239,21.239,0,0,1-2.686-.92A7.514,7.514,0,0,1,85.045,8.86a5.376,5.376,0,0,1-.87-2.973,6.694,6.694,0,0,1,.549-2.514,5.447,5.447,0,0,1,1.969-2.361A6.481,6.481,0,0,1,90.524,0a9.165,9.165,0,0,1,1.893.2,16.653,16.653,0,0,1,2.075.6,3.069,3.069,0,0,0,.824.153,1.653,1.653,0,0,0,1.068-.4.776.776,0,0,1,.458-.184c.2,0,.335.133.4.4l1.282,4.415.031.215q0,.184-.245.276a.942.942,0,0,1-.274.062.358.358,0,0,1-.305-.184,11.637,11.637,0,0,0-1.313-1.656,10.519,10.519,0,0,0-2.533-1.962,6.934,6.934,0,0,0-3.54-.92,4.175,4.175,0,0,0-2.869.874A4.041,4.041,0,0,0,86.22,3.664a5.2,5.2,0,0,0-.275,1.364q0,2.178,2.594,3.5a25.247,25.247,0,0,0,3.419,1.226q1.343.4,2.3.735a16.1,16.1,0,0,1,1.877.8,6.037,6.037,0,0,1,3.54,5.7,5.343,5.343,0,0,1-.9,3.035,6.08,6.08,0,0,1-2.609,2.131,9.532,9.532,0,0,1-4,.782,13.732,13.732,0,0,1-2.61-.291" transform="translate(-41.322 0)" fill="#ba0220"/><path d="M132.847,21.629a10.389,10.389,0,0,1-3.8-3.939,12.3,12.3,0,0,1-1.5-6.223,12.235,12.235,0,0,1,1.5-6.193,10.4,10.4,0,0,1,3.8-3.939,8.871,8.871,0,0,1,9.355,0,10.447,10.447,0,0,1,3.785,3.939,12.24,12.24,0,0,1,1.5,6.193,12.3,12.3,0,0,1-1.5,6.223,10.44,10.44,0,0,1-3.785,3.939,8.871,8.871,0,0,1-9.355,0m8.15-.858a8.293,8.293,0,0,0,2.656-3.556,14.513,14.513,0,0,0,1.023-5.748,14.317,14.317,0,0,0-1.023-5.7A8.307,8.307,0,0,0,141,2.223a5.817,5.817,0,0,0-3.464-1.181,5.882,5.882,0,0,0-3.48,1.181A8.143,8.143,0,0,0,131.4,5.764a14.507,14.507,0,0,0-1.007,5.7,14.705,14.705,0,0,0,1.007,5.748,8.131,8.131,0,0,0,2.656,3.556,5.878,5.878,0,0,0,3.48,1.18A5.813,5.813,0,0,0,141,20.771" transform="translate(-63.606 0)" fill="#ba0220"/><path d="M178.664,22.808q-.183,0-.183-.46c0-.266.061-.4.183-.4h.488a2.657,2.657,0,0,0,1.786-.705,2.226,2.226,0,0,0,.809-1.747V3.31a1.675,1.675,0,0,0-.61-1.471,3.536,3.536,0,0,0-1.984-.429h-.488c-.143,0-.214-.143-.214-.429s.071-.429.214-.429h4.914a.877.877,0,0,1,.763.4L195.512,16.8q.214.307.427.306.366,0,.366-.551V3.862a2.069,2.069,0,0,0-.412-1.242,2.921,2.921,0,0,0-1.038-.889,2.634,2.634,0,0,0-1.206-.322h-.458a.191.191,0,0,1-.2-.107.86.86,0,0,1-.046-.322c0-.286.081-.429.244-.429h7.387a.192.192,0,0,1,.2.107.865.865,0,0,1,.046.322q0,.429-.244.429h-.488a2.624,2.624,0,0,0-1.786.72,2.24,2.24,0,0,0-.809,1.732v18.3a.893.893,0,0,1-.106.475.308.308,0,0,1-.26.168.781.781,0,0,1-.641-.4L183.761,4.168c-.142-.2-.285-.306-.427-.306q-.366,0-.366.552V19.5a2.178,2.178,0,0,0,.855,1.747,2.791,2.791,0,0,0,1.8.705h.488c.142,0,.214.133.214.4q0,.459-.214.46Z" transform="translate(-88.988 -0.275)" fill="#ba0220"/></g></g><g transform="translate(20 1836.727)"><g transform="translate(0 0)" clip-path="url(#c)"><path d="M10.194,22.715,3.571,3.34A2.788,2.788,0,0,0,2.289,1.853,3.423,3.423,0,0,0,.732,1.409H.214Q0,1.409,0,.98T.214.55H8.73a.193.193,0,0,1,.2.107A.876.876,0,0,1,8.974.98q0,.429-.244.429H8.241a3.451,3.451,0,0,0-1.633.322,1.06,1.06,0,0,0-.6,1,2.59,2.59,0,0,0,.122.613l2.9,8.339,2.442,7.082c.122.287.264.43.427.43a.353.353,0,0,0,.244-.123.773.773,0,0,0,.183-.307Q16.757,5.976,17.4,3.892a3.014,3.014,0,0,0,.152-.951A1.3,1.3,0,0,0,17,1.761a2.321,2.321,0,0,0-1.282-.352h-.489q-.214,0-.214-.429t.214-.43h7.234a.193.193,0,0,1,.2.107.865.865,0,0,1,.046.322q0,.429-.244.429h-.489a3.221,3.221,0,0,0-1.908.674A4.05,4.05,0,0,0,18.68,3.892q-.824,2.33-2.442,7.066t-3.174,9.366q-.367,1.012-.824,2.391a.715.715,0,0,1-.733.521h-.58a.715.715,0,0,1-.732-.521" transform="translate(0 -0.274)" fill="#ba0220"/><path d="M53.974,22.808q-.214,0-.214-.429t.214-.429h.488a3.507,3.507,0,0,0,2-.445,1.661,1.661,0,0,0,.626-1.456V3.34a1.674,1.674,0,0,0-.641-1.5,3.627,3.627,0,0,0-1.984-.429h-.488q-.214,0-.214-.429t.214-.429h8.637a.194.194,0,0,1,.2.107.878.878,0,0,1,.046.322q0,.429-.245.429h-.458a3.592,3.592,0,0,0-2.029.429,1.73,1.73,0,0,0-.6,1.5V20.049a1.667,1.667,0,0,0,.611,1.487,3.706,3.706,0,0,0,2.014.414h.458a.193.193,0,0,1,.2.107.873.873,0,0,1,.046.322q0,.429-.245.429Z" transform="translate(-26.809 -0.275)" fill="#ba0220"/><path d="M89.563,22.641a16.138,16.138,0,0,1-2.61-.72,2.4,2.4,0,0,0-.763-.123,1.953,1.953,0,0,0-1.221.491.658.658,0,0,1-.428.184q-.274,0-.427-.46l-1.221-5.151-.031-.184q0-.153.305-.276l.183-.031a.373.373,0,0,1,.336.245q2.9,5.242,8.18,5.242a7.34,7.34,0,0,0,3.739-1,3.619,3.619,0,0,0,1.725-3.418,3.956,3.956,0,0,0-.611-2.1,4.468,4.468,0,0,0-1.77-1.61,13.952,13.952,0,0,0-1.831-.8q-.885-.307-2.167-.705a21.239,21.239,0,0,1-2.686-.92A7.514,7.514,0,0,1,85.045,8.86a5.376,5.376,0,0,1-.87-2.973,6.694,6.694,0,0,1,.549-2.514,5.447,5.447,0,0,1,1.969-2.361A6.481,6.481,0,0,1,90.524,0a9.165,9.165,0,0,1,1.893.2,16.653,16.653,0,0,1,2.075.6,3.069,3.069,0,0,0,.824.153,1.653,1.653,0,0,0,1.068-.4.776.776,0,0,1,.458-.184c.2,0,.335.133.4.4l1.282,4.415.031.215q0,.184-.245.276a.942.942,0,0,1-.274.062.358.358,0,0,1-.305-.184,11.637,11.637,0,0,0-1.313-1.656,10.519,10.519,0,0,0-2.533-1.962,6.934,6.934,0,0,0-3.54-.92,4.175,4.175,0,0,0-2.869.874A4.041,4.041,0,0,0,86.22,3.664a5.2,5.2,0,0,0-.275,1.364q0,2.178,2.594,3.5a25.247,25.247,0,0,0,3.419,1.226q1.343.4,2.3.735a16.1,16.1,0,0,1,1.877.8,6.037,6.037,0,0,1,3.54,5.7,5.343,5.343,0,0,1-.9,3.035,6.08,6.08,0,0,1-2.609,2.131,9.532,9.532,0,0,1-4,.782,13.732,13.732,0,0,1-2.61-.291" transform="translate(-41.322 0)" fill="#ba0220"/><path d="M132.847,21.629a10.389,10.389,0,0,1-3.8-3.939,12.3,12.3,0,0,1-1.5-6.223,12.235,12.235,0,0,1,1.5-6.193,10.4,10.4,0,0,1,3.8-3.939,8.871,8.871,0,0,1,9.355,0,10.447,10.447,0,0,1,3.785,3.939,12.24,12.24,0,0,1,1.5,6.193,12.3,12.3,0,0,1-1.5,6.223,10.44,10.44,0,0,1-3.785,3.939,8.871,8.871,0,0,1-9.355,0m8.15-.858a8.293,8.293,0,0,0,2.656-3.556,14.513,14.513,0,0,0,1.023-5.748,14.317,14.317,0,0,0-1.023-5.7A8.307,8.307,0,0,0,141,2.223a5.817,5.817,0,0,0-3.464-1.181,5.882,5.882,0,0,0-3.48,1.181A8.143,8.143,0,0,0,131.4,5.764a14.507,14.507,0,0,0-1.007,5.7,14.705,14.705,0,0,0,1.007,5.748,8.131,8.131,0,0,0,2.656,3.556,5.878,5.878,0,0,0,3.48,1.18A5.813,5.813,0,0,0,141,20.771" transform="translate(-63.606 0)" fill="#ba0220"/><path d="M178.664,22.808q-.183,0-.183-.46c0-.266.061-.4.183-.4h.488a2.657,2.657,0,0,0,1.786-.705,2.226,2.226,0,0,0,.809-1.747V3.31a1.675,1.675,0,0,0-.61-1.471,3.536,3.536,0,0,0-1.984-.429h-.488c-.143,0-.214-.143-.214-.429s.071-.429.214-.429h4.914a.877.877,0,0,1,.763.4L195.512,16.8q.214.307.427.306.366,0,.366-.551V3.862a2.069,2.069,0,0,0-.412-1.242,2.921,2.921,0,0,0-1.038-.889,2.634,2.634,0,0,0-1.206-.322h-.458a.191.191,0,0,1-.2-.107.86.86,0,0,1-.046-.322c0-.286.081-.429.244-.429h7.387a.192.192,0,0,1,.2.107.865.865,0,0,1,.046.322q0,.429-.244.429h-.488a2.624,2.624,0,0,0-1.786.72,2.24,2.24,0,0,0-.809,1.732v18.3a.893.893,0,0,1-.106.475.308.308,0,0,1-.26.168.781.781,0,0,1-.641-.4L183.761,4.168c-.142-.2-.285-.306-.427-.306q-.366,0-.366.552V19.5a2.178,2.178,0,0,0,.855,1.747,2.791,2.791,0,0,0,1.8.705h.488c.142,0,.214.133.214.4q0,.459-.214.46Z" transform="translate(-88.988 -0.275)" fill="#ba0220"/></g></g><g transform="translate(20 1420.885)"><g transform="translate(0 0)" clip-path="url(#e)"><path d="M10.194,23.2,3.571,3.829A2.788,2.788,0,0,0,2.289,2.342,3.426,3.426,0,0,0,.732,1.9H.214Q0,1.9,0,1.469t.214-.43H8.73a.193.193,0,0,1,.2.107.878.878,0,0,1,.045.322q0,.429-.244.429H8.241a3.454,3.454,0,0,0-1.633.322,1.06,1.06,0,0,0-.6,1,2.608,2.608,0,0,0,.122.613l2.9,8.339,2.441,7.082c.122.287.264.43.428.43a.351.351,0,0,0,.244-.123.768.768,0,0,0,.183-.307Q16.756,6.465,17.4,4.381a3.014,3.014,0,0,0,.152-.951A1.294,1.294,0,0,0,17,2.25,2.32,2.32,0,0,0,15.719,1.9h-.488q-.214,0-.214-.429t.214-.43h7.234a.192.192,0,0,1,.2.107.865.865,0,0,1,.046.322q0,.429-.244.429h-.489a3.221,3.221,0,0,0-1.908.674A4.05,4.05,0,0,0,18.68,4.381q-.824,2.33-2.442,7.066t-3.174,9.366q-.366,1.012-.824,2.391a.714.714,0,0,1-.732.521h-.58a.714.714,0,0,1-.732-.521" transform="translate(0 -0.518)" fill="#ba0220"/><path d="M73.364,22.058a1.362,1.362,0,0,1,.031.291q0,.429-.183.429H64.544a.166.166,0,0,1-.168-.107,1.146,1.146,0,0,1,0-.644.167.167,0,0,1,.168-.108,5.261,5.261,0,0,0,2.014-.352,1.274,1.274,0,0,0,.854-1.272,2.06,2.06,0,0,0-.122-.705l-1.5-4.323a.715.715,0,0,0-.733-.521H57.737a.714.714,0,0,0-.732.521l-.519,1.441-.672,1.962a4.082,4.082,0,0,0-.274,1.349q0,1.9,2.9,1.9a.15.15,0,0,1,.153.138,1.363,1.363,0,0,1,.031.291q0,.429-.183.429H50.93a.167.167,0,0,1-.168-.107,1.146,1.146,0,0,1,0-.644.167.167,0,0,1,.168-.108,3.128,3.128,0,0,0,1.8-.644,4.518,4.518,0,0,0,1.5-2.115L61.094.858a1.009,1.009,0,0,1,.641-.613l.519-.153A1.241,1.241,0,0,1,62.681,0a.354.354,0,0,1,.244.061.366.366,0,0,1,.183.215l1.038,3.035q1.037,2.974,3.128,9.013t2.458,6.959a3.524,3.524,0,0,0,3.48,2.636.15.15,0,0,1,.152.138M57.828,13.121a.407.407,0,0,0,.152.337.663.663,0,0,0,.427.123h6.043q.58,0,.58-.491l-.061-.245L61.918,4.016a1.719,1.719,0,0,0-.305-.644q-.183-.214-.244-.061-1.709,4.507-3.479,9.534a.964.964,0,0,0-.061.276" transform="translate(-25.291 0)" fill="#ba0220"/><path d="M120.867,23.3H104.934a.167.167,0,0,1-.168-.107.857.857,0,0,1-.046-.322q0-.46.214-.46h.488a3.714,3.714,0,0,0,2.014-.414,1.668,1.668,0,0,0,.611-1.487V3.829a1.675,1.675,0,0,0-.641-1.5,3.626,3.626,0,0,0-1.984-.429h-.488q-.214,0-.214-.429t.214-.429H113.6a.192.192,0,0,1,.2.107.865.865,0,0,1,.046.322q0,.429-.244.429h-.458a3.593,3.593,0,0,0-2.015.445,1.68,1.68,0,0,0-.641,1.486V20.507a1.534,1.534,0,0,0,.626,1.426,4.425,4.425,0,0,0,2.03.445l.7.031,1.221-.031a7.749,7.749,0,0,0,4.365-1.242,12.9,12.9,0,0,0,3.083-3.173.276.276,0,0,1,.244-.153.7.7,0,0,1,.275.092c.162.082.244.184.244.307l-.031.153-.915,2.453-.733,1.962a.714.714,0,0,1-.732.521" transform="translate(-52.221 -0.519)" fill="#ba0220"/><path d="M157.551,21.779a6.736,6.736,0,0,1-2.106-5.2V3.8a1.652,1.652,0,0,0-.626-1.487,3.723,3.723,0,0,0-2-.414h-.458q-.214,0-.213-.429t.213-.43h8.608a.193.193,0,0,1,.2.107.878.878,0,0,1,.046.322q0,.429-.244.429h-.458a3.807,3.807,0,0,0-2.014.414,1.634,1.634,0,0,0-.641,1.487q0,5.794.015,7.909t.016,2.729v.8a10.754,10.754,0,0,0,1.16,5.181q1.16,2.147,4.517,2.146,3.632,0,4.93-2.023a9.692,9.692,0,0,0,1.3-5.3V4.35a2.182,2.182,0,0,0-.855-1.748,2.759,2.759,0,0,0-1.77-.7h-.458q-.214,0-.214-.429t.214-.43h7.417a.193.193,0,0,1,.2.107.867.867,0,0,1,.046.322q0,.429-.244.429h-.458a2.756,2.756,0,0,0-1.77.7,2.18,2.18,0,0,0-.855,1.748l-.061,11.772a7.792,7.792,0,0,1-1.923,5.549,7.158,7.158,0,0,1-5.494,2.054,8.539,8.539,0,0,1-6.013-1.947" transform="translate(-75.873 -0.518)" fill="#ba0220"/><path d="M225.838,18.239a2.179,2.179,0,0,1-.152.491q-1.008,2.545-1.527,4.047a.713.713,0,0,1-.732.521H207.036c-.142,0-.214-.142-.214-.429s.071-.429.214-.429h.488a3.51,3.51,0,0,0,2-.445,1.7,1.7,0,0,0,.626-1.487V3.83a1.658,1.658,0,0,0-.657-1.5,3.64,3.64,0,0,0-1.969-.429h-.488c-.142,0-.214-.142-.214-.429s.071-.429.214-.429h15.475a.771.771,0,0,1,.763.46q.519.89.977,1.748t.671,1.257a.348.348,0,0,1,.031.153q0,.153-.244.306a.427.427,0,0,1-.244.062.412.412,0,0,1-.305-.123,10.078,10.078,0,0,0-3.266-2.161,10.561,10.561,0,0,0-4.151-.813h-.763a13.059,13.059,0,0,0-1.923.107,1.882,1.882,0,0,0-1.068.506,1.773,1.773,0,0,0-.4,1.288V10.6a.644.644,0,0,0,.168.475.637.637,0,0,0,.473.169h2.106q1.861,0,2.441-.031a2.594,2.594,0,0,0,2-.859,3.07,3.07,0,0,0,.717-2.085q0-.214.4-.215a.855.855,0,0,1,.32.046.169.169,0,0,1,.107.168V15.3c0,.164-.142.245-.427.245-.265,0-.4-.081-.4-.245a3.072,3.072,0,0,0-.717-2.085,2.6,2.6,0,0,0-2-.858q-.58-.03-2.441-.031h-2.106a.585.585,0,0,0-.641.644v7.541a1.558,1.558,0,0,0,.641,1.441,4.215,4.215,0,0,0,1.984.46q.4.031,1.374.031.732,0,1.068-.031a9.185,9.185,0,0,0,3.236-.8,8.307,8.307,0,0,0,2.213-1.487,22.8,22.8,0,0,0,1.938-2.192.29.29,0,0,1,.244-.123.962.962,0,0,1,.275.062.36.36,0,0,1,.275.367" transform="translate(-103.137 -0.519)" fill="#ba0220"/></g></g><g transform="translate(20 2090.285)"><g transform="translate(0 0)" clip-path="url(#e)"><path d="M10.194,23.2,3.571,3.829A2.788,2.788,0,0,0,2.289,2.342,3.426,3.426,0,0,0,.732,1.9H.214Q0,1.9,0,1.469t.214-.43H8.73a.193.193,0,0,1,.2.107.878.878,0,0,1,.045.322q0,.429-.244.429H8.241a3.454,3.454,0,0,0-1.633.322,1.06,1.06,0,0,0-.6,1,2.608,2.608,0,0,0,.122.613l2.9,8.339,2.441,7.082c.122.287.264.43.428.43a.351.351,0,0,0,.244-.123.768.768,0,0,0,.183-.307Q16.756,6.465,17.4,4.381a3.014,3.014,0,0,0,.152-.951A1.294,1.294,0,0,0,17,2.25,2.32,2.32,0,0,0,15.719,1.9h-.488q-.214,0-.214-.429t.214-.43h7.234a.192.192,0,0,1,.2.107.865.865,0,0,1,.046.322q0,.429-.244.429h-.489a3.221,3.221,0,0,0-1.908.674A4.05,4.05,0,0,0,18.68,4.381q-.824,2.33-2.442,7.066t-3.174,9.366q-.366,1.012-.824,2.391a.714.714,0,0,1-.732.521h-.58a.714.714,0,0,1-.732-.521" transform="translate(0 -0.518)" fill="#ba0220"/><path d="M73.364,22.058a1.362,1.362,0,0,1,.031.291q0,.429-.183.429H64.544a.166.166,0,0,1-.168-.107,1.146,1.146,0,0,1,0-.644.167.167,0,0,1,.168-.108,5.261,5.261,0,0,0,2.014-.352,1.274,1.274,0,0,0,.854-1.272,2.06,2.06,0,0,0-.122-.705l-1.5-4.323a.715.715,0,0,0-.733-.521H57.737a.714.714,0,0,0-.732.521l-.519,1.441-.672,1.962a4.082,4.082,0,0,0-.274,1.349q0,1.9,2.9,1.9a.15.15,0,0,1,.153.138,1.363,1.363,0,0,1,.031.291q0,.429-.183.429H50.93a.167.167,0,0,1-.168-.107,1.146,1.146,0,0,1,0-.644.167.167,0,0,1,.168-.108,3.128,3.128,0,0,0,1.8-.644,4.518,4.518,0,0,0,1.5-2.115L61.094.858a1.009,1.009,0,0,1,.641-.613l.519-.153A1.241,1.241,0,0,1,62.681,0a.354.354,0,0,1,.244.061.366.366,0,0,1,.183.215l1.038,3.035q1.037,2.974,3.128,9.013t2.458,6.959a3.524,3.524,0,0,0,3.48,2.636.15.15,0,0,1,.152.138M57.828,13.121a.407.407,0,0,0,.152.337.663.663,0,0,0,.427.123h6.043q.58,0,.58-.491l-.061-.245L61.918,4.016a1.719,1.719,0,0,0-.305-.644q-.183-.214-.244-.061-1.709,4.507-3.479,9.534a.964.964,0,0,0-.061.276" transform="translate(-25.291 0)" fill="#ba0220"/><path d="M120.867,23.3H104.934a.167.167,0,0,1-.168-.107.857.857,0,0,1-.046-.322q0-.46.214-.46h.488a3.714,3.714,0,0,0,2.014-.414,1.668,1.668,0,0,0,.611-1.487V3.829a1.675,1.675,0,0,0-.641-1.5,3.626,3.626,0,0,0-1.984-.429h-.488q-.214,0-.214-.429t.214-.429H113.6a.192.192,0,0,1,.2.107.865.865,0,0,1,.046.322q0,.429-.244.429h-.458a3.593,3.593,0,0,0-2.015.445,1.68,1.68,0,0,0-.641,1.486V20.507a1.534,1.534,0,0,0,.626,1.426,4.425,4.425,0,0,0,2.03.445l.7.031,1.221-.031a7.749,7.749,0,0,0,4.365-1.242,12.9,12.9,0,0,0,3.083-3.173.276.276,0,0,1,.244-.153.7.7,0,0,1,.275.092c.162.082.244.184.244.307l-.031.153-.915,2.453-.733,1.962a.714.714,0,0,1-.732.521" transform="translate(-52.221 -0.519)" fill="#ba0220"/><path d="M157.551,21.779a6.736,6.736,0,0,1-2.106-5.2V3.8a1.652,1.652,0,0,0-.626-1.487,3.723,3.723,0,0,0-2-.414h-.458q-.214,0-.213-.429t.213-.43h8.608a.193.193,0,0,1,.2.107.878.878,0,0,1,.046.322q0,.429-.244.429h-.458a3.807,3.807,0,0,0-2.014.414,1.634,1.634,0,0,0-.641,1.487q0,5.794.015,7.909t.016,2.729v.8a10.754,10.754,0,0,0,1.16,5.181q1.16,2.147,4.517,2.146,3.632,0,4.93-2.023a9.692,9.692,0,0,0,1.3-5.3V4.35a2.182,2.182,0,0,0-.855-1.748,2.759,2.759,0,0,0-1.77-.7h-.458q-.214,0-.214-.429t.214-.43h7.417a.193.193,0,0,1,.2.107.867.867,0,0,1,.046.322q0,.429-.244.429h-.458a2.756,2.756,0,0,0-1.77.7,2.18,2.18,0,0,0-.855,1.748l-.061,11.772a7.792,7.792,0,0,1-1.923,5.549,7.158,7.158,0,0,1-5.494,2.054,8.539,8.539,0,0,1-6.013-1.947" transform="translate(-75.873 -0.518)" fill="#ba0220"/><path d="M225.838,18.239a2.179,2.179,0,0,1-.152.491q-1.008,2.545-1.527,4.047a.713.713,0,0,1-.732.521H207.036c-.142,0-.214-.142-.214-.429s.071-.429.214-.429h.488a3.51,3.51,0,0,0,2-.445,1.7,1.7,0,0,0,.626-1.487V3.83a1.658,1.658,0,0,0-.657-1.5,3.64,3.64,0,0,0-1.969-.429h-.488c-.142,0-.214-.142-.214-.429s.071-.429.214-.429h15.475a.771.771,0,0,1,.763.46q.519.89.977,1.748t.671,1.257a.348.348,0,0,1,.031.153q0,.153-.244.306a.427.427,0,0,1-.244.062.412.412,0,0,1-.305-.123,10.078,10.078,0,0,0-3.266-2.161,10.561,10.561,0,0,0-4.151-.813h-.763a13.059,13.059,0,0,0-1.923.107,1.882,1.882,0,0,0-1.068.506,1.773,1.773,0,0,0-.4,1.288V10.6a.644.644,0,0,0,.168.475.637.637,0,0,0,.473.169h2.106q1.861,0,2.441-.031a2.594,2.594,0,0,0,2-.859,3.07,3.07,0,0,0,.717-2.085q0-.214.4-.215a.855.855,0,0,1,.32.046.169.169,0,0,1,.107.168V15.3c0,.164-.142.245-.427.245-.265,0-.4-.081-.4-.245a3.072,3.072,0,0,0-.717-2.085,2.6,2.6,0,0,0-2-.858q-.58-.03-2.441-.031h-2.106a.585.585,0,0,0-.641.644v7.541a1.558,1.558,0,0,0,.641,1.441,4.215,4.215,0,0,0,1.984.46q.4.031,1.374.031.732,0,1.068-.031a9.185,9.185,0,0,0,3.236-.8,8.307,8.307,0,0,0,2.213-1.487,22.8,22.8,0,0,0,1.938-2.192.29.29,0,0,1,.244-.123.962.962,0,0,1,.275.062.36.36,0,0,1,.275.367" transform="translate(-103.137 -0.519)" fill="#ba0220"/></g></g></g></svg>