<svg xmlns="http://www.w3.org/2000/svg" width="402.072" height="953.407" viewBox="0 0 402.072 953.407">
  <g id="グループ_164" data-name="グループ 164" transform="translate(12080.359 6492.407) rotate(180)" opacity="0.2">
    <path id="パス_380" data-name="パス 380" d="M11913.617,5539v92.35h58.8V5539Z" fill="#bcbcbc"/>
    <path id="パス_381" data-name="パス 381" d="M11707.449,5578.434v28.1h42.748v-28.1Z"/>
    <path id="パス_382" data-name="パス 382" d="M11678.287,5759.154v73.892H11827.2v-73.892Z" fill="#bcbcbc"/>
    <path id="パス_383" data-name="パス 383" d="M11794.349,5710.352v76.414h54.127v-76.414Z" fill="#696969"/>
    <path id="パス_384" data-name="パス 384" d="M11975.825,5748.559v40.186h39.449v-40.186Z"/>
    <path id="パス_385" data-name="パス 385" d="M11698.982,5953.723v52.628h17.387v-52.628Z"/>
    <path id="パス_386" data-name="パス 386" d="M11836.084,5922.233v74.688h97.145v-74.688Z" fill="#696969"/>
    <path id="パス_387" data-name="パス 387" d="M11887.242,6069.6V5949.49h109.428V6069.6Z" fill="#bcbcbc"/>
    <path id="パス_390" data-name="パス 390" d="M11725.742,6291.651V6138.662h71.966v152.989Z" fill="#bcbcbc"/>
    <path id="パス_391" data-name="パス 391" d="M11964.234,6232.586v-37.8h56.234v37.8Z"/>
    <path id="パス_394" data-name="パス 394" d="M11875.972,6492.407v-66.5h90.707v66.5Z" fill="#696969"/>
    <path id="パス_395" data-name="パス 395" d="M11700.438,6468.844V6422.8h35.7v46.045Z"/>
    <path id="パス_393" data-name="パス 393" d="M11918.734,6460.024v-88.857h135.03v88.857Z" fill="#bcbcbc"/>
    <path id="パス_388" data-name="パス 388" d="M12015.959,6090.355h-112.372v-123.35h112.372Zm-110.372-2h108.372v-119.35h-108.372Z" fill="#707070"/>
    <path id="パス_389" data-name="パス 389" d="M11706.676,6123.094h77.293V6277.06h-77.293Zm75.293,2h-73.293V6275.06h73.293Z" fill="#707070"/>
    <path id="パス_392" data-name="パス 392" d="M12080.359,6444.715h-143.5v-96.189h143.5Zm-141.5-2h139.5v-92.189h-139.5Z" fill="#707070"/>
  </g>
</svg>
