<svg xmlns="http://www.w3.org/2000/svg" width="118.826" height="128.503" viewBox="0 0 118.826 128.503"><path d="M5.092,88.1h-2V56.186H24.017V84.345h-2V58.186H5.092Z" fill="#ba0220"/><path d="M36.342,82.926h-2V38.02H55.267V73.548h-2V40.02H36.342Z" fill="#ba0220"/><path d="M84.434,64.084h-2V24.437H65.509V64.084h-2V22.437H84.434Z" fill="#ba0220"/><path d="M116.1,70.121h-2V4.27H97.176V64.084h-2V2.27H116.1Z" fill="#ba0220"/><path d="M69.309,0l-.4,1.959,11.665,2.4L2.578,47.265l.963,1.752L86.3,3.492Z" fill="#ba0220"/><path d="M25.89,100.283l-11.633-.827L3.07,92.966l.452-.532h14.95l4.837-3.089h8.967L65.508,72.536V69.084H96.02l19.585,6.248-2.7,3.792L100.09,84.362l-5.217,6.425L87.492,93.8,34.23,97.374l-2.956,4.152L22.986,104.4ZM63.508,71.307,31.8,87.345H22.725l-4.836,3.089H2.6L0,93.5l13.653,7.921,8.561.609-4.446,6.3,14.764-5.125,2.777-3.9,52.64-3.529L96.1,92.444l5.216-6.424L114.2,80.755l4.628-6.5L96.479,67.131l-32.971-.047Z" fill="#ba0220"/><path d="M67.413,107.027l4.724-3.757H90.468L94.436,105l-4.561,6.4-17.952,7.338-6.807-6.662h-4.9L25.744,126.171l-9.9-9.135L53.86,103.581l2.246,3.446Zm-55.361,9.23L25.323,128.5l35.289-14.427H64.3l7.163,7.012,19.7-8.056,6.329-8.885-6.611-2.877H71.439l-4.725,3.756H57.19l-2.515-3.856Z" fill="#ba0220"/></svg>