<svg xmlns="http://www.w3.org/2000/svg" width="115.625" height="122.519" viewBox="0 0 115.625 122.519"><path d="M33.835,25.179,63.431,61.1H4.24ZM0,63.1H67.67L33.835,22.034Z" fill="#ba0220"/><path d="M30.041,96.1V88.563H15.17l-13.7-12.11V75.358L5.84,72.217h9.676L21.86,67.66h7.464l8.746-6.373L39.248,62.9,29.975,69.66H22.5l-6.343,4.557H6.484l-2.5,1.793L15.927,86.563H32.041v6.219L40.319,88.4V82.41h25.62l9.85-5.237h25.792l10.568-5.618v-9.1l-20.1-16.921H63.57l-7.133,5.542L55.21,49.5l7.674-5.963h29.9l21.366,17.991V72.757L102.08,79.173H76.287l-9.85,5.237H42.319V89.6Z" fill="#ba0220"/><path d="M63.953,87.909l.012.008.011-.008Z" fill="#ba0220"/><path d="M82.613,94.274V84.486h21.053l9.959,7.154v10.154l-18.014,9.577-12.284-8.825L50.3,120.1l-16.3-14.4L65.361,89.091l7.214,5.183Zm-2-11.788v9.787H73.219l-7.7-5.53-35,18.541,19.5,17.235L83.17,104.894l12.283,8.826L115.625,103V90.615l-11.314-8.129Z" fill="#ba0220"/><path d="M63.953,87.909l.012.008.011-.008Z" fill="#ba0220"/><path d="M34.836,2.922,52.085,9.617l-17.249,6.7ZM32.836,0V25h2v-6.54l22.777-8.84Z" fill="#ba0220"/><path d="M31.128,47.949l-9.581-9.581,1.414-1.414,8.167,8.167,5.512-5.512,5.46,5.46,4.543-4.543,1.414,1.414L42.1,47.9l-5.46-5.46Z" fill="#ba0220"/></svg>