<svg xmlns="http://www.w3.org/2000/svg" xmlns:xlink="http://www.w3.org/1999/xlink" width="145.667" height="96.156" viewBox="0 0 145.667 96.156"><defs><clipPath id="a"><rect width="145.667" height="96.156" transform="translate(0 0)" fill="none"/></clipPath></defs><path d="M70.711,76.259v-6.14H88.893l8.479,4.4v5.773l-15.515,5.96L71.191,80.716,37.144,93.925,23.7,85.336,55.611,72.994,61.9,76.259Zm-2-8.14v6.14H62.389l-5.15-2.674,1.377-.692h-2.71l-.174-.091-.234.091-5.534.005,2.475,1.178L19.291,84.9l17.631,11.26,34.15-13.248,10.662,5.535,17.638-6.775V73.305l-9.99-5.186ZM2.927,64.468l1.523-.791h8.4l5.507-2.859h6.483L53.993,45.685H78.811L96.09,56.2v5.125l-9.011,3.462H64.686L56.135,68.07H33.729v3.818l-6.923,2.65V70.676H12.648ZM53.505,43.685,24.353,58.818H17.87l-5.507,2.859h-8.4L.539,63.454,0,63.816v1.156l12.064,7.7H24.806v4.77L35.73,73.264V70.07H56.506l8.55-3.285H87.449L98.09,62.7V55.074L79.372,43.685Z" fill="#ba0220"/><path d="M104.723,53.948,92.735,45.237,87.369,28.722l5.366-16.514L106.783,2h17.366L138.2,12.208l5.366,16.514L138.2,45.237l-11.985,8.709-.036,6.01.03,17.961h-6.5l-7.638,2.539V77.917h-7.343ZM106.133,0l-15.1,10.971L85.266,28.722l5.768,17.751,11.689,8.494V79.916h7.343v1.912l.045,1h1.162l8.755-2.913h8.185l-.036-19.95.029-5,11.693-8.5,5.767-17.751L139.9,10.971,124.8,0Z" fill="#ba0220"/><path d="M26.111,66.629h-2v-51.6l-2.093,2-1.381-1.446,5.474-5.232Z" fill="#ba0220"/><path d="M44.589,92.894h-2V22.257l-2.092,2-1.382-1.445,5.474-5.233Z" fill="#ba0220"/><path d="M81.546,86.091h-2V22.258l-2.092,2-1.382-1.446,5.474-5.233Z" fill="#ba0220"/><path d="M62.9,66.629h-2v-51.6l-2.092,2-1.382-1.446L62.9,10.346Z" fill="#ba0220"/><g clip-path="url(#a)"><path d="M110.7,37.155l-8.906-8.907,1.414-1.414,7.492,7.493,7.659-7.659a2.841,2.841,0,0,1,4.011,0l6.777,6.777-1.414,1.414-6.777-6.777a.839.839,0,0,0-1.183,0Z" fill="#ba0220"/><rect width="33.833" height="2" transform="translate(99.129 61.035)" fill="#ba0220"/><rect width="33.833" height="2" transform="translate(99.129 68.119)" fill="#ba0220"/><rect width="22.687" height="2" transform="translate(104.523 54.091)" fill="#ba0220"/></g></svg>