<svg xmlns="http://www.w3.org/2000/svg" width="500.223" height="542.181" viewBox="0 0 500.223 542.181"><g transform="translate(-879.389 -4830.999)"><text transform="translate(917 4985.945)" fill="#ba0220" font-size="19" font-family="ShipporiMinchoB1-SemiBold, Shippori Mincho B1" font-weight="600"><tspan x="0" y="0">半導体</tspan></text><text transform="translate(907 5341.18)" fill="#ba0220" font-size="19" font-family="ShipporiMinchoB1-SemiBold, Shippori Mincho B1" font-weight="600"><tspan x="0" y="0">再生医療</tspan></text><text transform="translate(1091 4985.945)" fill="#ba0220" font-size="19" font-family="ShipporiMinchoB1-SemiBold, Shippori Mincho B1" font-weight="600"><tspan x="0" y="0">材料工学</tspan></text><text transform="translate(1117 5341.18)" fill="#ba0220" font-size="19" font-family="ShipporiMinchoB1-SemiBold, Shippori Mincho B1" font-weight="600"><tspan x="0" y="0">DX</tspan></text><text transform="translate(1267 4985.945)" fill="#ba0220" font-size="19" font-family="ShipporiMinchoB1-SemiBold, Shippori Mincho B1" font-weight="600"><tspan x="0" y="0">ゲノム編集</tspan></text><text transform="translate(1314 5341.18)" fill="#ba0220" font-size="19" font-family="ShipporiMinchoB1-SemiBold, Shippori Mincho B1" font-weight="600"><tspan x="-38" y="0">カーボン</tspan><tspan x="-57" y="27">ニュートラル</tspan></text><text transform="translate(1110 5182.719)" fill="#ba0220" font-size="19" font-family="ShipporiMinchoB1-SemiBold, Shippori Mincho B1" font-weight="600"><tspan x="0" y="0">創薬</tspan></text><g transform="translate(-569.152 384.961)"><path d="M599.25,102.024H585.257V57.211a22.781,22.781,0,0,1,22.756-22.756h10.273a9.17,9.17,0,0,1,9.159,9.158V73.83a28.226,28.226,0,0,1-28.2,28.194m-11.993-2H599.25a26.224,26.224,0,0,0,26.2-26.194V43.613a7.167,7.167,0,0,0-7.159-7.158H608.013a20.779,20.779,0,0,0-20.756,20.756Z" transform="translate(879.389 4812.452)" fill="#ba0220"/><path d="M604.03,76.852h-2V61.025l9.5-9.5H631.7v2H612.355l-8.325,8.325Z" transform="translate(879.389 4812.452)" fill="#ba0220"/><path d="M688.151,102.024H674.158A28.226,28.226,0,0,1,645.964,73.83V43.614a9.168,9.168,0,0,1,9.158-9.159H665.4a22.782,22.782,0,0,1,22.756,22.757ZM655.122,36.455a7.167,7.167,0,0,0-7.158,7.159V73.83a26.224,26.224,0,0,0,26.194,26.194h11.993V57.212A20.78,20.78,0,0,0,665.4,36.455Z" transform="translate(879.389 4812.452)" fill="#ba0220"/><path d="M662.312,76.323h-2v-15l-7.907-7.907L639.118,66.823H630.7V11.586h2V64.823h5.585L652.4,50.582l9.914,9.914Z" transform="translate(879.389 4812.452)" fill="#ba0220"/><rect width="2" height="53.104" transform="translate(1516.18 4824.038)" fill="#ba0220"/></g><g transform="translate(-231.852 212.326)"><path d="M463.755,101.449H429.088a6.446,6.446,0,0,1-6.438-6.439V23.765a14.613,14.613,0,0,1,14.6-14.6h46.446a5.538,5.538,0,0,1,5.532,5.532V78.267h-2V14.7a3.535,3.535,0,0,0-3.532-3.532H437.247a12.611,12.611,0,0,0-12.6,12.6V95.01a4.443,4.443,0,0,0,4.438,4.439h34.667Z" transform="translate(879.389 4812.452)" fill="#ba0220"/><path d="M443.685,37.9a6.969,6.969,0,1,1,6.97-6.969,6.977,6.977,0,0,1-6.97,6.969m0-11.939a4.969,4.969,0,1,0,4.97,4.97,4.976,4.976,0,0,0-4.97-4.97" transform="translate(879.389 4812.452)" fill="#ba0220"/><path d="M443.685,62.278a6.969,6.969,0,1,1,6.97-6.969,6.977,6.977,0,0,1-6.97,6.969m0-11.939a4.969,4.969,0,1,0,4.97,4.97,4.976,4.976,0,0,0-4.97-4.97" transform="translate(879.389 4812.452)" fill="#ba0220"/><path d="M443.685,86.653a6.97,6.97,0,1,1,6.97-6.97,6.978,6.978,0,0,1-6.97,6.97m0-11.94a4.97,4.97,0,1,0,4.97,4.97,4.976,4.976,0,0,0-4.97-4.97" transform="translate(879.389 4812.452)" fill="#ba0220"/><path d="M490.642,125.1a16.03,16.03,0,0,1-3.019-.289,15.791,15.791,0,0,1-10.163-6.691l-.879-1.3a15.918,15.918,0,0,1,4.235-22.082l33.166-22.489a15.9,15.9,0,0,1,22.081,4.236l.88,1.3a15.9,15.9,0,0,1-4.236,22.08l-33.166,22.49a15.79,15.79,0,0,1-8.891,2.743Zm32.233-53.591a13.8,13.8,0,0,0-7.77,2.4L481.938,96.4a13.914,13.914,0,0,0-3.7,19.3l.879,1.3A13.806,13.806,0,0,0,488,122.85a14.048,14.048,0,0,0,2.642.253h.008a13.8,13.8,0,0,0,7.769-2.4l33.165-22.489a13.9,13.9,0,0,0,3.7-19.3l-.88-1.3a13.808,13.808,0,0,0-8.884-5.849,14,14,0,0,0-2.648-.253" transform="translate(879.389 4812.452)" fill="#ba0220"/><path d="M490.64,125.094a15.9,15.9,0,0,1-13.18-6.971l-.88-1.3a15.918,15.918,0,0,1,4.235-22.082l11.56-7.838a15.917,15.917,0,0,1,22.081,4.235l.88,1.3a15.916,15.916,0,0,1-4.236,22.08l-11.56,7.839a15.8,15.8,0,0,1-8.9,2.734m10.637-38.922a13.822,13.822,0,0,0-7.779,2.39L481.938,96.4a13.915,13.915,0,0,0-3.7,19.3l.88,1.3a13.911,13.911,0,0,0,19.3,3.7l11.56-7.839a13.913,13.913,0,0,0,3.7-19.3l-.879-1.3a13.9,13.9,0,0,0-11.524-6.093" transform="translate(879.389 4812.452)" fill="#ba0220"/><path d="M513.507,60.09a14.856,14.856,0,1,1,14.857-14.857A14.873,14.873,0,0,1,513.507,60.09m0-27.713a12.857,12.857,0,1,0,12.857,12.856,12.872,12.872,0,0,0-12.857-12.856" transform="translate(879.389 4812.452)" fill="#ba0220"/><rect width="9.757" height="2" transform="matrix(0.707, -0.707, 0.707, 0.707, 1388.739, 4860.429)" fill="#ba0220"/><path d="M473.085,37.289H460.963V25.166h12.122Zm-10.122-2h8.122V27.166h-8.122Z" transform="translate(879.389 4812.452)" fill="#ba0220"/><path d="M473.085,60.706H460.963V48.584h12.122Zm-10.122-2h8.122V50.584h-8.122Z" transform="translate(879.389 4812.452)" fill="#ba0220"/><path d="M473.085,85.936H460.963V73.814h12.122Zm-10.122-2h8.122V75.814h-8.122Z" transform="translate(879.389 4812.452)" fill="#ba0220"/></g><g transform="translate(55.854 20.957)"><path d="M246.258,107.735H154.5A5.823,5.823,0,0,1,149.458,99l28.93-50.108a11.073,11.073,0,0,0,1.481-5.528V16.714h2V43.365a13.068,13.068,0,0,1-1.749,6.528L151.19,100a3.823,3.823,0,0,0,3.31,5.734h88.294l-32.24-55.842a13.069,13.069,0,0,1-1.75-6.528V16.714h2V43.365a11.074,11.074,0,0,0,1.482,5.528Z" transform="translate(879.389 4812.452)" fill="#ba0220"/><path d="M201.742,66.6l13.021,22.552a.267.267,0,0,1-.231.4H176.144a.267.267,0,0,1-.232-.4L188.933,66.6Zm1.155-2H187.778l-13.6,23.552a2.267,2.267,0,0,0,1.964,3.4h38.388a2.267,2.267,0,0,0,1.963-3.4Z" transform="translate(879.389 4812.452)" fill="#ba0220"/><path d="M194.281,77.895A2.685,2.685,0,1,1,191.6,75.21a2.685,2.685,0,0,1,2.685,2.685" transform="translate(879.389 4812.452)" fill="#fff"/><path d="M191.6,77.21a.685.685,0,1,1-.685.685.685.685,0,0,1,.685-.685m0-2a2.685,2.685,0,1,0,2.685,2.685A2.685,2.685,0,0,0,191.6,75.21" transform="translate(879.389 4812.452)" fill="#ba0220"/><path d="M208.812,67.445a6.636,6.636,0,1,1-6.637-6.637,6.636,6.636,0,0,1,6.637,6.637" transform="translate(879.389 4812.452)" fill="#fff"/><path d="M202.176,62.808a4.637,4.637,0,1,1-4.637,4.636,4.641,4.641,0,0,1,4.637-4.636m0-2a6.637,6.637,0,1,0,6.636,6.636,6.636,6.636,0,0,0-6.636-6.636" transform="translate(879.389 4812.452)" fill="#ba0220"/><rect width="11.124" height="11.124" transform="translate(1073.381 4818.043)" fill="#fff"/><path d="M203.115,14.714h-7.124V7.59h7.124Zm2-9.123H193.991V16.715h11.124Z" transform="translate(879.389 4812.452)" fill="#ba0220"/><rect width="6.1" height="6.1" transform="translate(1073.381 4834.511)" fill="#fff"/><path d="M198.092,26.158h-2.1v-2.1h2.1Zm2-4.1h-6.1v6.1h6.1Z" transform="translate(879.389 4812.452)" fill="#ba0220"/></g><g transform="translate(0 18.547)"><path d="M98.263,19.559V96.538H21.284V33.5A13.955,13.955,0,0,1,35.222,19.559Zm2-2H35.222A15.939,15.939,0,0,0,19.284,33.5v65.04h80.979Z" transform="translate(879.389 4812.452)" fill="#ba0220"/><path d="M76.809,40.56V77.05H40.319V49.438A8.888,8.888,0,0,1,49.2,40.56Zm2-2H49.2A10.878,10.878,0,0,0,38.319,49.438V79.05h40.49Z" transform="translate(879.389 4812.452)" fill="#ba0220"/><rect width="2" height="13.324" transform="translate(914.829 4812.452)" fill="#ba0220"/><rect width="2" height="13.324" transform="translate(930.384 4812.452)" fill="#ba0220"/><rect width="2" height="13.324" transform="translate(945.94 4812.452)" fill="#ba0220"/><rect width="2" height="13.324" transform="translate(961.496 4812.452)" fill="#ba0220"/><rect width="2" height="13.324" transform="translate(914.829 4918.674)" fill="#ba0220"/><rect width="2" height="13.324" transform="translate(930.384 4918.674)" fill="#ba0220"/><rect width="2" height="13.324" transform="translate(945.94 4918.674)" fill="#ba0220"/><rect width="2" height="13.324" transform="translate(961.496 4918.674)" fill="#ba0220"/><rect width="13.324" height="2" transform="translate(985.611 4847.892)" fill="#ba0220"/><rect width="13.324" height="2" transform="translate(985.611 4863.448)" fill="#ba0220"/><rect width="13.324" height="2" transform="translate(985.611 4879.003)" fill="#ba0220"/><rect width="13.324" height="2" transform="translate(985.611 4894.558)" fill="#ba0220"/><rect width="13.324" height="2" transform="translate(879.389 4847.892)" fill="#ba0220"/><rect width="13.324" height="2" transform="translate(879.389 4863.448)" fill="#ba0220"/><rect width="13.324" height="2" transform="translate(879.389 4879.003)" fill="#ba0220"/><rect width="13.324" height="2" transform="translate(879.389 4894.558)" fill="#ba0220"/></g><g transform="translate(105.49 12.727)"><rect width="2" height="15.427" transform="translate(1162.962 4896.068) rotate(-47.27)" fill="#ba0220"/><rect width="2" height="4.913" transform="matrix(0.678, -0.735, 0.735, 0.678, 1177.448, 4895.522)" fill="#ba0220"/><rect width="1.999" height="20.28" transform="translate(1152.001 4901.176) rotate(-47.27)" fill="#ba0220"/><rect width="1.999" height="15.536" transform="matrix(0.679, -0.735, 0.735, 0.679, 1200.801, 4884.032)" fill="#ba0220"/><rect width="2" height="4.913" transform="matrix(0.678, -0.735, 0.735, 0.678, 1215.056, 4852.807)" fill="#ba0220"/><rect width="1.999" height="20.28" transform="translate(1189.609 4858.461) rotate(-47.27)" fill="#ba0220"/><rect width="2" height="15.536" transform="matrix(0.679, -0.735, 0.735, 0.679, 1239.948, 4839.569)" fill="#ba0220"/><rect width="2" height="5.022" transform="matrix(0.678, -0.735, 0.735, 0.678, 1232.533, 4848.404)" fill="#ba0220"/><path d="M305.9,119.755l-1.5-1.326c3.9-4.4,5.594-10.525,4.76-17.235l-4.643-37.341c-.9-7.261.945-13.923,5.2-18.759l1.5,1.322c-3.874,4.4-5.55,10.505-4.719,17.19l4.643,37.341c.906,7.288-.958,13.968-5.248,18.808" transform="translate(879.389 4812.452)" fill="#ba0220"/><path d="M326.495,83.612c-.223,0-.447,0-.672-.008l.048-2c6.458.153,12.138-2.11,16-6.379,4-4.415,5.732-10.587,4.888-17.378L342.118,20.5l1.985-.247L348.745,57.6c.918,7.377-1,14.114-5.389,18.968a22.27,22.27,0,0,1-16.861,7.043" transform="translate(879.389 4812.452)" fill="#ba0220"/><rect width="1.999" height="17.558" transform="matrix(0.679, -0.735, 0.735, 0.679, 1170.589, 4918.346)" fill="#ba0220"/><rect width="2" height="13.109" transform="matrix(0.679, -0.735, 0.735, 0.679, 1177.986, 4909.945)" fill="#ba0220"/><rect width="2" height="13.109" transform="matrix(0.679, -0.735, 0.735, 0.679, 1215.594, 4867.23)" fill="#ba0220"/><rect width="2" height="5.721" transform="matrix(0.678, -0.735, 0.735, 0.678, 1185.755, 4882.992)" fill="#ba0220"/><rect width="2" height="15.427" transform="translate(1223.685 4824.352) rotate(-47.27)" fill="#ba0220"/><rect width="2" height="5.721" transform="translate(1226.486 4833.995) rotate(-47.274)" fill="#ba0220"/><path d="M277.259,93.05l-5.746-5.238.735-.741a21.824,21.824,0,0,1,13.439-6.217l.207,1.989a20.033,20.033,0,0,0-11.469,4.916l4.182,3.813Z" transform="translate(879.389 4812.452)" fill="#ba0220"/><path d="M326.495,83.612c-.223,0-.447,0-.672-.008l-36.74-.885a25.707,25.707,0,0,0-3.189.124l-.207-1.989a27.476,27.476,0,0,1,3.444-.134l36.74.885c6.458.153,12.138-2.11,16-6.379,4-4.415,5.732-10.587,4.888-17.378L342.118,20.5A26.034,26.034,0,0,1,342.9,9.821l1.917.57a24.058,24.058,0,0,0-.715,9.867L348.745,57.6c.918,7.377-1,14.114-5.389,18.968a22.27,22.27,0,0,1-16.861,7.043" transform="translate(879.389 4812.452)" fill="#ba0220"/><path d="M309.165,101.194l-4.643-37.341c-.917-7.378,1-14.114,5.39-18.968,4.26-4.707,10.479-7.208,17.533-7.036l36.74.886-.048,2L327.4,39.848c-6.453-.161-12.138,2.11-16,6.379-4,4.416-5.732,10.588-4.888,17.379l4.643,37.341Z" transform="translate(879.389 4812.452)" fill="#ba0220"/><path d="M364.818,40.742c-.226,0-.453,0-.682-.008l.049-2a23.036,23.036,0,0,0,8.072-1.193l-3.344-2.71,1.259-1.554,5.949,4.821-1.5.661a24.127,24.127,0,0,1-9.8,1.982" transform="translate(879.389 4812.452)" fill="#ba0220"/></g><g transform="translate(-529.023 370.98)"><path d="M822.958,105.808,796.417,76.367a9.356,9.356,0,0,1,.075-13.235l25-27.241,1.473,1.353-25,27.241a7.372,7.372,0,0,0-.063,10.543l26.54,29.441Z" transform="translate(879.389 4812.452)" fill="#ba0220"/><path d="M766.5,105.808l-1.485-1.339,26.54-29.441a7.372,7.372,0,0,0-.062-10.543l-25-27.241,1.473-1.353,25,27.241a9.355,9.355,0,0,1,.075,13.235Z" transform="translate(879.389 4812.452)" fill="#ba0220"/><path d="M739.515,106.139h-22.92V35.568h22.92a28.031,28.031,0,0,1,28,28V78.139a28.031,28.031,0,0,1-28,28m-20.92-2h20.92a26.029,26.029,0,0,0,26-26V63.568a26.029,26.029,0,0,0-26-26h-20.92Z" transform="translate(879.389 4812.452)" fill="#ba0220"/></g><g transform="translate(1311 376.672)"><path d="M981.127,101.5H866.511l-.231-.594a27.737,27.737,0,0,1-1.865-10.075c0-13.625,9.631-24.719,21.5-24.795,2.832-12.464,12.536-21.1,23.833-21.1a21.661,21.661,0,0,1,4.038.38c4.07.772,8.293-1.237,11.017-5.244,5.443-8.009,13.646-12.45,22.486-12.187,13.819.411,25.571,13.1,26.753,28.885a36.055,36.055,0,0,1-1.305,12.8c6.488,4.474,10.49,12.549,10.49,21.259a27.737,27.737,0,0,1-1.865,10.075ZM867.794,99.642h112.05a25.918,25.918,0,0,0,1.517-8.807c0-8.342-3.917-16.038-10.221-20.083l-.6-.383.211-.678a34.133,34.133,0,0,0,1.428-12.779c-1.112-14.848-12.072-26.78-24.951-27.163-8.2-.25-15.813,3.9-20.891,11.372-3.147,4.632-8.09,6.943-12.9,6.027a19.812,19.812,0,0,0-3.69-.346c-10.629,0-19.747,8.377-22.172,20.372l-.156.774-.952-.035c-.143-.005-.286-.011-.43-.011-10.894,0-19.757,10.288-19.757,22.933a25.918,25.918,0,0,0,1.517,8.807" transform="translate(-914.611 4812.452)" fill="#ba0220"/><path d="M944.008,96.917a18.375,18.375,0,1,1,18.376-18.376,18.4,18.4,0,0,1-18.376,18.376m0-34.889a16.513,16.513,0,1,0,16.513,16.513,16.532,16.532,0,0,0-16.513-16.513" transform="translate(-914.611 4812.452)" fill="#ba0220"/><path d="M908.624,96.916a18.376,18.376,0,1,1,14.606-29.5l-1.481,1.129a16.514,16.514,0,1,0,0,19.983l1.481,1.129a18.243,18.243,0,0,1-14.606,7.255" transform="translate(-914.611 4812.452)" fill="#ba0220"/><path d="M963.617,62.972H956.2v-.913c0-2.138,1.567-3.377,3.082-4.576.354-.28.668-.52.945-.733,1.466-1.123,1.538-1.219,1.538-2.057,0-1.086-.592-1.638-1.758-1.638-1.33,0-1.892.5-2.15,1.9l-1.8-.331a3.68,3.68,0,0,1,3.946-3.394,3.3,3.3,0,0,1,3.584,3.464c0,1.781-.753,2.358-2.253,3.507-.271.208-.577.442-.923.716a7.372,7.372,0,0,0-2.2,2.23h5.4Z" transform="translate(-914.611 4812.452)" fill="#ba0220"/></g></g></svg>