<svg xmlns="http://www.w3.org/2000/svg" width="231.831" height="229.355" viewBox="0 0 231.831 229.355"><g transform="translate(-492.975 -5809)"><g transform="translate(-14182.913 -3058.584)"><path d="M43.314,53.877H.5A2,2,0,0,1-.914,50.463L50.463-.914A2,2,0,0,1,53.877.5V43.314A10.575,10.575,0,0,1,43.314,53.877Zm-37.986-4H43.314a6.57,6.57,0,0,0,6.563-6.563V5.328Z" transform="translate(14725.305 8869.084)"/><path d="M154.63,138.465H9.063A10.575,10.575,0,0,1-1.5,127.9V8.563a2,2,0,0,1,4,0V127.9a6.57,6.57,0,0,0,6.563,6.563H154.63a6.57,6.57,0,0,0,6.563-6.563V59.94a2,2,0,0,1,4,0V127.9A10.575,10.575,0,0,1,154.63,138.465Z" transform="translate(14725.305 8930.063)"/><path d="M102.691,53.877a2,2,0,0,1-2-2V9.063A6.57,6.57,0,0,0,94.128,2.5H8.5a2,2,0,0,1,0-4H94.128A10.575,10.575,0,0,1,104.691,9.063V51.877A2,2,0,0,1,102.691,53.877Z" transform="translate(14785.809 8869.084)"/><path d="M9.138,116.1a2,2,0,0,1-1.821-2.828l15.139-33.3a2,2,0,0,1,.406-.586L95.517,6.723a2,2,0,0,1,1.414-.586h0a2,2,0,0,1,1.414.586l18.162,18.17a2,2,0,0,1,0,2.828L43.852,100.377a2,2,0,0,1-.587.406l-33.3,15.139A2,2,0,0,1,9.138,116.1ZM25.947,81.959,13.166,110.074,41.28,97.292l70.985-70.985L96.931,10.966Z" transform="translate(14790.626 8926.844)"/><path d="M16.828,19.571-1.411,1.418,1.411-1.418,19.65,16.736Z" transform="translate(14873.257 8949.216)"/><path d="M16.736,19.65-1.418,1.411,1.418-1.411,19.571,16.828Z" transform="translate(14814.855 9007.615)"/></g><g transform="translate(-457.799 -230.541)"><g transform="translate(170)"><path d="M816.63,6133.01s-20.562,2.428-21.371,3.724-13.762,11.981-13.762,11.981-1.133,105.722,0,106.045,4.371,6.961,4.371,6.961,93.579-.971,93.579-1.619.973-5.667,1.134-6.314-.161-104.912,0-105.074-10.362-10.686-10.362-10.686l-16.352-1.3-17.162-4.533Z" fill="#fff"/><path d="M165,133.058H66.965v-3.3c-.147-.915-.921-3.692-1.626-5.957l-.088-.283V17.837l.082-.274c.209-.7,5.538-16.854,48.26-17.537V.005L115.553,0l.432,0,2.392,0V.026c42.722.683,48.05,16.839,48.26,17.537l.082.274V123.518l-.088.283c-.7,2.265-1.478,5.042-1.626,5.957Zm-94.175-3.911H161.14a50.515,50.515,0,0,1,1.658-6.221V18.5c-.838-1.814-8.049-14.394-46.391-14.579l-.516,0-.33,0C77.22,4.1,70.009,16.682,69.171,18.5v104.43a50.511,50.511,0,0,1,1.658,6.221" transform="translate(716.021 6130)" fill="#726e6f"/><path d="M165.5,133.558H66.465V129.8c-.147-.859-.859-3.457-1.6-5.85l-.11-.356V17.764l.1-.344c.143-.477,1.591-4.773,8.4-9.055A50.67,50.67,0,0,1,87.938,2.471,114.447,114.447,0,0,1,113.093-.466V-.493L115.551-.5l.436,0,2.889,0v.035a114.447,114.447,0,0,1,25.155,2.936,50.671,50.671,0,0,1,14.683,5.895c6.81,4.281,8.258,8.578,8.4,9.054l.1.345v105.83l-.11.355c-.745,2.393-1.456,4.991-1.6,5.85Zm-98.038-1H164.5v-2.84l.006-.04c.157-.972.958-3.827,1.642-6.026l.065-.21V17.91l-.061-.2c-.052-.174-1.362-4.336-7.975-8.493A49.687,49.687,0,0,0,143.79,3.441,114.233,114.233,0,0,0,118.368.526l-.492-.008V.5l-1.891,0-.435,0-1.457,0V.518L113.6.526A114.233,114.233,0,0,0,88.18,3.441,49.686,49.686,0,0,0,73.787,9.212c-6.612,4.157-7.922,8.319-7.975,8.494l-.06.2V123.442l.065.211c.684,2.2,1.485,5.053,1.642,6.025l.006.039Zm94.1-2.911H70.4l-.066-.423a51.266,51.266,0,0,0-1.641-6.15L68.671,123V18.386l.046-.1c.48-1.04,2.574-4.7,9.359-8.137a56,56,0,0,1,14.08-4.622,122.275,122.275,0,0,1,23.4-2.111l.335,0,.516,0a122.28,122.28,0,0,1,23.4,2.111,56.006,56.006,0,0,1,14.08,4.622c6.785,3.438,8.879,7.1,9.359,8.137l.046.1V123l-.022.072a51.271,51.271,0,0,0-1.641,6.15Zm-90.319-1H160.72c.233-1.222.741-3.087,1.578-5.8V18.609a11.331,11.331,0,0,0-2.069-2.782,25.369,25.369,0,0,0-6.788-4.785,55.02,55.02,0,0,0-13.827-4.534A121.288,121.288,0,0,0,116.4,4.417l-.514,0-.326,0a121.289,121.289,0,0,0-23.21,2.091,55.019,55.019,0,0,0-13.826,4.534,25.369,25.369,0,0,0-6.788,4.785,11.331,11.331,0,0,0-2.069,2.782V122.851C70.508,125.56,71.016,127.425,71.249,128.647Z" transform="translate(716.021 6130)"/><path d="M152.2,99.337H83.694l-.582-.63c-.355-.385-8.705-9.658-8.705-29.833V46.038c-.2-1.9-1.145-16.712,18.515-21.132.665-.171,7.465-1.787,24.975-1.794h.1c17.511.006,24.31,1.623,24.975,1.794,19.661,4.42,18.72,19.237,18.515,21.132V68.873c0,20.175-8.35,29.448-8.7,29.833ZM85.494,95.425H150.4c1.7-2.287,7.167-10.846,7.167-26.552l.024-23.255c.079-.522,1.754-13.035-15.51-16.9l-.073-.019c-.135-.034-6.678-1.666-24.013-1.672l-.1-1.956v1.956c-17.431.006-23.951,1.657-24.015,1.673C76.548,32.583,78.223,45.1,78.3,45.627l.023.3V68.873c0,15.7,5.457,24.256,7.168,26.552" transform="translate(714.058 6124.967)" fill="#726e6f"/><path d="M152.421,99.837H83.476l-.731-.791a28.7,28.7,0,0,1-4.577-7.635,48.613,48.613,0,0,1-2.94-9.315,63.852,63.852,0,0,1-1.321-13.222V46.064a17.181,17.181,0,0,1,.045-3.561A18.785,18.785,0,0,1,81.4,29.408a29.206,29.206,0,0,1,11.4-4.989c.757-.193,7.585-1.8,25.092-1.807h.1c17.5.006,24.334,1.614,25.092,1.807a29.206,29.206,0,0,1,11.4,4.989A18.783,18.783,0,0,1,161.944,42.5a17.154,17.154,0,0,1,.044,3.561V68.873A63.857,63.857,0,0,1,160.668,82.1a48.615,48.615,0,0,1-2.94,9.315,28.7,28.7,0,0,1-4.576,7.635Zm-68.507-1h68.07l.434-.47c.35-.379,8.572-9.519,8.572-29.494V46.011l0-.027a17.82,17.82,0,0,0-7.1-15.781,28.227,28.227,0,0,0-11.022-4.81l-.014,0c-.708-.181-7.417-1.772-24.851-1.778h-.1c-17.443.006-24.144,1.6-24.851,1.778l-.015,0A28.227,28.227,0,0,0,82.009,30.2,17.822,17.822,0,0,0,74.9,45.984l0,.027V68.873c0,19.973,8.223,29.115,8.573,29.494Zm66.741-2.911H85.243l-.15-.2a32.611,32.611,0,0,1-4.3-8.38,54.547,54.547,0,0,1-2.972-18.471V45.947l-.02-.264a13.9,13.9,0,0,1,1.3-7.476,15.389,15.389,0,0,1,4.712-5.7,25.638,25.638,0,0,1,9.945-4.3c.364-.092,6.79-1.65,23.631-1.686V25.068l1-.026.075,1.482c17,.035,23.4,1.619,23.662,1.687l.066.017a25.448,25.448,0,0,1,9.9,4.288,15.343,15.343,0,0,1,4.691,5.692,13.918,13.918,0,0,1,1.3,7.446l-.024,23.219A54.552,54.552,0,0,1,155.1,87.351a32.6,32.6,0,0,1-4.292,8.373Zm-64.906-1h64.4c1.809-2.5,6.92-10.929,6.92-26.052l.024-23.293.006-.037a13.011,13.011,0,0,0-1.209-6.909,14.354,14.354,0,0,0-4.391-5.322,24.474,24.474,0,0,0-9.525-4.11l-.088-.022a45.3,45.3,0,0,0-5.485-.834,174.789,174.789,0,0,0-18.4-.823h-.1a174.286,174.286,0,0,0-18.462.829,45.017,45.017,0,0,0-5.429.828l-.014,0C77.1,32.97,78.72,45.041,78.8,45.553l0,.037.024.338V68.873C78.826,83.995,83.938,92.422,85.747,94.925Z" transform="translate(714.058 6124.967)"/><path d="M99.736,137.446l-.163-.327H81.887V124.445l10.927.018c3.777.519,10.17,2.823,10.17,8.17,0,2.455,0,4.077-1.721,4.467Zm-13.93-4.238H99.061c0-.171,0-.362,0-.575,0-2.664-4.8-3.986-6.662-4.277h-6.6Z" transform="translate(712.426 6102.901)" fill="#726e6f"/><path d="M99.464,138.02l-.2-.4H81.387V123.944l11.462.019.033,0c3.938.541,10.6,2.974,10.6,8.665a12.48,12.48,0,0,1-.234,3.144,2.37,2.37,0,0,1-1.877,1.811Zm-17.077-1.4h17.5l.126.253,1.143-.259c1.278-.29,1.332-1.43,1.332-3.98,0-2.19-1.156-4.031-3.436-5.473a16.59,16.59,0,0,0-6.269-2.2l-10.392-.017Zm17.17-2.911H85.306v-5.851h7.135l.038.006a15.769,15.769,0,0,1,4.172,1.293c1.906.931,2.913,2.134,2.913,3.478,0,.214,0,.407,0,.58Zm-13.25-1H98.564q0-.037,0-.075c0-1.182-1.279-2.055-2.352-2.579a14.941,14.941,0,0,0-3.849-1.2H86.306Z" transform="translate(712.426 6102.901)"/><path d="M154.435,137.416l-1.567-.316c-1.721-.39-1.721-2.013-1.721-4.467,0-5.347,6.392-7.651,10.17-8.17l.267-.018h10.66v12.674H154.578Zm.634-4.208h13.255v-4.851h-6.6c-1.857.289-6.661,1.611-6.661,4.277,0,.213,0,.4,0,.575" transform="translate(697.455 6102.901)" fill="#726e6f"/><path d="M154.718,137.983l-1.96-.4a2.37,2.37,0,0,1-1.877-1.811,12.479,12.479,0,0,1-.234-3.144c0-5.691,6.664-8.124,10.6-8.665l.034,0,.3-.019h11.16v13.674H154.893Zm-1.744-1.372,1.179.238.11-.23h17.48V124.945H161.6l-.233.016a16.594,16.594,0,0,0-6.285,2.2c-2.28,1.442-3.436,3.283-3.436,5.473C151.647,135.179,151.7,136.319,152.973,136.611Zm15.851-2.9H154.574l0-.5c0-.173,0-.365,0-.579,0-1.344,1.008-2.547,2.915-3.478a15.772,15.772,0,0,1,4.169-1.292l.038-.006h7.136Zm-13.258-1h12.258v-3.851h-6.058a14.943,14.943,0,0,0-3.847,1.2c-1.074.524-2.354,1.4-2.354,2.58Q155.566,132.671,155.566,132.708Z" transform="translate(697.455 6102.901)"/><path d="M160.07,165.36H76.962V163.4a15.085,15.085,0,0,1,15.1-15.067h52.914a15.085,15.085,0,0,1,15.1,15.067Zm-79.017-3.911h74.926a11.176,11.176,0,0,0-11.006-9.2H92.059a11.176,11.176,0,0,0-11.006,9.2" transform="translate(713.49 6097.698)" fill="#726e6f"/><path d="M160.57,165.86H76.462V163.4a15.585,15.585,0,0,1,15.6-15.567h52.914a15.585,15.585,0,0,1,15.6,15.567Zm-83.108-1H159.57V163.4a14.585,14.585,0,0,0-14.6-14.567H92.059a14.585,14.585,0,0,0-14.6,14.567Zm79.114-2.911H80.457l.1-.587a11.676,11.676,0,0,1,11.5-9.613h52.914a11.676,11.676,0,0,1,11.5,9.613Zm-74.909-1h73.7a10.679,10.679,0,0,0-10.392-8.2H92.059a10.679,10.679,0,0,0-10.392,8.2Z" transform="translate(713.49 6097.698)"/><path d="M82.838.5H0v-1H82.838Z" transform="translate(790.842 6173.137)"/><rect width="82.838" height="1.586" transform="translate(790.842 6172.343)" fill="#726e6f"/><path d="M-.5-.5H83.338V2.086H-.5ZM82.338.5H.5v.586H82.338Z" transform="translate(790.842 6172.343)"/><rect width="3.919" height="7.294" transform="translate(798.779 6261.103)" fill="#726e6f"/><path d="M-.5-.5H4.419V7.794H-.5ZM3.419.5H.5V6.794H3.419Z" transform="translate(798.779 6261.103)"/><rect width="3.919" height="7.294" transform="translate(861.942 6261.103)" fill="#726e6f"/><path d="M-.5-.5H4.419V7.794H-.5ZM3.419.5H.5V6.794H3.419Z" transform="translate(861.942 6261.103)"/></g></g></g></svg>