<svg xmlns="http://www.w3.org/2000/svg" xmlns:xlink="http://www.w3.org/1999/xlink" width="231.331" height="228.857" viewBox="0 0 231.331 228.857"><defs><clipPath id="a"><rect width="231.331" height="228.857" fill="none"/></clipPath></defs><g clip-path="url(#a)"><path d="M49.418,55.377H92.232a10.576,10.576,0,0,0,10.563-10.563V2A2,2,0,0,0,99.381.586L48,51.963a2,2,0,0,0,1.414,3.414M98.795,6.828V44.814a6.57,6.57,0,0,1-6.563,6.563H54.246Z"/><path d="M117.922,4H203.55a6.57,6.57,0,0,1,6.563,6.563V53.377a2,2,0,0,0,4,0V10.563A10.576,10.576,0,0,0,203.55,0H117.922a2,2,0,0,0,0,4"/><path d="M230.746,84.153l-18.162-18.17a2,2,0,0,0-2.828,0L137.1,138.646a2,2,0,0,0-.406.586l-15.139,33.3a2,2,0,0,0,2.648,2.65l33.3-15.139a2,2,0,0,0,.587-.406l72.655-72.656a2,2,0,0,0,0-2.828m-91.613,59.382,14.025,14.09L127.4,169.334Zm17.5,11.907-15.3-15.369,55.575-55.582,15.372,15.3Zm58.479-58.479-15.373-15.3L211.17,70.226,226.5,85.567Z"/><path d="M212.111,120.42a2,2,0,0,0-2,2v67.96a6.57,6.57,0,0,1-6.563,6.563H101.468V108.3l-.082-.274c-.21-.7-5.538-16.854-48.26-17.537v-.026H51.418V71.043a2,2,0,0,0-4,0V90.511C5.561,91.414.29,107.327.082,108.022L0,108.3V213.977l.088.283c.7,2.265,1.479,5.042,1.626,5.957v3.3H17.507v5.34h3.919v-5.34H80.67v5.34h3.919v-5.34h15.16v-3.3c.148-.915.926-3.692,1.626-5.957l.088-.283V200.945h102.08a10.575,10.575,0,0,0,10.563-10.565V122.42a2,2,0,0,0-2-2M13.271,219.6a11.176,11.176,0,0,1,11.006-9.2H77.191A11.176,11.176,0,0,1,88.2,219.6Zm84.276-6.22a50.591,50.591,0,0,0-1.658,6.221H92.152a15.078,15.078,0,0,0-14.958-13.117H24.28A15.076,15.076,0,0,0,9.323,219.606H5.577a50.574,50.574,0,0,0-1.657-6.217V108.959c.838-1.818,8.049-14.4,46.39-14.579h.846c38.342.185,45.553,12.765,46.391,14.579Z"/><path d="M75.758,110.332c-.665-.171-7.464-1.788-24.975-1.794h-.1c-17.51.007-24.31,1.623-24.975,1.794-19.66,4.42-18.715,19.232-18.515,21.132V154.3c0,20.175,8.35,29.448,8.7,29.833l.582.63H84.986l.587-.631c.35-.385,8.7-9.658,8.7-29.833V131.464c.2-1.9,1.146-16.712-18.515-21.132m7.428,70.519H18.277c-1.711-2.3-7.168-10.852-7.168-26.552V134.387H90.374L90.353,154.3c0,15.706-5.467,24.265-7.167,26.552m7.191-49.807V132.8H11.109v-1.448l-.023-.3c-.077-.527-1.752-13.044,15.58-16.927.064-.016,6.584-1.667,24.015-1.673h.1c17.335.006,23.878,1.638,24.013,1.672l.073.019c17.264,3.865,15.589,16.378,15.51,16.9"/><path d="M32.333,200.478l.084-.019c1.721-.39,1.721-2.012,1.721-4.467,0-5.347-6.393-7.651-10.17-8.17L13.041,187.8v12.674Zm-15.379-8.763h6.6c1.862.291,6.662,1.613,6.662,4.277v.575H16.96Z"/><path d="M77.767,187.8l-.267.018c-3.778.519-10.17,2.823-10.17,8.17,0,2.454,0,4.077,1.721,4.467l.094.019H88.427V187.8Zm6.74,8.763H71.246v-.575c0-2.666,4.8-3.988,6.661-4.277h6.6Z"/></g></svg>