<svg xmlns="http://www.w3.org/2000/svg" xmlns:xlink="http://www.w3.org/1999/xlink" width="203.373" height="153.956" viewBox="0 0 203.373 153.956"><defs><clipPath id="a"><rect width="203.373" height="122.487" fill="none"/></clipPath><clipPath id="b"><rect width="62.684" height="22.167" fill="none"/></clipPath><clipPath id="c"><rect width="93.078" height="21.473" fill="none"/></clipPath></defs><g transform="translate(-368 -6324)"><g transform="translate(368 6355.469)"><g clip-path="url(#a)"><path d="M264.813,83.088a6.817,6.817,0,1,1,6.816-6.817,6.825,6.825,0,0,1-6.816,6.817m0-10.221a3.4,3.4,0,1,0,3.4,3.4,3.407,3.407,0,0,0-3.4-3.4" transform="translate(-81.87 -22.04)"/><path d="M269.47,136.708l-3.4-.252,1.618-21.872h1.584a3.26,3.26,0,0,0,3.256-3.255V97.571a2.422,2.422,0,0,0-2.419-2.42H251.02V91.738H270.1a5.84,5.84,0,0,1,5.833,5.833v13.757a6.679,6.679,0,0,1-5.068,6.474Z" transform="translate(-79.656 -29.111)"/><path d="M215.918,83.088a6.817,6.817,0,1,1,6.816-6.817,6.825,6.825,0,0,1-6.816,6.817m0-10.221a3.4,3.4,0,1,0,3.4,3.4,3.407,3.407,0,0,0-3.4-3.4" transform="translate(-66.354 -22.04)"/><path d="M206.017,136.708l-1.4-18.905a6.681,6.681,0,0,1-5.069-6.474V97.571a5.84,5.84,0,0,1,5.833-5.833h19.085v3.413H205.382a2.422,2.422,0,0,0-2.419,2.42v13.757a3.258,3.258,0,0,0,3.254,3.254H207.8l1.619,21.873Z" transform="translate(-63.323 -29.111)"/><path d="M240.366,97.82A6.817,6.817,0,1,1,247.182,91a6.825,6.825,0,0,1-6.816,6.817m0-10.221a3.4,3.4,0,1,0,3.4,3.4,3.407,3.407,0,0,0-3.4-3.4" transform="translate(-74.112 -26.715)"/><path d="M230.627,154.675l-1.412-22.136a6.68,6.68,0,0,1-5.087-6.479V112.3a5.839,5.839,0,0,1,5.833-5.833h14.92a5.84,5.84,0,0,1,5.833,5.833V126.06a6.68,6.68,0,0,1-5.053,6.47l-1.413,22.144-3.407-.217,1.6-25.142h1.6a3.26,3.26,0,0,0,3.256-3.255V112.3a2.422,2.422,0,0,0-2.419-2.419h-14.92a2.422,2.422,0,0,0-2.419,2.419V126.06a3.258,3.258,0,0,0,3.254,3.254h1.6l.135,1.6,1.5,23.546Z" transform="translate(-71.122 -33.786)"/><path d="M18.259,83.851a7.207,7.207,0,1,1,7.206-7.206,7.215,7.215,0,0,1-7.206,7.206m0-11a3.793,3.793,0,1,0,3.793,3.794,3.8,3.8,0,0,0-3.793-3.794" transform="translate(-3.507 -22.035)"/><path d="M152.127,116.122H66.744v-2.88c-.128-.8-.8-3.222-1.416-5.2l-.076-.247V15.566l.071-.239c.182-.609,4.823-14.709,42.03-15.3V0l1.707,0,.376,0,2.083,0V.023c37.207.6,41.848,14.7,42.03,15.3l.071.239V107.8l-.076.247c-.614,1.976-1.288,4.4-1.416,5.2Zm-82.018-3.413h78.653a44.154,44.154,0,0,1,1.444-5.429V16.142c-.73-1.583-7.01-12.562-40.4-12.724l-.449,0-.287,0C75.675,3.58,69.4,14.559,68.665,16.142v91.137a44.156,44.156,0,0,1,1.444,5.429" transform="translate(-20.706)"/><path d="M142.15,89.634H82.486l-.507-.55c-.309-.336-7.582-8.429-7.582-26.036V43.12c-.178-1.654-1-14.585,16.125-18.442.579-.149,6.5-1.56,21.751-1.565h.089c15.25.005,21.172,1.417,21.751,1.565,17.123,3.858,16.3,16.788,16.125,18.442V63.048c0,17.607-7.272,25.7-7.581,26.036Zm-58.1-3.413h56.53c1.484-2,6.242-9.465,6.242-23.173l.021-20.3c.069-.455,1.528-11.376-13.508-14.752l-.063-.016c-.117-.03-5.816-1.454-20.914-1.46l-.087-1.707v1.707c-15.181.005-20.859,1.446-20.915,1.46C76.262,31.377,77.721,42.3,77.791,42.761l.02.262V63.048c0,13.7,4.753,21.168,6.243,23.173" transform="translate(-23.589 -7.334)"/><path d="M97.432,135.791l-.142-.285h-15.4V124.445l9.516.016c3.29.453,8.857,2.464,8.857,7.13,0,2.142,0,3.558-1.5,3.9Zm-12.132-3.7H96.844c0-.15,0-.316,0-.5,0-2.324-4.18-3.479-5.8-3.732H85.3Z" transform="translate(-25.985 -39.49)"/><path d="M154.011,135.765l-1.365-.276c-1.5-.341-1.5-1.757-1.5-3.9,0-4.666,5.567-6.677,8.857-7.13l.233-.016h9.284v11.061H154.135Zm.552-3.673h11.544v-4.234h-5.745c-1.617.253-5.8,1.406-5.8,3.732,0,.186,0,.352,0,.5" transform="translate(-47.963 -39.49)"/><path d="M149.342,163.194H76.962v-1.707A13.149,13.149,0,0,1,90.11,148.338h46.084a13.149,13.149,0,0,1,13.148,13.149ZM80.525,159.78h65.254a9.739,9.739,0,0,0-9.585-8.029H90.11a9.739,9.739,0,0,0-9.585,8.029" transform="translate(-24.422 -47.072)"/><line x2="72.145" transform="translate(52.879 37.646)" fill="#fff"/><rect width="72.145" height="1.384" transform="translate(52.879 36.954)"/><rect width="3.413" height="6.365" transform="translate(59.792 114.415)"/><rect width="3.413" height="6.365" transform="translate(114.801 114.415)"/><path d="M21.9,137.929l-3.4-.312,3.379-36.773.182-.32c.061-.106.094-.157.118-.213L36,65.421a1.65,1.65,0,0,0-3.068-1.214l-8.673,21.9H7.418a4.01,4.01,0,0,0-4,4v15.415a3.4,3.4,0,0,0,3.4,3.4H8.367L11,137.617l-3.4.312L5.236,112.155A6.823,6.823,0,0,1,0,105.527V90.113a7.427,7.427,0,0,1,7.418-7.418H21.936L29.755,62.95a5.063,5.063,0,0,1,9.415,3.729L25.351,101.573c-.044.111-.092.214-.139.3Z" transform="translate(0 -18.96)"/><rect width="201.496" height="3.413" transform="translate(1.877 119.073)"/></g></g><g transform="translate(3.149 500)"><g transform="translate(374.85 5824)"><path d="M11.253,5.55l2.69,7.28H8.548ZM8.718,0,0,22.167H5.07l1.9-5.225h8.548l1.9,5.225h5.07L13.773,0Z" transform="translate(0 0)"/><g transform="translate(0 0)"><g clip-path="url(#b)"><path d="M40.505,0h9.816a7.472,7.472,0,0,1,5.448,2.11,6.955,6.955,0,0,1,2.157,5.171,7.282,7.282,0,0,1-.418,2.488,6.59,6.59,0,0,1-.981,1.87,9.113,9.113,0,0,1-1.152,1.221,4.339,4.339,0,0,1-1,.7l-.4.216,4.746,8.394h-5.07l-4.266-7.76H45.266v7.76H40.505ZM52.322,5.132a2.935,2.935,0,0,0-2.156-.85h-4.9V10.14h4.9a2.981,2.981,0,0,0,2.156-.827,2.714,2.714,0,0,0,.858-2.032,2.9,2.9,0,0,0-.858-2.149" transform="translate(-14.859 0)"/><path d="M88.918,0V4.282H82.6V22.167H77.85V4.282H71.512V0Z" transform="translate(-26.233 0)"/></g></g></g><g transform="translate(466.5 5825)"><path d="M0,.732V4.711H5.889V21.329H10.3V4.711h5.874V.732Z" transform="translate(0 -0.301)"/><g transform="translate(0 0)"><g clip-path="url(#c)"><path d="M32.221,3.146A10.964,10.964,0,0,1,40.164,0a10.964,10.964,0,0,1,7.943,3.146,10.186,10.186,0,0,1,3.239,7.583,10.212,10.212,0,0,1-3.239,7.592,10.953,10.953,0,0,1-7.943,3.152,10.953,10.953,0,0,1-7.942-3.152,10.212,10.212,0,0,1-3.239-7.592,10.186,10.186,0,0,1,3.239-7.583m3.253,12.4a6.606,6.606,0,0,0,9.379,0,6.582,6.582,0,0,0,1.925-4.8,6.608,6.608,0,0,0-1.925-4.812,6.589,6.589,0,0,0-9.379,0,6.607,6.607,0,0,0-1.924,4.812,6.581,6.581,0,0,0,1.924,4.8" transform="translate(-11.931 0)"/><path d="M86.837.732,91.1,14.852,95.369.732h4.711l-6.765,20.6H89.193L84.783,7.5,80.374,21.33H76.252L69.486.732H74.2l4.266,14.119L82.73.732Z" transform="translate(-28.606 -0.302)"/><path d="M145.345.732v20.6h-3.821L131.384,8.245V21.33H126.96V.732H130.8l10.14,13.1V.732Z" transform="translate(-52.267 -0.302)"/></g></g></g><g transform="translate(-4 2.15)"><path d="M-2556.4,5842.221l-17.868-17.868.707-.707,17.868,17.868Z" transform="translate(3021)"/><path d="M-2573.563,5842.221l-.707-.707,17.868-17.868.707.707Z" transform="translate(3021)"/></g></g></g></svg>