<svg xmlns="http://www.w3.org/2000/svg" width="452.557" height="348.462" viewBox="0 0 452.557 348.462"><g transform="translate(-48.442 -14.773)"><rect width="25.592" height="138.071" transform="translate(262.362 14.773)" fill="#fff"/><path d="M250.461,124.771a44.326,44.326,0,0,0,16.165,10.271,61.254,61.254,0,0,0,21.385,3.537h7.65c14.481,0,25.931-4.041,34.519-11.787,8.42-7.914,13.472-18.354,15.155-31.656H319.083c-1.459,6.991-4.287,10.515-6.472,12.609-1.6,1.424-5.993,4.925-16.95,4.925h-7.65a35.646,35.646,0,0,1-12.429-1.939,18.381,18.381,0,0,1-6.8-4.28,18.7,18.7,0,0,1-4.359-7.014,33.813,33.813,0,0,1-1.86-11.878V50.684a33.823,33.823,0,0,1,1.86-11.879,19.179,19.179,0,0,1,4.361-6.845,18.325,18.325,0,0,1,6.8-4.111,35.6,35.6,0,0,1,12.428-1.939h7.65c12.116,0,16.142,3.711,17.466,4.931l.1.094.1.092c2.148,1.938,5,5.412,6.079,13.091H345.5c-1.178-13.808-6.23-24.585-14.818-32.331C322.1,3.873,310.478,0,295.661,0h-7.65a61.255,61.255,0,0,0-21.385,3.536,44,44,0,0,0-16.165,10.1,45.108,45.108,0,0,0-10.272,16,59.339,59.339,0,0,0-3.536,21.048V87.558a59.339,59.339,0,0,0,3.536,21.048,44.345,44.345,0,0,0,10.272,16.165" transform="translate(68.294 14.773)" fill="#fff"/><path d="M108.668,77.513h53.715v60.558h25.592V0H162.383V51.921H108.668V0H83.076V138.071h25.592Z" transform="translate(55.411 14.774)" fill="#fff"/><path d="M121.779,311.041c51.411,37.53,103.438,17.975,103.438,17.975C143.551,310.975,0,171.078,0,171.078S70.366,273.512,121.779,311.041" transform="translate(48.442 29.127)" fill="#fff"/><path d="M292.964,289.246s-52.26.384-147.645-43.612S0,171.078,0,171.078s139.671,103.071,178.945,121c69.382,33.2,114.018-2.827,114.018-2.827" transform="translate(48.442 29.127)" fill="#fff"/><path d="M371.471,228.846C255.042,248.908,0,171.078,0,171.078c25.379,10.528,189.517,81.953,257.228,93.014,85.488,13.966,114.244-35.246,114.244-35.246" transform="translate(48.442 29.127)" fill="#fff"/><path d="M452.557,146.284A259.559,259.559,0,0,1,426,155.215a62.188,62.188,0,0,1-39.392-1.939,285.8,285.8,0,0,1-45.44-22.64l-1.348-.827-1.349.827c-32.6,19.975-76.47,30.977-123.537,30.977s-90.942-11-123.538-30.977l-1.348-.827-1.348.827c-21.692,13.292-52.743,28.521-88.7,35,1.148,0,28.845-.432,53.483-10.974a294.957,294.957,0,0,0,36.566-18.811c33.25,19.947,77.521,30.918,124.883,30.918s91.632-10.971,124.883-30.918A284.945,284.945,0,0,0,396.4,162.316C248.516,192.452,0,174.54,0,174.54c112.608,22.995,234.6,39.014,318.978,41.793,114.054,3.756,133.579-70.049,133.579-70.049" transform="translate(48.442 25.664)" fill="#fff"/></g></svg>