<svg xmlns="http://www.w3.org/2000/svg" xmlns:xlink="http://www.w3.org/1999/xlink" width="1388.698" height="426.76" viewBox="0 0 1388.698 426.76">
  <defs>
    <clipPath id="clip-path">
      <rect id="長方形_78" data-name="長方形 78" width="1388.698" height="426.76" fill="#b5b5b5"/>
    </clipPath>
  </defs>
  <g id="グループ_21" data-name="グループ 21" clip-path="url(#clip-path)">
    <path id="パス_164" data-name="パス 164" d="M458.319,165.85a3.187,3.187,0,0,0,3.059,3.285H580.239a3.187,3.187,0,0,0,3.058-3.285v-2.131a3.187,3.187,0,0,0-3.058-3.285H461.378a3.187,3.187,0,0,0-3.059,3.285Z" transform="translate(669.442 234.337)" fill="#b5b5b5"/>
    <path id="パス_165" data-name="パス 165" d="M513.653,165.85a3.187,3.187,0,0,0,3.058,3.285H631.693a3.187,3.187,0,0,0,3.058-3.285v-2.131a3.187,3.187,0,0,0-3.058-3.285H516.712a3.187,3.187,0,0,0-3.058,3.285Z" transform="translate(750.265 234.337)" fill="#b5b5b5"/>
    <path id="パス_166" data-name="パス 166" d="M515.946,79.248a20.971,20.971,0,1,1-20.97-20.972,20.97,20.97,0,0,1,20.97,20.972" transform="translate(692.352 85.121)" fill="#b5b5b5"/>
    <path id="パス_167" data-name="パス 167" d="M619.713,116.486c-23.738-17.023-61.265-53.876-68.9-73.224h-.059c-1.073-2.53-2.431-2.539-3.792-2.539H521.808c-1.358,0-2.717.01-3.792,2.539h-.209c-7.63,19.348-45.158,56.2-68.9,73.224-2.945,2.114-3.145,5.8,1.144,5.8.256,0,30.77-.315,37.407-.315a4.247,4.247,0,0,0,2.042-.408c7.82-2.832,27.274-25.957,42.5-47.754a3.378,3.378,0,0,1,4.874.347c15.177,21.641,34.434,44.454,42.208,47.271a12.088,12.088,0,0,0,1.767.135H619.6c4.286,0,3.061-2.963.116-5.076" transform="translate(652.557 59.482)" fill="#b5b5b5"/>
    <path id="パス_168" data-name="パス 168" d="M631.674,270.149l-.271.118V188.95a5.49,5.49,0,0,0-5.475-5.475H558.241v-4.481l.155.379c0-2.635.012-4.963,3.789-5.369h63.743a5.49,5.49,0,0,0,5.475-5.472V80.1a5.49,5.49,0,0,0-5.475-5.475H522.507a5.472,5.472,0,0,0-5.18,3.789h-.175v.559a5.5,5.5,0,0,0-.12,1.127v88.431a5.492,5.492,0,0,0,.12,1.125v18.167a5.5,5.5,0,0,0-.12,1.127v81.169c-.224,3.253-.928,11.612-3.157,12.355H634.937c-3.263-1.088-3.263-18.487-3.263-12.325M558.831,123.741l.052-.608a16.473,16.473,0,0,1,32.946,0l.13.608v17.722H558.831Zm33.127,124.841H558.831V222.159l.052-.605a16.473,16.473,0,1,1,32.946,0l.13.605Z" transform="translate(750.59 109.002)" fill="#b5b5b5"/>
    <path id="パス_169" data-name="パス 169" d="M198.958,164.774c0,2.372,2.377,4.314,5.281,4.314H261.99c2.906,0,5.283-1.941,5.283-4.314s-2.377-4.314-5.283-4.314H204.239c-2.9,0-5.281,1.941-5.281,4.314" transform="translate(290.607 234.375)" fill="#b5b5b5"/>
    <path id="パス_170" data-name="パス 170" d="M289.228,160.46c-2.9,0-5.281,1.941-5.281,4.314s2.377,4.314,5.281,4.314h57.751c2.9,0,5.281-1.941,5.281-4.314s-2.377-4.314-5.281-4.314Z" transform="translate(414.746 234.375)" fill="#b5b5b5"/>
    <path id="パス_171" data-name="パス 171" d="M404.981,327.8H471.4c-5.893-3.565-12.247-12.4-52.552-61.647-3.784-6.56,5.733-7.133,12.244-7.133l0-.007h23.283l-.091.079c10.886,0,5.905,4.535,9.737,5.719,3.26,1.006,4.518-1.314,4.518-1.314v-8.009h-.113v-27.36h.113v-8.009s-1.257-2.32-4.518-1.314c-3.831,1.184,1.149,5.719-9.737,5.719l.025.022H358.367V205.974l.34.032c0-4.675,4.247-4.855,7.143-4.855l-.015-.106h81.482c4.126,1.238,1.715,4.237,4.729,5.17,3.26,1,4.518-1.314,4.518-1.314v-3.856h.1V165.319h-.1v-3.8s-1.257-2.318-4.518-1.312c-2.967.915-.677,3.836-4.542,5.111H358.367V146.977a4.56,4.56,0,0,1,3.785-2.606h70.5c3.6,1.307,1.422,4.146,4.341,5.049,3.26,1,4.518-1.314,4.518-1.314v-3.735h.1V108.645h-.1v-3.92s-1.257-2.318-4.518-1.312c-3.066.945-.509,4.033-4.934,5.231H358.367V92.09c.81-2.274,3.12-2.83,5.273-2.953h84.073c3.846,1.275,1.563,4.191,4.528,5.106,3.258,1.006,4.518-1.314,4.518-1.314V84.92h-.1V57.56h.1V49.55s-1.26-2.32-4.518-1.314c-3.019.933-.6,3.937-4.747,5.175H398.539c.982-5.795,6.555-1.809,6.555-6.882,0-4.186-6.344-3.132-6.344-3.132h-37.7s-8.339-1.4-8.519,3.314c-.175,4.54,5.686.906,6.666,6.7H314.553c.982-5.795,6.078-1.988,6.8-6.7.613-3.979-5.256-3.314-5.256-3.314H273.689s-4.894-.312-4.894,2.589c0,4.894,5.438,1.631,6.417,7.426H225.1c-4.151-1.238-1.727-4.242-4.747-5.175-3.26-1.006-4.518,1.314-4.518,1.314v3.861h-.13V89.137h.13v3.792s1.257,2.32,4.518,1.314c2.965-.915.682-3.831,4.528-5.106h84.533a4.151,4.151,0,0,1,3.265,4.434l.037,0v15.076H240.928c-4.424-1.2-1.868-4.286-4.934-5.231-3.26-1.006-4.518,1.312-4.518,1.312v3.92h-.2v35.726h.2v3.735s1.257,2.318,4.518,1.314c2.918-.9.743-3.743,4.341-5.049h68.079c2.188.372,4.186,1.444,4.186,4.648l.118-.012v16.312H224.7c-3.866-1.275-1.575-4.2-4.542-5.111-3.26-1.006-4.518,1.312-4.518,1.312v8.012h.062v27.357h-.062V204.9s1.257,2.318,4.518,1.314c3.014-.933.6-3.932,4.729-5.17H305.47l-.015.106c2.9,0,7.143.18,7.143,4.855l.118-.012v18.546H215.585l.025-.022c-10.886,0-5.906-4.535-9.737-5.719-3.258-1.006-4.518,1.314-4.518,1.314v8.009h.037v27.36h-.037v8.009s1.26,2.32,4.518,1.314c3.831-1.184-1.149-5.719,9.737-5.719l-.091-.079h30.652c5.765,0,10.389,1.941,7.569,7.057l.125-.01c-40.48,49.326-47.461,58.175-53.357,61.74h66.415c-4.914-2.628-2.517-8.839,43.1-66.1l-.214.071c12.672-17.4,35.652-18.767,50.876-1.639,0,0,51.929,63.891,44.294,67.663" transform="translate(292.873 63.103)" fill="#b5b5b5"/>
    <path id="長方形_71" data-name="長方形 71" d="M1.334,0H130.815a1.334,1.334,0,0,1,1.334,1.334V7.363A1.335,1.335,0,0,1,130.814,8.7H1.335A1.335,1.335,0,0,1,0,7.363V1.334A1.334,1.334,0,0,1,1.334,0Z" transform="translate(1124.417 407.097)" fill="#b5b5b5"/>
    <path id="長方形_72" data-name="長方形 72" d="M1.334,0H126.646a1.335,1.335,0,0,1,1.335,1.335V7.363A1.335,1.335,0,0,1,126.646,8.7H1.335A1.335,1.335,0,0,1,0,7.363V1.334A1.334,1.334,0,0,1,1.334,0Z" transform="translate(1260.717 407.097)" fill="#b5b5b5"/>
    <path id="パス_172" data-name="パス 172" d="M331.938,169.793c0,2.392,2.463,4.348,5.475,4.348h47.852c3.009,0,5.475-1.956,5.475-4.348s-2.466-4.35-5.475-4.35H337.413c-3.012,0-5.475,1.956-5.475,4.35" transform="translate(484.844 241.654)" fill="#b5b5b5"/>
    <path id="パス_173" data-name="パス 173" d="M370.044,169.793c0,2.392,2.463,4.348,5.475,4.348h47.852c3.012,0,5.475-1.956,5.475-4.348s-2.463-4.35-5.475-4.35H375.519c-3.012,0-5.475,1.956-5.475,4.35" transform="translate(540.503 241.654)" fill="#b5b5b5"/>
    <path id="パス_174" data-name="パス 174" d="M407.856,169.793c0,2.392,2.463,4.348,5.475,4.348h47.85c3.012,0,5.475-1.956,5.475-4.348s-2.463-4.35-5.475-4.35h-47.85c-3.012,0-5.475,1.956-5.475,4.35" transform="translate(595.733 241.654)" fill="#b5b5b5"/>
    <path id="パス_175" data-name="パス 175" d="M197.931,169.783c0,2.372,2.463,4.314,5.475,4.314h62.419c3.009,0,5.472-1.941,5.472-4.314s-2.463-4.314-5.472-4.314H203.406c-3.012,0-5.475,1.939-5.475,4.314" transform="translate(289.107 241.692)" fill="#b5b5b5"/>
    <path id="パス_176" data-name="パス 176" d="M288.395,165.469c-3.012,0-5.475,1.939-5.475,4.314s2.463,4.314,5.475,4.314h62.417c3.012,0,5.475-1.941,5.475-4.314s-2.463-4.314-5.475-4.314Z" transform="translate(413.246 241.692)" fill="#b5b5b5"/>
    <path id="パス_177" data-name="パス 177" d="M406.389,89.337s1.184,2.338,4.242,1.324c3.6-1.193-1.078-5.768,9.141-5.768l-.017-.015h48.438l-.015.015c10.219,0,5.544,4.574,9.141,5.768,3.059,1.014,4.24-1.324,4.24-1.324V81.257h-.091V53.668h.091V45.59s-1.181-2.34-4.24-1.324c-3.6,1.191,1.078,5.768-9.141,5.768l.094.084H419.679l.094-.084c-10.219,0-5.544-4.577-9.141-5.768-3.058-1.016-4.242,1.324-4.242,1.324v4.528h-.121V84.879h.121Z" transform="translate(593.414 64.283)" fill="#b5b5b5"/>
    <path id="パス_178" data-name="パス 178" d="M412.17,66.385l.1-.123-.775-.608-1.23-1.329-.214.2L398.58,55.553l-13.4-10.723-3.1-2.926s-2.512-.746-3.873,2.175c-1.2,2.571,2.158,3.073.984,6.277a112.2,112.2,0,0,1-19.643,13.383,234.311,234.311,0,0,1-24.552,11.636c-5.876,1.115-4.114-3.337-7.419-3.27-3.221.064-3.556,2.662-3.556,2.662l1.452,4.1-.044.015,9.25,30.733-.054.022.241.6.581,1.927.175-.054,2.023,5.02s1.968,1.727,4.429-.357c2.889-2.451-3.157-4.946,6.321-8.765l-.721-.266a268.692,268.692,0,0,0,28.516-13.489,145.2,145.2,0,0,0,26.757-18.482l-.029.31c7.5-6.944,7.178-.411,10.628-1.981,2.933-1.334,2.21-3.853,2.21-3.853Z" transform="translate(473.279 61.082)" fill="#b5b5b5"/>
    <path id="パス_179" data-name="パス 179" d="M412.17,88.484l.1-.126-.775-.605-1.23-1.329-.214.2L398.58,77.65l-13.4-10.719L382.079,64s-2.512-.746-3.873,2.178c-1.2,2.569,2.158,3.071.984,6.277a112.063,112.063,0,0,1-19.643,13.383,234.3,234.3,0,0,1-24.555,11.636c-5.874,1.115-4.112-3.337-7.416-3.27-3.221.064-3.556,2.662-3.556,2.662l1.452,4.1-.044.012,9.25,30.736-.054.022.244.6.578,1.927.175-.054,2.023,5.02s1.968,1.727,4.429-.357c2.889-2.451-3.157-4.946,6.321-8.765l-.721-.266c1.078-.433,2.229-.906,3.423-1.405v159.57c-.381,3.807-1.193,8.986-2.926,9.562h50.389c-1.939-.645-2.726-7.042-3.044-10.844V103.942c2.854-2.165,5.335-4.21,7.431-6.065l-.029.31c7.5-6.946,7.178-.411,10.628-1.981,2.933-1.336,2.21-3.853,2.21-3.853Z" transform="translate(473.279 93.358)" fill="#b5b5b5"/>
    <path id="パス_180" data-name="パス 180" d="M492.991,74.587V66.509s-1.181-2.34-4.242-1.324c-3.6,1.193,1.08,5.768-9.139,5.768l.094.084H415.522c-7.938-.5-4.035-4.6-7.409-5.716-3.059-1.014-4.242,1.324-4.242,1.324v8.081h.015v27.453h-.015v8.078s1.183,2.34,4.242,1.324c3.6-1.193-1.078-5.768,9.141-5.768l-.017-.015h.091c1.991.352,3.8,1.393,3.94,4.358V283.636c-.217,3.177-.913,11.708-3.167,12.458h51.113c-3.263-1.088-3.263-18.487-3.263-12.325l-.266.118V110.49l.027,0c0-3.253,1.9-4.328,3.976-4.695h9.936l-.015.015c10.219,0,5.544,4.574,9.139,5.768,3.061,1.016,4.242-1.324,4.242-1.324v-8.078H492.9V74.587Z" transform="translate(589.913 94.838)" fill="#b5b5b5"/>
    <rect id="長方形_73" data-name="長方形 73" width="54.752" height="8.701" transform="translate(818.807 394.771)" fill="#b5b5b5"/>
    <rect id="長方形_74" data-name="長方形 74" width="54.752" height="8.701" transform="translate(912.573 394.771)" fill="#b5b5b5"/>
    <rect id="長方形_75" data-name="長方形 75" width="54.749" height="8.701" transform="translate(1005.615 394.771)" fill="#b5b5b5"/>
    <path id="パス_181" data-name="パス 181" d="M409.189,45.46a20.971,20.971,0,1,0,20.972,20.972A20.972,20.972,0,0,0,409.189,45.46" transform="translate(567.048 66.401)" fill="#b5b5b5"/>
    <path id="パス_182" data-name="パス 182" d="M580.507,271.835V243.39c-.829-9.683-5.883-20.18-14.68-20.18v-.044s-31.285-.111-32.264,0c-3.253.362-5.121,3.127.726,5.074,2.657.886,4.631,5.086,4.847,6.917a25.8,25.8,0,0,1,.962,6.858c0,2.124-.726,5.266-6.164,5.266H505.942c-1.88-.13-3.371-.743-3.735-3.551V219.177c0-2.9,0-5.438,5.029-5.438h69.321c3.578-.463,3.588-2.758,3.588-5.347l.015.037.347-128.055a5.489,5.489,0,0,0-5.472-5.472H467.445a5.49,5.49,0,0,0-5.475,5.472V269.8l-.079-.052c0-6.161,0,11.238-3.263,12.325H583.5c-1.838-.613-2.64-6.4-2.992-10.236m-76.376-148.5.052-.608a16.473,16.473,0,0,1,32.945,0l.131.608V175.86H504.131v-7.783c.46-1.41,1.649-2.37,4.737-2.37h12.153a5.49,5.49,0,0,0,5.475-5.472V145.082a5.49,5.49,0,0,0-5.475-5.475h-16.89Z" transform="translate(669.895 109.405)" fill="#b5b5b5"/>
    <path id="パス_183" data-name="パス 183" d="M626.636,51.354H592.494c-3.46-.8-5.108-3.383-2.1-3.383,4.169,0,5.618-6.252,0-6.252H555.954c-4.439,0-4.53,5.891.364,5.891,3.093,0,.92,2.891-2.746,3.745H520.877a5.49,5.49,0,0,0-5.475,5.475v57.8a5.49,5.49,0,0,0,5.475,5.475H548.3v0h10.059c3.263,0,2.719-3.263.544-3.536s-3.263-1.9-3.263-5.436l-.081.1V91.59a5.49,5.49,0,0,1,5.475-5.475h25.3a5.49,5.49,0,0,1,5.475,5.475V114.5a5.492,5.492,0,0,0,5.475,5.475h19.575c7.884,0,15.256-5.03,15.256-21.068V56.829a5.492,5.492,0,0,0-5.475-5.475" transform="translate(752.82 60.935)" fill="#b5b5b5"/>
    <path id="パス_184" data-name="パス 184" d="M478.037,165.706c-2.776-.509-27.249-.423-38.111-.4v-23.77l.084.007c0-3.253,1.9-4.328,3.976-4.695h5.588l-.017.015c10.219,0,5.544,4.574,9.141,5.768,3.059,1.016,4.242-1.324,4.242-1.324V133.23h-.094V105.639h.094V97.561s-1.184-2.34-4.242-1.324c-3.6,1.193,1.078,5.768-9.141,5.768l.094.084h-3.639c-7.542-1.179-10.172-3.91-11.469-6.671l-.034-.182c-2.237-5.869-4.919-29.848-6.481-42.306.482-2.4,3.944-4.053,3.944-6s.723-3.263-9.063-3.263h-6.875c-9.788,0-9.063,1.309-9.063,3.263,0,2.175,4.348,3.986,3.986,6.887h.128c-1.253,12.6-3.861,35.5-5.91,41.415l-.039.2c-2.34,3.942-6.939,5.684-12.532,6.649h-8.059l.094-.084c-10.219,0-5.544-4.574-9.139-5.768-3.061-1.016-4.242,1.324-4.242,1.324v4.528h-.121V136.85h.121v4.459s1.181,2.34,4.242,1.324c3.6-1.193-1.08-5.768,9.139-5.768l-.015-.015h7.006a4.209,4.209,0,0,1,3.878,3.844V165.3c-11.725-.027-33.01-.069-35.588.4-3.216.591-2.606,7.586.815,9.328s4.835,6.693,4.744,15c0,15.354,1.777,87.163-1.774,112.69-1.575,11.334,1.452,8.408,5.076,0,3.307-7.672,12.37-45.886,26.728-97.567V314.681c-.214,3.167-.91,11.715-3.164,12.466h51.112c-3.263-1.088-3.263-18.487-3.263-12.325l-.266.118v-118.8c15.824,56.226,25.753,98.475,29.25,106.588,3.625,8.408,6.651,11.334,5.076,0-3.551-25.527-1.779-97.336-1.774-112.69-.091-8.307,1.321-13.26,4.742-15s4.033-8.738.817-9.328" transform="translate(522.632 63.786)" fill="#b5b5b5"/>
    <rect id="長方形_76" data-name="長方形 76" width="68.315" height="8.627" transform="translate(4.36 394.835)" fill="#b5b5b5"/>
    <rect id="長方形_77" data-name="長方形 77" width="73.367" height="8.627" transform="translate(1.833 407.161)" fill="#b5b5b5"/>
    <path id="パス_185" data-name="パス 185" d="M284.8,310.974h-73.95c-5.438,0-6.8-2.591-6.8-2.591-11.833-22.54-29.456-39.176-47.394-51.915a12.993,12.993,0,0,1-1.412-3.265l.138-8.346c0-3.962,3.044-4.619,5.652-4.724h78.118c4.5,1.132,1.919,4.237,4.887,5.177,3.108.984,4.309-1.284,4.309-1.284V236.19h-.066V200.471h.066v-7.835s-1.2-2.269-4.309-1.284c-3.14.994-.1,4.4-5.76,5.345H154.992V175.584l.386.034c0-4.569,4.048-4.747,6.809-4.747l-.007-.066h85.33l-.057.049c10.379,0,5.63,4.437,9.284,5.593,3.105.984,4.306-1.284,4.306-1.284v-4.358h.079V127.37h-.079v-3.932s-1.2-2.269-4.306-1.284c-3.009.952-.337,4.124-5.1,5.217H154.992V106.344l.386.037c0-4.569,4.048-4.747,6.809-4.747l-.02-.155h72.168c10.14.052,5.485,4.439,9.117,5.588,3.105.984,4.306-1.284,4.306-1.284V97.948h-.113v-36.3h.113V53.816s-1.2-2.269-4.306-1.284c-3.374,1.068.389,4.924-7.18,5.509h-81.28V53.984c.591-7.333,4.658-3.7,5.78-6.929a3.164,3.164,0,0,0-1.346-4.112h-4.434v-.015H108.985v.015h-3.57a3.164,3.164,0,0,0-1.346,4.112c.869,2.5,3.5.9,4.916,3.435v7.552H25.54c-6.179-.849-2.916-4.39-6.125-5.406-3.105-.984-4.306,1.284-4.306,1.284v4.122h-.1v43.438h.1v4.144s1.2,2.266,4.306,1.282c3.238-1.024-.1-4.619,6.316-5.426H102.1l-.02.155c2.761,0,6.811.177,6.811,4.747l.1-.01v21H10.845c-4.134-1.186-1.737-4.181-4.648-5.1-3.105-.984-4.306,1.284-4.306,1.284v3.816H1.743v43.435h.148v4.476s1.2,2.266,4.306,1.282c3.654-1.156-1.095-5.593,9.284-5.593l-.192-.165h86.794l-.007.066c2.761,0,6.811.177,6.811,4.747l.1-.01v40.6l-.094-.352c0,5.16-2.955,10.3-7.776,10.438a225.308,225.308,0,0,0-34.336-10.94c-5.5-2.01-7.443-5.5-8.036-9.063l0-7.124c.591-7.333,4.656-3.7,5.778-6.929a3.166,3.166,0,0,0-1.344-4.114H58.749v-.012H12.742v.012H9.169a3.166,3.166,0,0,0-1.344,4.114c.869,2.5,3.494.9,4.916,3.433L12.72,318.4c-.381,3.807-1.193,8.984-2.926,9.562h6.887v0l38.138-.406h6.887c-1.937-.645-2.724-7.045-3.044-10.844l.039-55.229c.652-2.237,2.028-3.45,4.793-3.233a219.986,219.986,0,0,1,48.135,20.086c28.8,16.186,53.086,44.826,58.524,56.787s7.793,18.344,16.494,18.344h69.6s3.26.054,4.621-2.121,1.191-5.5,4.35-16.144c3.278-11.061,15.967-17.891,20.662-21.376,2.571-1.907-1.088-2.847-1.088-2.847" transform="translate(2.546 62.703)" fill="#b5b5b5"/>
    <path id="パス_186" data-name="パス 186" d="M268.041,183.9c-14.092-14.092-30.576-19.976-53.63-23.881-3.981-.942-6.075-2.677-7.2-4.4a8.513,8.513,0,0,1-.627-6.993c1.75-4.813,1.545-7.463,17.466-25.9a124.513,124.513,0,0,1,14.036-13.617c5.03-4.19,11.853-7.82,15.714-12.569,8.054-9.911,5.438-18.809,1.257-24.511-3.541-4.825-10.751-8.381-19.274-8.381-6.843,0-13.2,2.724-19.065,5.866a176.481,176.481,0,0,0-17.6,10.266l-.3.209c-5.962,2.4-10.079-.6-9.547-2.724.63-2.512,2.045-8.142-5.445-9.845-4.609-1.048-10.642,3.912-9.008,9.427a13.651,13.651,0,0,0,13.248,9.3,24.94,24.94,0,0,1-10.945,1.8c-9.173-.677-11.954-7.343-16.186-15.746-5.782-10.2-12.909-11.447-16.036-11.447a13.369,13.369,0,0,0-7.734,2.5,10.366,10.366,0,0,0-4.52,7.616c-.787,7.995,6.9,17.05,10.251,20.573,8.77,9.232,19.7,12.849,34.646,12.849,7.165,0,19.481-1.326,28.529-2.739,2.574.123,5.391,1.2,2.894,4.414l.645-.571c-8.73,9.7-21.056,19.412-28,26.068-25.433,24.363-41.007,41.051-25.854,56.206,2.886,2.886,12.151,4.19,18.017,3.351,4.769-.682,17.308-5.974,21.787-6.7,18.017-2.933,43.194-3.152,59.078,14.245,17.6,19.274,23.356,42.643,18.327,68.62-5.118,26.442-22.5,51.418-75.746,50.04-24.791-2.3-35.81-13.312-42.695-25.709-5.588-10.057-8.113-23.7-6.887-33.512,2.3-18.364,17.808-25.635,33.679-25.92,6.656-.121,15.406,3.534,19.274,7.96,2.724,3.115,5.347,10.413,5.027,14.665-.48,6.427-6.479,14.685-14.6,14.685-4.178,0,4.129-5.677-.48-13.219-2.849-4.663-10.054-11.523-22-4.818-3.228,1.811-5.573,7.335-6.285,10.893-1.048,5.236,1.348,14.727,3.991,18.162,5.185,6.737,13.1,16.691,30.975,17.99,35.111,2.552,51.875-31.676,34.429-47.286,23.413,10.1,23.413-24.331,5.509-39.479-12.394-10.487-29.38-16.068-55.089-14.232-22.9,1.636-60.138,20.66-62.547,57.734-1.481,22.768,5.883,43.047,15.721,55.2,15.608,19.279,36.181,26.405,61.056,27.544,23.076,1.053,94.181-2.32,99.4-87.365,1.459-23.755-8.374-47.34-27.653-66.62" transform="translate(174.294 88.746)" fill="#b5b5b5"/>
    <path id="パス_187" data-name="パス 187" d="M39.424,3.965q0-1.558-1.907-1.56V.845H50.862v1.56a1.651,1.651,0,0,0-1.083.391A1.421,1.421,0,0,0,49.3,3.965V43.3a1.424,1.424,0,0,0,.477,1.169,1.651,1.651,0,0,0,1.083.391v1.558H37.517V44.864q1.9,0,1.907-1.56V27.014h-27.9V43.3A1.424,1.424,0,0,0,12,44.472a1.66,1.66,0,0,0,1.083.391v1.558H0V44.864q1.646,0,1.646-1.56V3.965q0-1.558-1.646-1.56V.845H13.083v1.56A1.66,1.66,0,0,0,12,2.8a1.421,1.421,0,0,0-.477,1.169V18.695h27.9Z" transform="translate(0 1.234)" fill="#b5b5b5"/>
    <path id="パス_188" data-name="パス 188" d="M40.505,44.862q2.251,0,2.254-1.56V3.964q0-1.558-2.254-1.558V.846H54.89v1.56q-2.255,0-2.254,1.558V43.3q0,1.561,2.254,1.56v1.56H40.505Z" transform="translate(59.163 1.236)" fill="#b5b5b5"/>
    <path id="パス_189" data-name="パス 189" d="M95.418.846a35.425,35.425,0,0,1,7.539.738,17.006,17.006,0,0,1,5.8,2.338,10.766,10.766,0,0,1,3.725,4.161,13.755,13.755,0,0,1,1.3,6.28q0,5.721-3.381,8.753a18.178,18.178,0,0,1-9.1,4.072l11.523,16.462a2.346,2.346,0,0,0,1.43,1.041,7.377,7.377,0,0,0,1.516.172v1.56h-16.2v-1.56a3.2,3.2,0,0,0,1.341-.258c.374-.175.563-.4.563-.694a1.972,1.972,0,0,0-.347-1q-.347-.561-1.038-1.516L90.565,27.879H78.176V43.3a1.326,1.326,0,0,0,.563,1.169,3.787,3.787,0,0,0,2.035.389v1.56H65.784v-1.56q2.514,0,2.515-1.558V3.966q0-1.561-2.515-1.56V.846ZM93.166,21.122a23.623,23.623,0,0,0,5.2-.477,9.13,9.13,0,0,0,3.292-1.341,5.024,5.024,0,0,0,1.735-2.037,6.554,6.554,0,0,0,0-5.113,5.018,5.018,0,0,0-1.735-2.035,9.173,9.173,0,0,0-3.292-1.344,23.945,23.945,0,0,0-5.2-.475H78.176V21.122Z" transform="translate(96.087 1.236)" fill="#b5b5b5"/>
    <path id="パス_190" data-name="パス 190" d="M131.991.634a34.827,34.827,0,0,1,9.7,1.43,30.246,30.246,0,0,1,9.011,4.289,23.207,23.207,0,0,1,6.671,7.237,19.9,19.9,0,0,1,2.6,10.352,19.9,19.9,0,0,1-2.6,10.354,23.207,23.207,0,0,1-6.671,7.237,27.9,27.9,0,0,1-9.011,4.158,36.9,36.9,0,0,1-19.41,0,27.87,27.87,0,0,1-9.011-4.158A23.179,23.179,0,0,1,106.6,34.3,19.874,19.874,0,0,1,104,23.941a19.878,19.878,0,0,1,2.6-10.352,23.179,23.179,0,0,1,6.671-7.237,30.217,30.217,0,0,1,9.011-4.289,34.815,34.815,0,0,1,9.7-1.43m0,7.972a21.8,21.8,0,0,0-6.585,1.038,20.121,20.121,0,0,0-5.935,2.99,15.512,15.512,0,0,0-4.289,4.811,12.782,12.782,0,0,0-1.649,6.5,12.794,12.794,0,0,0,1.649,6.5,15.5,15.5,0,0,0,4.289,4.808,20.121,20.121,0,0,0,5.935,2.99,21.4,21.4,0,0,0,13.169,0,20.152,20.152,0,0,0,5.935-2.99,15.6,15.6,0,0,0,4.291-4.808,12.816,12.816,0,0,0,1.644-6.5,12.8,12.8,0,0,0-1.644-6.5,15.613,15.613,0,0,0-4.291-4.811,20.152,20.152,0,0,0-5.935-2.99,21.812,21.812,0,0,0-6.585-1.038" transform="translate(151.913 0.926)" fill="#b5b5b5"/>
    <path id="パス_191" data-name="パス 191" d="M174.19.845a27.647,27.647,0,0,1,8.883,1.388,19.555,19.555,0,0,1,7.148,4.2,19.512,19.512,0,0,1,4.764,7.106,26.832,26.832,0,0,1,1.735,10.094,26.836,26.836,0,0,1-1.735,10.1,18.935,18.935,0,0,1-11.912,11.307,27.647,27.647,0,0,1-8.883,1.385H145.425V44.864q1.989,0,1.991-1.56V3.965q0-1.558-1.991-1.56V.845ZM170.725,38.97a32.138,32.138,0,0,0,7.1-.694,11.119,11.119,0,0,0,5.027-2.468,10.845,10.845,0,0,0,2.99-4.724,23.66,23.66,0,0,0,.994-7.451,23.692,23.692,0,0,0-.994-7.451,10.851,10.851,0,0,0-2.99-4.722,11.147,11.147,0,0,0-5.027-2.47,32.3,32.3,0,0,0-7.1-.691H157.3V38.97Z" transform="translate(212.414 1.234)" fill="#b5b5b5"/>
    <path id="パス_192" data-name="パス 192" d="M228.039,11.438a1.592,1.592,0,0,0-.736-1.43,4.985,4.985,0,0,0-2.557-.477H196.673V20.274h16.983a6.148,6.148,0,0,0,2.687-.475q.952-.476.952-2.47h1.56V30.845H217.3c0-1.326-.317-2.18-.952-2.554a5.314,5.314,0,0,0-2.687-.563H196.673V39.684h28.942a3.488,3.488,0,0,0,2.121-.605,1.941,1.941,0,0,0,.824-1.649h1.56V49.3h-1.56q0-1.3-.824-1.474a10.611,10.611,0,0,0-2.121-.172H185.236V46.1a1.66,1.66,0,0,0,1.083-.391,1.418,1.418,0,0,0,.477-1.169V5.2a1.424,1.424,0,0,0-.477-1.169,1.658,1.658,0,0,0-1.083-.389V2.08h39.511a4.354,4.354,0,0,0,2.557-.563A1.814,1.814,0,0,0,228.039,0h1.56V11.438Z" transform="translate(270.564 0.001)" fill="#b5b5b5"/>
    <path id="パス_193" data-name="パス 193" d="M222.741,44.862q1.646,0,1.646-1.56V3.964q0-1.558-1.646-1.558V.846h14.816v1.56c-.463,0-.691.288-.691.866q0,.694,1.732,2.424l24.867,25.822V3.964q0-1.558-2.251-1.558V.846H274.3v1.56q-1.646,0-1.649,1.558V43.3q0,1.561,1.649,1.56v1.56H260.259v-1.56q1.126,0,1.127-.78,0-.605-1.388-1.993L233.573,14.535V43.3c0,1.041.662,1.56,1.993,1.56v1.56H222.741Z" transform="translate(325.346 1.236)" fill="#b5b5b5"/>
    <path id="パス_194" data-name="パス 194" d="M286.583,44.862a2.531,2.531,0,0,0,1.774-1.127,18.1,18.1,0,0,0,1.257-2.165L305.646,7.864q.605-1.126,1.083-2.079a3.806,3.806,0,0,0,.475-1.646,1.279,1.279,0,0,0-.605-1.213,5.242,5.242,0,0,0-1.3-.522V.846h14.643V2.4a7.207,7.207,0,0,0-1.213.477,1.267,1.267,0,0,0-.608,1.257,3.4,3.4,0,0,0,.305,1.385c.2.463.5,1.07.908,1.821l18.022,35.264A2.959,2.959,0,0,0,338.527,44a18.067,18.067,0,0,0,1.688.866v1.56H324.967v-1.56a2.026,2.026,0,0,0,.866-.261.833.833,0,0,0,.522-.78,5.4,5.4,0,0,0-.7-2.251l-3.29-6.412H301.226l-3.12,6.152a7.258,7.258,0,0,0-.866,2.6q0,.952,1.646.952v1.56h-12.3Zm32.665-16.117L311.97,12.63l-8.145,16.115Z" transform="translate(418.596 1.236)" fill="#b5b5b5"/>
    <path id="パス_195" data-name="パス 195" d="M356.049.846a35.448,35.448,0,0,1,7.542.738,16.973,16.973,0,0,1,5.8,2.338,10.772,10.772,0,0,1,3.728,4.161,13.756,13.756,0,0,1,1.3,6.28q0,5.721-3.378,8.753a18.178,18.178,0,0,1-9.1,4.072l11.526,16.462a2.339,2.339,0,0,0,1.43,1.041,7.34,7.34,0,0,0,1.516.172v1.56h-16.2v-1.56a3.2,3.2,0,0,0,1.343-.258c.374-.175.563-.4.563-.694a2,2,0,0,0-.347-1q-.347-.561-1.038-1.516L351.2,27.879H338.81V43.3a1.33,1.33,0,0,0,.561,1.169,3.8,3.8,0,0,0,2.037.389v1.56h-14.99v-1.56q2.514,0,2.512-1.558V3.966q0-1.561-2.512-1.56V.846ZM353.8,21.122a23.645,23.645,0,0,0,5.2-.477,9.162,9.162,0,0,0,3.295-1.341,5.035,5.035,0,0,0,1.732-2.037,6.554,6.554,0,0,0,0-5.113,5.029,5.029,0,0,0-1.732-2.035A9.206,9.206,0,0,0,359,8.774a23.968,23.968,0,0,0-5.2-.475H338.81V21.122Z" transform="translate(476.781 1.236)" fill="#b5b5b5"/>
    <path id="パス_196" data-name="パス 196" d="M392.238,44.538c0,1.038.632,1.56,1.9,1.56v1.56H380.8V46.1a1.667,1.667,0,0,0,1.085-.391,1.427,1.427,0,0,0,.475-1.169V10.052h-14.3a2.953,2.953,0,0,0-1.516.433,1.749,1.749,0,0,0-.738,1.646h-1.558V0h1.558a1.744,1.744,0,0,0,.738,1.646,2.933,2.933,0,0,0,1.516.436h38.472a2.946,2.946,0,0,0,1.516-.436A1.742,1.742,0,0,0,408.786,0h1.56V12.131h-1.56a1.748,1.748,0,0,0-.736-1.646,2.966,2.966,0,0,0-1.516-.433h-14.3Z" transform="translate(532.042)" fill="#b5b5b5"/>
    <path id="パス_197" data-name="パス 197" d="M452.662,44.538q0,1.558,1.907,1.56v1.56H441.225V46.1a1.66,1.66,0,0,0,1.083-.391,1.421,1.421,0,0,0,.477-1.169V10.052h-14.3a2.952,2.952,0,0,0-1.516.433,1.749,1.749,0,0,0-.738,1.646h-1.56V0h1.56a1.743,1.743,0,0,0,.738,1.646,2.932,2.932,0,0,0,1.516.436h38.472a2.946,2.946,0,0,0,1.516-.436A1.747,1.747,0,0,0,469.213,0h1.56V12.131h-1.56a1.753,1.753,0,0,0-.736-1.646,2.966,2.966,0,0,0-1.516-.433h-14.3Z" transform="translate(620.3)" fill="#b5b5b5"/>
    <path id="パス_198" data-name="パス 198" d="M491.3.846a35.45,35.45,0,0,1,7.542.738,16.973,16.973,0,0,1,5.8,2.338,10.773,10.773,0,0,1,3.728,4.161,13.787,13.787,0,0,1,1.3,6.28q0,5.721-3.378,8.753a18.178,18.178,0,0,1-9.1,4.072L508.72,43.649a2.339,2.339,0,0,0,1.43,1.041,7.34,7.34,0,0,0,1.516.172v1.56h-16.2v-1.56a3.2,3.2,0,0,0,1.343-.258c.374-.175.563-.4.563-.694a2,2,0,0,0-.347-1q-.347-.561-1.038-1.516l-9.533-13.519H474.062V43.3a1.33,1.33,0,0,0,.561,1.169,3.8,3.8,0,0,0,2.037.389v1.56H461.67v-1.56q2.513,0,2.512-1.558V3.966q0-1.561-2.512-1.56V.846ZM489.05,21.122a23.648,23.648,0,0,0,5.2-.477,9.181,9.181,0,0,0,3.295-1.341,5.035,5.035,0,0,0,1.732-2.037,6.554,6.554,0,0,0,0-5.113,5.029,5.029,0,0,0-1.732-2.035,9.225,9.225,0,0,0-3.295-1.344,23.97,23.97,0,0,0-5.2-.475H474.062V21.122Z" transform="translate(674.337 1.236)" fill="#b5b5b5"/>
    <path id="パス_199" data-name="パス 199" d="M499.653,44.862a2.531,2.531,0,0,0,1.776-1.127,18.457,18.457,0,0,0,1.255-2.165L518.716,7.864q.605-1.126,1.083-2.079a3.813,3.813,0,0,0,.477-1.646,1.279,1.279,0,0,0-.605-1.213,5.222,5.222,0,0,0-1.3-.522V.846h14.643V2.4a7.2,7.2,0,0,0-1.213.477,1.267,1.267,0,0,0-.608,1.257,3.4,3.4,0,0,0,.305,1.385c.2.463.5,1.07.908,1.821l18.024,35.264A2.941,2.941,0,0,0,551.6,44a17.816,17.816,0,0,0,1.69.866v1.56H538.037v-1.56a2.026,2.026,0,0,0,.866-.261.829.829,0,0,0,.522-.78,5.426,5.426,0,0,0-.694-2.251l-3.292-6.412H514.3l-3.12,6.152a7.258,7.258,0,0,0-.866,2.6c0,.635.551.952,1.646.952v1.56h-12.3Zm32.665-16.117L525.04,12.63,516.9,28.745Z" transform="translate(729.816 1.236)" fill="#b5b5b5"/>
    <path id="パス_200" data-name="パス 200" d="M539.626,44.862a1.968,1.968,0,0,0,1.216-.391,1.368,1.368,0,0,0,.519-1.169V3.791a1.15,1.15,0,0,0-.519-1.083,2.376,2.376,0,0,0-1.216-.3V.846h16.2v1.56a1.909,1.909,0,0,0-.911.258.838.838,0,0,0-.475.78,2.694,2.694,0,0,0,.347,1.127c.229.463.49.952.78,1.474L567.96,28.573,580.436,6.3q.609-1.126.913-1.777a2.81,2.81,0,0,0,.3-1.169q0-.952-1.127-.952V.846h16.029v1.56a2.379,2.379,0,0,0-1.213.3,1.146,1.146,0,0,0-.519,1.083V43.3a1.362,1.362,0,0,0,.519,1.169,1.971,1.971,0,0,0,1.213.391v1.56h-13.6v-1.56q2.34,0,2.34-1.56V14.535h-.172L567.7,46.422h-.261L550.372,14.448H550.2V43.3q0,1.561,2.429,1.56v1.56h-13Z" transform="translate(788.203 1.236)" fill="#b5b5b5"/>
  </g>
</svg>
