<svg xmlns="http://www.w3.org/2000/svg" xmlns:xlink="http://www.w3.org/1999/xlink" width="157" height="48" viewBox="0 0 157 48">
  <defs>
    <clipPath id="clip-path">
      <rect id="長方形_78" data-name="長方形 78" width="157" height="48" transform="translate(0 -0.143)" fill="#fff"/>
    </clipPath>
  </defs>
  <g id="グループ_21" data-name="グループ 21" transform="translate(0 0.143)" clip-path="url(#clip-path)" style="isolation: isolate">
    <path id="パス_164" data-name="パス 164" d="M458.319,161.041a.359.359,0,0,0,.346.368h13.453a.359.359,0,0,0,.346-.368V160.8a.359.359,0,0,0-.346-.368H458.665a.359.359,0,0,0-.346.368Z" transform="translate(-330.675 -116.164)" fill="#fff"/>
    <path id="パス_165" data-name="パス 165" d="M513.653,161.041a.359.359,0,0,0,.346.368h13.014a.359.359,0,0,0,.346-.368V160.8a.359.359,0,0,0-.346-.368H514a.359.359,0,0,0-.346.368Z" transform="translate(-370.598 -116.164)" fill="#fff"/>
    <path id="パス_166" data-name="パス 166" d="M478.751,60.628a2.374,2.374,0,1,1-2.373-2.352,2.363,2.363,0,0,1,2.373,2.352" transform="translate(-341.992 -42.195)" fill="#fff"/>
    <path id="パス_167" data-name="パス 167" d="M466.335,49.219c-2.687-1.909-6.934-6.042-7.8-8.211h-.007a.386.386,0,0,0-.429-.285h-2.847a.386.386,0,0,0-.429.285H454.8c-.864,2.17-5.111,6.3-7.8,8.211-.333.237-.356.65.13.65.029,0,3.483-.035,4.234-.035a.484.484,0,0,0,.231-.046c.885-.318,3.087-2.911,4.81-5.355a.385.385,0,0,1,.552.039c1.718,2.427,3.9,4.985,4.777,5.3a1.379,1.379,0,0,0,.2.015h4.385c.485,0,.346-.332.013-.569" transform="translate(-322.335 -29.486)" fill="#fff"/>
    <path id="パス_168" data-name="パス 168" d="M527.208,96.552l-.031.013V87.446a.619.619,0,0,0-.62-.614H518.9v-.5l.017.042c0-.3,0-.557.429-.6h7.215a.618.618,0,0,0,.62-.614V75.24a.619.619,0,0,0-.62-.614H514.852a.619.619,0,0,0-.586.425h-.02v.063a.608.608,0,0,0-.014.126v9.917a.607.607,0,0,0,.014.126V87.32a.608.608,0,0,0-.014.126v9.1c-.025.365-.1,1.3-.357,1.385h13.7c-.369-.122-.369-2.073-.369-1.382m-8.245-16.418.006-.068a1.865,1.865,0,0,1,3.729,0l.015.068v1.987h-3.75Zm3.75,14h-3.75V91.17l.006-.068a1.865,1.865,0,0,1,3.729,0l.015.068Z" transform="translate(-370.758 -54.034)" fill="#fff"/>
    <path id="パス_169" data-name="パス 169" d="M198.958,160.944a.552.552,0,0,0,.6.484h6.536a.495.495,0,1,0,0-.967h-6.536a.552.552,0,0,0-.6.484" transform="translate(-143.547 -116.183)" fill="#fff"/>
    <path id="パス_170" data-name="パス 170" d="M284.545,160.46a.495.495,0,1,0,0,.967h6.536a.495.495,0,1,0,0-.967Z" transform="translate(-204.866 -116.183)" fill="#fff"/>
    <path id="パス_171" data-name="パス 171" d="M223.652,75.116h7.517c-.667-.4-1.386-1.391-5.948-6.913-.428-.736.649-.8,1.386-.8h2.635l-.01.009c1.232,0,.668.509,1.1.641a.413.413,0,0,0,.511-.147v-.9h-.013V63.939h.013v-.9a.413.413,0,0,0-.511-.147c-.434.133.13.641-1.1.641l0,0H218.376V61.455l.038,0c0-.524.481-.544.809-.544l0-.012h9.222c.467.139.194.475.535.58a.413.413,0,0,0,.511-.147V60.9h.011V56.9h-.011V56.47a.413.413,0,0,0-.511-.147c-.336.1-.077.43-.514.573H218.376V54.839a.516.516,0,0,1,.428-.292h7.979c.407.147.161.465.491.566a.413.413,0,0,0,.511-.147v-.419h.011V50.541h-.011V50.1a.413.413,0,0,0-.511-.147c-.347.106-.058.452-.558.587h-8.34V48.684a.6.6,0,0,1,.6-.331h9.516c.435.143.177.47.512.573a.413.413,0,0,0,.511-.147v-.9H229.5V44.812h.011v-.9a.413.413,0,0,0-.511-.147c-.342.1-.067.442-.537.58h-5.541c.111-.65.742-.2.742-.772,0-.469-.718-.351-.718-.351H218.68s-.944-.157-.964.372c-.02.509.644.1.754.751h-5.053c.111-.65.688-.223.77-.751.069-.446-.595-.372-.595-.372h-4.8s-.554-.035-.554.29c0,.549.616.183.726.833h-5.672c-.47-.139-.2-.476-.537-.58a.413.413,0,0,0-.511.147v.433h-.015v4.006h.015v.425a.413.413,0,0,0,.511.147c.336-.1.077-.43.512-.573h9.568a.466.466,0,0,1,.37.5h0v1.691h-8.125c-.5-.134-.211-.481-.558-.587a.413.413,0,0,0-.511.147v.44h-.023v4.006h.023v.419a.413.413,0,0,0,.511.147c.33-.1.084-.42.491-.566h7.705a.49.49,0,0,1,.474.521h.013V56.9h-9.962c-.438-.143-.178-.47-.514-.573a.413.413,0,0,0-.511.147v.9h.007v3.068h-.007v.9a.413.413,0,0,0,.511.147c.341-.1.068-.441.535-.58h9.12l0,.012c.328,0,.809.02.809.544h.013v2.08H202.215l0,0c-1.232,0-.668-.509-1.1-.641a.413.413,0,0,0-.511.147v.9h0v3.068h0v.9a.413.413,0,0,0,.511.147c.434-.133-.13-.641,1.1-.641l-.01-.009h3.469c.653,0,1.176.218.857.791h.014c-4.582,5.531-5.372,6.524-6.039,6.924h7.517c-.556-.295-.285-.991,4.878-7.412l-.024.008a3.578,3.578,0,0,1,5.758-.184s5.878,7.165,5.013,7.588" transform="translate(-144.666 -31.281)" fill="#fff"/>
    <path id="長方形_71" data-name="長方形 71" d="M.488,0H14.47a.488.488,0,0,1,.488.488v0a.488.488,0,0,1-.488.488H.488A.488.488,0,0,1,0,.488v0A.488.488,0,0,1,.488,0Z" transform="translate(127.266 45.652)" fill="#fff"/>
    <path id="長方形_72" data-name="長方形 72" d="M.487,0H14a.488.488,0,0,1,.488.488v0A.488.488,0,0,1,14,.975H.488A.488.488,0,0,1,0,.488v0A.487.487,0,0,1,.487,0Z" transform="translate(142.692 45.652)" fill="#fff"/>
    <path id="パス_172" data-name="パス 172" d="M331.938,165.931a.567.567,0,0,0,.62.488h5.416a.5.5,0,1,0,0-.975h-5.416a.567.567,0,0,0-.62.488" transform="translate(-239.492 -119.791)" fill="#fff"/>
    <path id="パス_173" data-name="パス 173" d="M370.044,165.931a.567.567,0,0,0,.62.488h5.416a.5.5,0,1,0,0-.975h-5.416a.567.567,0,0,0-.62.488" transform="translate(-266.985 -119.791)" fill="#fff"/>
    <path id="パス_174" data-name="パス 174" d="M407.856,165.931a.567.567,0,0,0,.62.488h5.416a.5.5,0,1,0,0-.975h-5.416a.567.567,0,0,0-.62.488" transform="translate(-294.266 -119.791)" fill="#fff"/>
    <path id="パス_175" data-name="パス 175" d="M197.931,165.953a.566.566,0,0,0,.62.484h7.065a.5.5,0,1,0,0-.967h-7.065a.566.566,0,0,0-.62.484" transform="translate(-142.806 -119.81)" fill="#fff"/>
    <path id="パス_176" data-name="パス 176" d="M283.54,165.469a.5.5,0,1,0,0,.967H290.6a.5.5,0,1,0,0-.967Z" transform="translate(-204.126 -119.81)" fill="#fff"/>
    <path id="パス_177" data-name="パス 177" d="M406.282,49.093a.377.377,0,0,0,.48.148c.407-.134-.122-.647,1.035-.647l0,0h5.482l0,0c1.157,0,.627.513,1.035.647a.377.377,0,0,0,.48-.148v-.906h-.01V45.093h.01v-.906a.376.376,0,0,0-.48-.148c-.407.134.122.647-1.035.647l.011.009h-5.5l.011-.009c-1.157,0-.627-.513-1.035-.647a.377.377,0,0,0-.48.148v.508h-.014v3.9h.014Z" transform="translate(-293.12 -31.866)" fill="#fff"/>
    <path id="パス_178" data-name="パス 178" d="M334,44.573l.011-.014-.088-.068-.139-.149-.024.022-1.3-1.006-1.517-1.2-.351-.328a.376.376,0,0,0-.438.244c-.136.288.244.345.111.7a12.7,12.7,0,0,1-2.223,1.5,26.634,26.634,0,0,1-2.779,1.3c-.665.125-.466-.374-.84-.367a.374.374,0,0,0-.4.3l.164.46,0,0,1.047,3.446-.006,0,.027.068.066.216.02-.006.229.563a.378.378,0,0,0,.5-.04c.327-.275-.357-.555.715-.983l-.082-.03a30.544,30.544,0,0,0,3.228-1.513,16.439,16.439,0,0,0,3.028-2.073l0,.035c.849-.779.812-.046,1.2-.222a.371.371,0,0,0,.25-.432Z" transform="translate(-233.779 -30.279)" fill="#fff"/>
    <path id="パス_179" data-name="パス 179" d="M334,66.671l.011-.014-.088-.068-.139-.149-.024.022-1.3-1.006-1.516-1.2-.351-.329a.376.376,0,0,0-.438.244c-.136.288.244.344.111.7a12.688,12.688,0,0,1-2.223,1.5,26.629,26.629,0,0,1-2.779,1.3c-.665.125-.465-.374-.839-.367a.374.374,0,0,0-.4.3l.164.46h0l1.047,3.447-.006,0,.028.068.065.216.02-.006.229.563a.378.378,0,0,0,.5-.04c.327-.275-.357-.555.715-.983l-.082-.03c.122-.049.252-.1.387-.158V89.046c-.043.427-.135,1.008-.331,1.072h5.7c-.219-.072-.309-.79-.345-1.216V68.4c.323-.243.6-.472.841-.68l0,.035c.849-.779.812-.046,1.2-.222a.371.371,0,0,0,.25-.432Z" transform="translate(-233.779 -46.279)" fill="#fff"/>
    <path id="パス_180" data-name="パス 180" d="M413.958,66.012v-.906a.377.377,0,0,0-.48-.148c-.407.134.122.647-1.034.647l.011.009H405.19c-.9-.056-.457-.515-.839-.641a.377.377,0,0,0-.48.148v.906h0v3.079h0v.906a.377.377,0,0,0,.48.148c.407-.134-.122-.647,1.035-.647l0,0h.01a.478.478,0,0,1,.446.489V89.455c-.025.356-.1,1.313-.358,1.4h5.785c-.369-.122-.369-2.073-.369-1.382l-.03.013V70.038h0a.481.481,0,0,1,.45-.526h1.125l0,0c1.157,0,.628.513,1.034.647a.377.377,0,0,0,.48-.148v-.906h-.01V66.012Z" transform="translate(-291.391 -47.013)" fill="#fff"/>
    <rect id="長方形_73" data-name="長方形 73" width="6.197" height="0.976" transform="translate(92.675 44.27)" fill="#fff"/>
    <rect id="長方形_74" data-name="長方形 74" width="6.197" height="0.976" transform="translate(103.288 44.27)" fill="#fff"/>
    <rect id="長方形_75" data-name="長方形 75" width="6.197" height="0.976" transform="translate(113.819 44.27)" fill="#fff"/>
    <path id="パス_181" data-name="パス 181" d="M390.591,45.46a2.352,2.352,0,1,0,2.374,2.352,2.363,2.363,0,0,0-2.374-2.352" transform="translate(-280.097 -32.916)" fill="#fff"/>
    <path id="パス_182" data-name="パス 182" d="M472.424,96.986V93.8c-.094-1.086-.666-2.263-1.662-2.263v0s-3.541-.012-3.652,0c-.368.041-.58.351.082.569a1.1,1.1,0,0,1,.549.776,2.868,2.868,0,0,1,.109.769c0,.238-.082.59-.7.59h-3.168a.4.4,0,0,1-.423-.4V91.081c0-.325,0-.61.569-.61h7.846c.4-.052.406-.309.406-.6l0,0,.039-14.36a.618.618,0,0,0-.619-.614H459.627a.619.619,0,0,0-.62.614V96.758L459,96.752c0-.691,0,1.26-.369,1.382h14.133c-.208-.069-.3-.718-.339-1.148m-8.644-16.653.006-.068a1.865,1.865,0,0,1,3.729,0l.015.068v5.89h-3.75v-.873c.052-.158.187-.266.536-.266h1.376a.618.618,0,0,0,.62-.614v-1.7a.619.619,0,0,0-.62-.614h-1.912Z" transform="translate(-330.899 -54.234)" fill="#fff"/>
    <path id="パス_183" data-name="パス 183" d="M527.992,42.8h-3.864c-.392-.09-.578-.379-.238-.379.472,0,.636-.7,0-.7h-3.9c-.5,0-.513.661.041.661.35,0,.1.324-.311.42h-3.7a.619.619,0,0,0-.62.614v6.482a.619.619,0,0,0,.62.614h4.242c.369,0,.308-.366.062-.4s-.369-.213-.369-.61l-.009.011v-2.2a.619.619,0,0,1,.62-.614h2.864a.619.619,0,0,1,.62.614v2.569a.619.619,0,0,0,.62.614h2.216c.892,0,1.727-.564,1.727-2.363V43.413a.619.619,0,0,0-.62-.614" transform="translate(-371.86 -30.206)" fill="#fff"/>
    <path id="パス_184" data-name="パス 184" d="M371.416,57.355c-.314-.057-3.084-.047-4.314-.045V54.645h.009a.481.481,0,0,1,.45-.526h.632l0,0c1.157,0,.627.513,1.035.647a.377.377,0,0,0,.48-.148v-.906H369.7V50.619h.011v-.906a.377.377,0,0,0-.48-.148c-.407.134.122.647-1.035.647l.011.009h-.412c-.854-.132-1.151-.438-1.3-.748l0-.02a40.307,40.307,0,0,1-.734-4.744c.055-.269.446-.454.446-.672s.082-.366-1.026-.366H364.4c-1.108,0-1.026.147-1.026.366,0,.244.492.447.451.772h.014a36.942,36.942,0,0,1-.669,4.644l0,.023a1.91,1.91,0,0,1-1.418.746h-.912l.011-.009c-1.157,0-.627-.513-1.034-.647a.377.377,0,0,0-.48.148v.508h-.014v3.9h.014v.5a.377.377,0,0,0,.48.148c.407-.134-.122-.647,1.034-.647l0,0h.793a.474.474,0,0,1,.439.431v2.76c-1.327,0-3.736-.008-4.028.045-.364.066-.295.851.092,1.046s.547.751.537,1.682c0,1.722.2,9.775-.2,12.637-.178,1.271.164.943.575,0,.374-.86,1.4-5.146,3.025-10.941V74.061c-.024.355-.1,1.314-.358,1.4H367.5c-.369-.122-.369-2.073-.369-1.382l-.03.013V60.768c1.791,6.305,2.915,11.043,3.311,11.953.41.943.753,1.271.575,0-.4-2.863-.2-10.915-.2-12.637-.01-.932.15-1.487.537-1.682s.457-.98.092-1.046" transform="translate(-258.157 -31.62)" fill="#fff"/>
    <rect id="長方形_76" data-name="長方形 76" width="7.732" height="0.967" transform="translate(0.494 44.277)" fill="#fff"/>
    <rect id="長方形_77" data-name="長方形 77" width="8.304" height="0.967" transform="translate(0.207 45.659)" fill="#fff"/>
    <path id="パス_185" data-name="パス 185" d="M33.78,72.987H25.41c-.615,0-.77-.291-.77-.291a16.891,16.891,0,0,0-5.364-5.822,1.45,1.45,0,0,1-.16-.366l.016-.936c0-.444.345-.518.64-.53h8.842c.509.127.217.475.553.581a.39.39,0,0,0,.488-.144V64.6h-.008V60.595h.008v-.879a.39.39,0,0,0-.488-.144c-.355.111-.011.494-.652.6H19.088V57.8l.044,0c0-.512.458-.532.771-.532v-.007H29.56l-.006.006c1.175,0,.637.5,1.051.627a.389.389,0,0,0,.487-.144v-.489H31.1V52.4h-.009v-.441a.389.389,0,0,0-.487-.144c-.341.107-.038.462-.577.585H19.088V50.039l.044,0c0-.512.458-.532.771-.532l0-.017h8.168c1.148.006.621.5,1.032.627a.389.389,0,0,0,.487-.144V49.1h-.013v-4.07h.013v-.879A.389.389,0,0,0,29.1,44c-.382.12.044.552-.813.618h-9.2v-.455c.067-.822.527-.414.654-.777a.354.354,0,0,0-.152-.461h-.5v0H13.881v0h-.4a.354.354,0,0,0-.152.461c.1.28.4.1.556.385v.847H4.436c-.7-.1-.33-.492-.693-.606a.389.389,0,0,0-.487.144v.462H3.245v4.871h.011v.465a.39.39,0,0,0,.487.144c.367-.115-.011-.518.715-.608H13.1l0,.017c.312,0,.771.02.771.532h.011V52.4H2.773c-.468-.133-.2-.469-.526-.572a.389.389,0,0,0-.487.144V52.4H1.743v4.871H1.76v.5a.39.39,0,0,0,.487.144c.414-.13-.124-.627,1.051-.627l-.022-.018H13.1v.007c.312,0,.771.02.771.532h.011V62.36l-.011-.039c0,.579-.334,1.155-.88,1.171A25.672,25.672,0,0,0,9.1,62.264a1.251,1.251,0,0,1-.91-1.016v-.8c.067-.822.527-.415.654-.777A.354.354,0,0,0,8.7,59.21H2.584a.354.354,0,0,0-.152.461c.1.28.4.1.556.385l0,13.763c-.043.427-.135,1.007-.331,1.072h.78l4.317-.046h.78c-.219-.072-.308-.79-.345-1.216l0-6.193a.459.459,0,0,1,.543-.363,25.029,25.029,0,0,1,5.448,2.252A18.547,18.547,0,0,1,20.8,75.694c.615,1.342.882,2.057,1.867,2.057h7.878a.662.662,0,0,0,.523-.238c.154-.244.135-.616.492-1.81.371-1.24,1.807-2.006,2.339-2.4.291-.214-.123-.319-.123-.319" transform="translate(-1.258 -31.083)" fill="#fff"/>
    <path id="パス_186" data-name="パス 186" d="M136.159,74.567c-1.6-1.58-3.461-2.24-6.07-2.678a1.257,1.257,0,0,1-.815-.493.947.947,0,0,1-.071-.784c.2-.54.175-.837,1.977-2.9a14.034,14.034,0,0,1,1.589-1.527,13.1,13.1,0,0,0,1.779-1.409,2.083,2.083,0,0,0,.142-2.749,2.725,2.725,0,0,0-2.182-.94,4.663,4.663,0,0,0-2.158.658,20.017,20.017,0,0,0-1.992,1.151l-.034.023c-.675.269-1.141-.067-1.081-.305a.771.771,0,0,0-.616-1.1.9.9,0,0,0-1.02,1.057,1.544,1.544,0,0,0,1.5,1.043,2.846,2.846,0,0,1-1.239.2c-1.038-.076-1.353-.823-1.832-1.766a2.134,2.134,0,0,0-1.815-1.284,1.523,1.523,0,0,0-.875.28,1.161,1.161,0,0,0-.512.854,3.561,3.561,0,0,0,1.16,2.307,5.011,5.011,0,0,0,3.921,1.441,25.461,25.461,0,0,0,3.229-.307c.291.014.61.135.328.5l.073-.064c-.988,1.088-2.383,2.177-3.169,2.923-2.879,2.732-4.641,4.6-2.926,6.3a3.1,3.1,0,0,0,2.039.376c.54-.076,1.959-.67,2.466-.752,2.039-.329,4.889-.353,6.687,1.6a8.434,8.434,0,0,1,2.074,7.7c-.579,2.965-2.546,5.766-8.573,5.611a5.517,5.517,0,0,1-4.832-2.883,6.683,6.683,0,0,1-.78-3.758c.26-2.059,2.016-2.875,3.812-2.907a3.239,3.239,0,0,1,2.182.893,2.818,2.818,0,0,1,.569,1.645,1.827,1.827,0,0,1-1.653,1.647c-.473,0,.467-.637-.054-1.482a1.705,1.705,0,0,0-2.49-.54,2,2,0,0,0-.711,1.222,3.293,3.293,0,0,0,.452,2.037,4.494,4.494,0,0,0,3.506,2.017c3.974.286,5.871-3.552,3.9-5.3,2.65,1.133,2.65-2.728.624-4.427-1.4-1.176-3.325-1.8-6.235-1.6-2.591.184-6.807,2.317-7.079,6.474a9.086,9.086,0,0,0,1.779,6.19c1.767,2.162,4.1,2.961,6.911,3.089,2.612.118,10.66-.26,11.25-9.8a9.7,9.7,0,0,0-3.13-7.471" transform="translate(-86.094 -43.993)" fill="#fff"/>
    <path id="パス_187" data-name="パス 187" d="M4.462,1.195q0-.175-.216-.175V.845h1.51V1.02a.188.188,0,0,0-.123.044.159.159,0,0,0-.054.131V5.606a.159.159,0,0,0,.054.131.188.188,0,0,0,.123.044v.175H4.246V5.781q.216,0,.216-.175V3.78H1.3V5.606a.159.159,0,0,0,.054.131.189.189,0,0,0,.123.044v.175H0V5.781q.186,0,.186-.175V1.195Q.186,1.02,0,1.02V.845H1.481V1.02a.189.189,0,0,0-.123.044.159.159,0,0,0-.054.131V2.847H4.462Z" transform="translate(0 -0.612)" fill="#fff"/>
    <path id="パス_188" data-name="パス 188" d="M40.5,5.782q.255,0,.255-.175V1.2q0-.175-.255-.175V.846h1.628v.175q-.255,0-.255.175V5.607q0,.175.255.175v.175H40.5Z" transform="translate(-29.224 -0.613)" fill="#fff"/>
    <path id="パス_189" data-name="パス 189" d="M69.138.846a4.046,4.046,0,0,1,.853.083,1.935,1.935,0,0,1,.657.262,1.211,1.211,0,0,1,.422.467,1.53,1.53,0,0,1,.147.7,1.244,1.244,0,0,1-.383.982,2.066,2.066,0,0,1-1.03.457l1.3,1.846a.265.265,0,0,0,.162.117.842.842,0,0,0,.172.019v.175H69.609V5.782a.365.365,0,0,0,.152-.029c.042-.02.064-.045.064-.078a.22.22,0,0,0-.039-.112q-.039-.063-.118-.17L68.589,3.877h-1.4v1.73a.148.148,0,0,0,.064.131.432.432,0,0,0,.23.044v.175h-1.7V5.782q.284,0,.285-.175V1.2q0-.175-.285-.175V.846ZM68.883,3.12a2.7,2.7,0,0,0,.588-.054,1.039,1.039,0,0,0,.373-.15.565.565,0,0,0,.2-.228.729.729,0,0,0,0-.573.564.564,0,0,0-.2-.228,1.044,1.044,0,0,0-.373-.151,2.735,2.735,0,0,0-.588-.053h-1.7V3.12Z" transform="translate(-47.463 -0.613)" fill="#fff"/>
    <path id="パス_190" data-name="パス 190" d="M107.172.634a3.976,3.976,0,0,1,1.1.16,3.437,3.437,0,0,1,1.02.481,2.612,2.612,0,0,1,.755.812,2.216,2.216,0,0,1,.294,1.161,2.215,2.215,0,0,1-.294,1.161,2.612,2.612,0,0,1-.755.812,3.171,3.171,0,0,1-1.02.466,4.213,4.213,0,0,1-2.2,0,3.168,3.168,0,0,1-1.02-.466,2.609,2.609,0,0,1-.755-.812A2.213,2.213,0,0,1,104,3.248a2.213,2.213,0,0,1,.294-1.161,2.609,2.609,0,0,1,.755-.812,3.434,3.434,0,0,1,1.02-.481,3.974,3.974,0,0,1,1.1-.16m0,.894a2.488,2.488,0,0,0-.745.116,2.286,2.286,0,0,0-.672.335,1.745,1.745,0,0,0-.485.539,1.423,1.423,0,0,0-.187.728,1.424,1.424,0,0,0,.187.729,1.744,1.744,0,0,0,.485.539,2.286,2.286,0,0,0,.672.335,2.443,2.443,0,0,0,1.491,0,2.289,2.289,0,0,0,.672-.335,1.755,1.755,0,0,0,.486-.539,1.427,1.427,0,0,0,.186-.729,1.425,1.425,0,0,0-.186-.728,1.756,1.756,0,0,0-.486-.539,2.289,2.289,0,0,0-.672-.335,2.49,2.49,0,0,0-.745-.116" transform="translate(-75.038 -0.459)" fill="#fff"/>
    <path id="パス_191" data-name="パス 191" d="M148.681.845A3.156,3.156,0,0,1,149.686,1a2.218,2.218,0,0,1,.809.471,2.187,2.187,0,0,1,.539.8,2.984,2.984,0,0,1,.2,1.132,2.984,2.984,0,0,1-.2,1.132,2.181,2.181,0,0,1-.539.8,2.215,2.215,0,0,1-.809.471,3.156,3.156,0,0,1-1.005.155h-3.256V5.781q.225,0,.225-.175V1.195q0-.175-.225-.175V.845Zm-.392,4.275a3.67,3.67,0,0,0,.8-.078,1.263,1.263,0,0,0,.569-.277,1.215,1.215,0,0,0,.338-.53,2.631,2.631,0,0,0,.113-.836A2.634,2.634,0,0,0,150,2.565a1.216,1.216,0,0,0-.338-.53,1.266,1.266,0,0,0-.569-.277,3.689,3.689,0,0,0-.8-.078h-1.52V5.12Z" transform="translate(-104.923 -0.612)" fill="#fff"/>
    <path id="パス_192" data-name="パス 192" d="M190.081,1.284a.178.178,0,0,0-.083-.16.569.569,0,0,0-.289-.054H186.53v1.2h1.922a.7.7,0,0,0,.3-.053q.108-.053.108-.277h.177V3.46h-.177c0-.149-.036-.244-.108-.286a.606.606,0,0,0-.3-.063H186.53V4.451h3.276a.4.4,0,0,0,.24-.068.217.217,0,0,0,.093-.185h.177V5.53h-.177q0-.146-.093-.165a1.212,1.212,0,0,0-.24-.019h-4.57V5.17a.189.189,0,0,0,.123-.044A.158.158,0,0,0,185.413,5V.584a.159.159,0,0,0-.054-.131.189.189,0,0,0-.123-.044V.234h4.472A.5.5,0,0,0,190,.171a.2.2,0,0,0,.083-.17h.177V1.284Z" transform="translate(-133.647 -0.001)" fill="#fff"/>
    <path id="パス_193" data-name="パス 193" d="M222.741,5.782q.186,0,.186-.175V1.2q0-.175-.186-.175V.846h1.677v.175c-.052,0-.078.032-.078.1s.065.142.2.272l2.815,2.9V1.2q0-.175-.255-.175V.846h1.481v.175q-.186,0-.187.175V5.607q0,.175.187.175v.175h-1.589V5.782q.127,0,.128-.087,0-.068-.157-.224l-2.991-3.09V5.607c0,.117.075.175.226.175v.175h-1.452Z" transform="translate(-160.707 -0.613)" fill="#fff"/>
    <path id="パス_194" data-name="パス 194" d="M286.583,5.782a.287.287,0,0,0,.2-.126,2.024,2.024,0,0,0,.142-.243l1.814-3.78q.069-.126.123-.233a.424.424,0,0,0,.054-.185.143.143,0,0,0-.069-.136.6.6,0,0,0-.147-.058V.846h1.657v.175a.82.82,0,0,0-.137.054.142.142,0,0,0-.069.141.378.378,0,0,0,.035.155c.023.052.057.12.1.2l2.04,3.954a.333.333,0,0,0,.133.156,2.053,2.053,0,0,0,.191.1v.175h-1.726V5.782a.231.231,0,0,0,.1-.029.093.093,0,0,0,.059-.087.6.6,0,0,0-.079-.252l-.372-.719H288.24l-.353.69a.809.809,0,0,0-.1.292q0,.107.186.107v.175h-1.393Zm3.7-1.807-.824-1.807-.922,1.807Z" transform="translate(-206.768 -0.613)" fill="#fff"/>
    <path id="パス_195" data-name="パス 195" d="M329.772.846a4.048,4.048,0,0,1,.854.083,1.931,1.931,0,0,1,.657.262,1.212,1.212,0,0,1,.422.467,1.531,1.531,0,0,1,.147.7,1.245,1.245,0,0,1-.382.982,2.066,2.066,0,0,1-1.03.457l1.3,1.846a.265.265,0,0,0,.162.117.838.838,0,0,0,.172.019v.175h-1.834V5.782a.365.365,0,0,0,.152-.029c.042-.02.064-.045.064-.078a.222.222,0,0,0-.039-.112q-.039-.063-.118-.17l-1.079-1.516h-1.4v1.73a.149.149,0,0,0,.063.131.434.434,0,0,0,.231.044v.175h-1.7V5.782q.285,0,.284-.175V1.2q0-.175-.284-.175V.846Zm-.255,2.274a2.7,2.7,0,0,0,.589-.054,1.042,1.042,0,0,0,.373-.15.566.566,0,0,0,.2-.228.729.729,0,0,0,0-.573.565.565,0,0,0-.2-.228,1.047,1.047,0,0,0-.373-.151,2.737,2.737,0,0,0-.589-.053h-1.7V3.12Z" transform="translate(-235.509 -0.613)" fill="#fff"/>
    <path id="パス_196" data-name="パス 196" d="M367.419,4.994c0,.116.072.175.216.175v.175h-1.51V5.169a.19.19,0,0,0,.123-.044.159.159,0,0,0,.054-.131V1.127h-1.618a.337.337,0,0,0-.172.049.2.2,0,0,0-.084.185h-.176V0h.176a.2.2,0,0,0,.084.185.334.334,0,0,0,.172.049h4.354a.336.336,0,0,0,.172-.049A.2.2,0,0,0,369.292,0h.177V1.36h-.177a.2.2,0,0,0-.083-.185.338.338,0,0,0-.172-.049h-1.618Z" transform="translate(-262.805)" fill="#fff"/>
    <path id="パス_197" data-name="パス 197" d="M427.843,4.994q0,.175.216.175v.175h-1.51V5.169a.189.189,0,0,0,.123-.044.159.159,0,0,0,.054-.131V1.127h-1.618a.336.336,0,0,0-.172.049.2.2,0,0,0-.084.185h-.177V0h.177a.2.2,0,0,0,.084.185.334.334,0,0,0,.172.049h4.354a.336.336,0,0,0,.172-.049A.2.2,0,0,0,429.716,0h.177V1.36h-.177a.2.2,0,0,0-.083-.185.338.338,0,0,0-.172-.049h-1.618Z" transform="translate(-306.401)" fill="#fff"/>
    <path id="パス_198" data-name="パス 198" d="M465.024.846a4.048,4.048,0,0,1,.854.083,1.931,1.931,0,0,1,.657.262,1.212,1.212,0,0,1,.422.467,1.535,1.535,0,0,1,.147.7,1.245,1.245,0,0,1-.382.982,2.066,2.066,0,0,1-1.03.457L467,5.646a.265.265,0,0,0,.162.117.839.839,0,0,0,.172.019v.175h-1.834V5.782a.365.365,0,0,0,.152-.029c.042-.02.064-.045.064-.078a.222.222,0,0,0-.039-.112q-.039-.063-.117-.17l-1.079-1.516h-1.4v1.73a.149.149,0,0,0,.063.131.433.433,0,0,0,.231.044v.175h-1.7V5.782q.285,0,.284-.175V1.2q0-.175-.284-.175V.846Zm-.255,2.274a2.7,2.7,0,0,0,.589-.054,1.045,1.045,0,0,0,.373-.15.566.566,0,0,0,.2-.228.729.729,0,0,0,0-.573.565.565,0,0,0-.2-.228,1.05,1.05,0,0,0-.373-.151,2.737,2.737,0,0,0-.589-.053h-1.7V3.12Z" transform="translate(-333.093 -0.613)" fill="#fff"/>
    <path id="パス_199" data-name="パス 199" d="M499.653,5.782a.287.287,0,0,0,.2-.126A2.066,2.066,0,0,0,500,5.413l1.814-3.78q.068-.126.123-.233a.424.424,0,0,0,.054-.185.143.143,0,0,0-.069-.136.594.594,0,0,0-.147-.058V.846h1.657v.175a.82.82,0,0,0-.137.054.142.142,0,0,0-.069.141.378.378,0,0,0,.035.155c.023.052.057.12.1.2l2.04,3.954a.331.331,0,0,0,.132.156,2.018,2.018,0,0,0,.191.1v.175H504V5.782a.231.231,0,0,0,.1-.029.093.093,0,0,0,.059-.087.6.6,0,0,0-.079-.252l-.373-.719H501.31l-.353.69a.809.809,0,0,0-.1.292c0,.071.062.107.186.107v.175h-1.392Zm3.7-1.807-.824-1.807L501.6,3.975Z" transform="translate(-360.497 -0.613)" fill="#fff"/>
    <path id="パス_200" data-name="パス 200" d="M539.626,5.782a.224.224,0,0,0,.138-.044.153.153,0,0,0,.059-.131V1.176a.129.129,0,0,0-.059-.121.271.271,0,0,0-.138-.034V.846h1.834v.175a.217.217,0,0,0-.1.029.094.094,0,0,0-.054.087.3.3,0,0,0,.039.126c.026.052.055.107.088.165l1.4,2.526,1.412-2.5q.069-.126.1-.2a.313.313,0,0,0,.034-.131q0-.107-.128-.107V.846h1.814v.175a.271.271,0,0,0-.137.034.128.128,0,0,0-.059.121V5.607a.152.152,0,0,0,.059.131.225.225,0,0,0,.137.044v.175h-1.54V5.782q.265,0,.265-.175V2.381h-.019L542.8,5.957h-.03l-1.932-3.586h-.02V5.607q0,.175.275.175v.175h-1.471Z" transform="translate(-389.338 -0.613)" fill="#fff"/>
  </g>
</svg>
