<svg xmlns="http://www.w3.org/2000/svg" width="109.682" height="84.453" viewBox="0 0 109.682 84.453">
  <g id="グループ_397" data-name="グループ 397" transform="translate(-48.442 -14.773)">
    <rect id="長方形_641" data-name="長方形 641" width="6.202" height="33.463" transform="translate(100.288 14.773)" fill="#ba0220"/>
    <path id="パス_4692" data-name="パス 4692" d="M240,30.24a10.743,10.743,0,0,0,3.918,2.489,14.846,14.846,0,0,0,5.183.857h1.854a12.015,12.015,0,0,0,8.366-2.857,12.2,12.2,0,0,0,3.673-7.672h-6.362a5.518,5.518,0,0,1-1.569,3.056c-.388.345-1.452,1.194-4.108,1.194H249.1a8.639,8.639,0,0,1-3.012-.47A4.455,4.455,0,0,1,244.44,25.8a4.532,4.532,0,0,1-1.057-1.7,8.2,8.2,0,0,1-.451-2.879V12.284a8.2,8.2,0,0,1,.451-2.879,4.648,4.648,0,0,1,1.057-1.659,4.441,4.441,0,0,1,1.648-1,8.628,8.628,0,0,1,3.012-.47h1.854c2.936,0,3.912.9,4.233,1.195l.025.023.025.022a4.84,4.84,0,0,1,1.473,3.173h6.324a11.428,11.428,0,0,0-3.591-7.836C257.361.939,254.545,0,250.954,0H249.1a14.846,14.846,0,0,0-5.183.857A10.664,10.664,0,0,0,240,3.305a10.932,10.932,0,0,0-2.49,3.877,14.382,14.382,0,0,0-.857,5.1v8.937a14.382,14.382,0,0,0,.857,5.1A10.747,10.747,0,0,0,240,30.24" transform="translate(-126.044 14.773)" fill="#ba0220"/>
    <path id="パス_4693" data-name="パス 4693" d="M89.279,18.786H102.3V33.463h6.2V0h-6.2V12.584H89.279V0h-6.2V33.463h6.2Z" transform="translate(-12.811 14.773)" fill="#ba0220"/>
    <path id="パス_4694" data-name="パス 4694" d="M29.515,205a28.115,28.115,0,0,0,25.069,4.357C34.792,204.984,0,171.078,0,171.078S17.055,195.9,29.515,205" transform="translate(48.441 -111.363)" fill="#ba0220"/>
    <path id="パス_4695" data-name="パス 4695" d="M71,199.717s-12.666.093-35.783-10.57S0,171.078,0,171.078s33.851,24.98,43.369,29.324C60.185,208.449,71,199.717,71,199.717" transform="translate(48.442 -111.363)" fill="#ba0220"/>
    <path id="パス_4696" data-name="パス 4696" d="M90.03,185.079c-28.218,4.862-90.03-14-90.03-14,6.151,2.552,45.931,19.862,62.342,22.543,20.719,3.385,27.688-8.542,27.688-8.542" transform="translate(48.442 -111.363)" fill="#ba0220"/>
    <path id="パス_4697" data-name="パス 4697" d="M109.682,133.8a62.909,62.909,0,0,1-6.437,2.165,15.072,15.072,0,0,1-9.547-.47,69.268,69.268,0,0,1-11.013-5.487l-.327-.2-.327.2c-7.9,4.841-18.533,7.508-29.94,7.508s-22.041-2.666-29.941-7.508l-.327-.2-.327.2A63.576,63.576,0,0,1,0,138.493a38.166,38.166,0,0,0,12.962-2.66,71.487,71.487,0,0,0,8.862-4.559c8.058,4.834,18.788,7.493,30.267,7.493s22.208-2.659,30.267-7.493a69.06,69.06,0,0,0,13.714,6.413C60.23,144.991,0,140.65,0,140.65c27.292,5.573,56.858,9.455,77.308,10.129,27.642.91,32.374-16.977,32.374-16.977" transform="translate(48.442 -80.936)" fill="#ba0220"/>
  </g>
</svg>
