<svg xmlns="http://www.w3.org/2000/svg" width="1770.059" height="75.615" viewBox="0 0 1770.059 75.615">
  <g id="グループ_108" data-name="グループ 108" transform="translate(1376 -19445.447)">
    <path id="パス_300" data-name="パス 300" d="M61.021,5.631q0-2.393-2.954-2.393V.845h20.65V3.238a2.571,2.571,0,0,0-1.682.6,2.175,2.175,0,0,0-.74,1.792V65.956a2.175,2.175,0,0,0,.74,1.792,2.571,2.571,0,0,0,1.682.6v2.393H58.068V68.349q2.954,0,2.954-2.393V40.984H17.778V65.956a2.175,2.175,0,0,0,.74,1.792,2.585,2.585,0,0,0,1.682.6v2.393H0V68.349q2.544,0,2.544-2.393V5.631Q2.544,3.238,0,3.238V.845H20.256V3.238a2.585,2.585,0,0,0-1.684.6,2.175,2.175,0,0,0-.74,1.792V28.224H61.019Z" transform="translate(-1376 19447.789)" fill="#726e6f"/>
    <path id="パス_301" data-name="パス 301" d="M40.5,68.35q3.487,0,3.487-2.393V5.687q0-2.393-3.487-2.393V.846H62.764V3.239q-3.487,0-3.487,2.393V65.957q0,2.393,3.487,2.393v2.393H40.5Z" transform="translate(-1290.752 19447.789)" fill="#726e6f"/>
    <path id="パス_302" data-name="パス 302" d="M111.665.848a55.333,55.333,0,0,1,11.664,1.135,26.462,26.462,0,0,1,8.985,3.585,16.561,16.561,0,0,1,5.771,6.386,20.923,20.923,0,0,1,2.01,9.573,17.013,17.013,0,0,1-5.238,13.428,28.255,28.255,0,0,1-14.086,6.25l17.779,25.246a3.624,3.624,0,0,0,2.216,1.6,11.515,11.515,0,0,0,2.352.26V70.7H118.105V68.353a4.992,4.992,0,0,0,2.079-.4c.574-.274.875-.616.875-1.067a3.009,3.009,0,0,0-.533-1.532q-.534-.861-1.614-2.325L104.157,42.3H85.011V65.959a2.024,2.024,0,0,0,.875,1.792,5.908,5.908,0,0,0,3.145.6v2.393H65.783V68.353q3.884,0,3.9-2.393V5.689q0-2.393-3.9-2.393V.848Zm-3.487,31.1a36.928,36.928,0,0,0,8.042-.74,14.208,14.208,0,0,0,5.1-2.051,7.726,7.726,0,0,0,2.735-3.118,9.969,9.969,0,0,0,0-7.836,7.714,7.714,0,0,0-2.735-3.118,14.281,14.281,0,0,0-5.1-2.065,37.4,37.4,0,0,0-8.042-.725H84.929V31.947Z" transform="translate(-1246.618 19447.787)" fill="#726e6f"/>
    <path id="パス_303" data-name="パス 303" d="M147.389.634a54.375,54.375,0,0,1,15.046,2.188A47,47,0,0,1,176.382,9.4a35.722,35.722,0,0,1,10.325,11.1,30.306,30.306,0,0,1,4.021,15.875,30.293,30.293,0,0,1-4.021,15.875,35.722,35.722,0,0,1-10.325,11.1,43.365,43.365,0,0,1-13.949,6.373,57.616,57.616,0,0,1-30.087,0A43.325,43.325,0,0,1,118.4,63.359a35.679,35.679,0,0,1-10.325-11.1,30.266,30.266,0,0,1-4.061-15.875A30.263,30.263,0,0,1,108.031,20.5,35.681,35.681,0,0,1,118.356,9.4a46.963,46.963,0,0,1,13.949-6.578A54.349,54.349,0,0,1,147.348.634m0,12.226a34.026,34.026,0,0,0-10.188,1.586,31.262,31.262,0,0,0-9.19,4.582,23.863,23.863,0,0,0-6.632,7.371,19.46,19.46,0,0,0-2.557,9.957,19.474,19.474,0,0,0,2.557,9.97,23.853,23.853,0,0,0,6.633,7.37,31.263,31.263,0,0,0,9.19,4.582,33.41,33.41,0,0,0,20.39,0,31.305,31.305,0,0,0,9.19-4.582,24,24,0,0,0,6.646-7.371,19.517,19.517,0,0,0,2.544-9.97,19.491,19.491,0,0,0-2.544-9.957,24.017,24.017,0,0,0-6.646-7.371,31.305,31.305,0,0,0-9.19-4.582,34.053,34.053,0,0,0-10.188-1.586" transform="translate(-1160.794 19447.207)" fill="#726e6f"/>
    <path id="パス_304" data-name="パス 304" d="M189.953.847A43.161,43.161,0,0,1,203.7,2.966a30.335,30.335,0,0,1,11.064,6.441,29.907,29.907,0,0,1,7.372,10.941,40.805,40.805,0,0,1,2.735,15.481,40.8,40.8,0,0,1-2.735,15.481,29.821,29.821,0,0,1-7.371,10.941A30.292,30.292,0,0,1,203.7,68.692a43.162,43.162,0,0,1-13.744,2.12H145.425V68.35q3.077,0,3.077-2.393V5.633q0-2.393-3.077-2.393V.847Zm-5.361,58.465a50.191,50.191,0,0,0,10.941-1.067,17.272,17.272,0,0,0,7.782-3.788,16.614,16.614,0,0,0,4.622-7.248,35.975,35.975,0,0,0,1.545-11.433,36.024,36.024,0,0,0-1.491-11.405,16.63,16.63,0,0,0-4.622-7.248,17.314,17.314,0,0,0-7.782-3.788,50.452,50.452,0,0,0-10.941-1.067H163.86V59.312Z" transform="translate(-1068.506 19447.787)" fill="#726e6f"/>
    <path id="パス_305" data-name="パス 305" d="M251.495,17.547a2.433,2.433,0,0,0-1.135-2.188,7.781,7.781,0,0,0-3.952-.74H202.932V31.031H229.22a9.573,9.573,0,0,0,4.1-.725q1.479-.725,1.479-3.788h2.421V47.305H234.8c0-2.038-.492-3.337-1.479-3.911a8.288,8.288,0,0,0-4.1-.861H202.932V60.858h44.8a5.47,5.47,0,0,0,3.283-.93,2.968,2.968,0,0,0,1.272-2.53h2.421V75.615h-2.421q0-2-1.272-2.257a16.571,16.571,0,0,0-3.283-.26h-62.5V70.691a2.584,2.584,0,0,0,1.682-.6,2.162,2.162,0,0,0,.74-1.723V7.973a2.174,2.174,0,0,0-.74-1.792,2.585,2.585,0,0,0-1.683-.6V3.186h61.159a6.838,6.838,0,0,0,3.993-.861A2.734,2.734,0,0,0,251.525,0h2.421V17.547Z" transform="translate(-982 19445.447)" fill="#726e6f"/>
    <path id="パス_306" data-name="パス 306" d="M222.741,68.35q2.544,0,2.544-2.393V5.687q0-2.393-2.544-2.393V.846h22.934V3.239c-.711,0-1.067.438-1.067,1.366s.889,1.942,2.735,3.72l38.5,39.659V5.687q0-2.393-3.487-2.393V.846H302.61V3.239q-2.543,0-2.557,2.393V65.957q0,2.393,2.557,2.393v2.393H280.877V68.35q1.737,0,1.751-1.19,0-.93-2.147-3.063l-40.9-42.258V65.957c0,1.6,1.024,2.393,3.091,2.393v2.393H222.809Z" transform="translate(-902.861 19447.789)" fill="#726e6f"/>
    <path id="パス_307" data-name="パス 307" d="M286.622,68.35a3.926,3.926,0,0,0,2.736-1.723A27.681,27.681,0,0,0,291.3,63.3l24.808-51.695q.943-1.723,1.682-3.186a5.8,5.8,0,0,0,.74-2.53,1.955,1.955,0,0,0-.943-1.86,8.2,8.2,0,0,0-2.011-.793V.846h22.661V3.239a11.224,11.224,0,0,0-1.874.74,1.942,1.942,0,0,0-.943,1.928,5.17,5.17,0,0,0,.479,2.119c.315.711.779,1.641,1.366,2.735l27.9,54.074a4.552,4.552,0,0,0,1.821,2.134,28.045,28.045,0,0,0,2.613,1.366v2.393H345.988v-2.38a3.159,3.159,0,0,0,1.366-.4,1.272,1.272,0,0,0,.806-1.19,8.212,8.212,0,0,0-1.081-3.446l-5.087-9.833H309.283l-4.827,9.436a11.058,11.058,0,0,0-1.366,3.993q0,1.463,2.544,1.463v2.393H286.581Zm50.6-24.712L325.954,18.925,313.345,43.637Z" transform="translate(-776.089 19447.789)" fill="#726e6f"/>
    <path id="パス_308" data-name="パス 308" d="M372.339.848a55.364,55.364,0,0,1,11.679,1.135A26.413,26.413,0,0,1,393,5.568a16.571,16.571,0,0,1,5.771,6.386,20.939,20.939,0,0,1,2.011,9.573,17.028,17.028,0,0,1-5.225,13.428,28.25,28.25,0,0,1-14.085,6.25l17.778,25.246a3.622,3.622,0,0,0,2.215,1.6,11.457,11.457,0,0,0,2.352.26V70.7H378.739V68.352a4.991,4.991,0,0,0,2.079-.4c.574-.274.875-.616.875-1.067a3.03,3.03,0,0,0-.533-1.532q-.533-.861-1.614-2.325L364.789,42.3H345.643V65.959a2.037,2.037,0,0,0,.861,1.792,5.937,5.937,0,0,0,3.16.6v2.393H326.415V68.352q3.9,0,3.884-2.393V5.689q0-2.393-3.884-2.393V.848Zm-3.485,31.1a36.928,36.928,0,0,0,8.055-.74,14.248,14.248,0,0,0,5.1-2.051,7.744,7.744,0,0,0,2.736-3.118,9.972,9.972,0,0,0,0-7.836,7.729,7.729,0,0,0-2.736-3.118,14.312,14.312,0,0,0-5.1-2.065,37.434,37.434,0,0,0-8.055-.724H345.6V31.947Z" transform="translate(-687.898 19447.785)" fill="#726e6f"/>
    <path id="パス_309" data-name="パス 309" d="M407.564,68.3c0,1.586.985,2.393,2.954,2.393v2.393H389.868V70.69a2.6,2.6,0,0,0,1.682-.6,2.175,2.175,0,0,0,.74-1.792V15.412H370.16a4.609,4.609,0,0,0-2.352.67,2.731,2.731,0,0,0-1.149,2.53h-2.407V0h2.407a2.735,2.735,0,0,0,1.149,2.53,4.567,4.567,0,0,0,2.352.67h59.545a4.6,4.6,0,0,0,2.353-.67A2.736,2.736,0,0,0,433.179,0H435.6V18.6h-2.42a2.735,2.735,0,0,0-1.138-2.53,4.622,4.622,0,0,0-2.353-.67H407.564Z" transform="translate(-603.403 19445.447)" fill="#726e6f"/>
    <path id="パス_310" data-name="パス 310" d="M468,68.3q0,2.393,2.954,2.393v2.393H450.3V70.69a2.586,2.586,0,0,0,1.682-.6,2.177,2.177,0,0,0,.74-1.791V15.413H430.6a4.6,4.6,0,0,0-2.353.67,2.737,2.737,0,0,0-1.148,2.53h-2.422V0H427.1a2.737,2.737,0,0,0,1.149,2.53,4.568,4.568,0,0,0,2.353.67h59.544a4.6,4.6,0,0,0,2.352-.67A2.735,2.735,0,0,0,493.617,0h2.42V18.6h-2.421a2.731,2.731,0,0,0-1.135-2.53,4.625,4.625,0,0,0-2.353-.67H468Z" transform="translate(-486.868 19445.447)" fill="#726e6f"/>
    <path id="パス_311" data-name="パス 311" d="M507.476.848a55.363,55.363,0,0,1,11.681,1.135,26.408,26.408,0,0,1,8.984,3.585,16.577,16.577,0,0,1,5.77,6.385,21,21,0,0,1,2.01,9.573A17.026,17.026,0,0,1,530.7,34.954a28.258,28.258,0,0,1-14.087,6.25L534.5,66.491a3.624,3.624,0,0,0,2.215,1.6,11.476,11.476,0,0,0,2.352.26v2.393H513.985V68.351a4.994,4.994,0,0,0,2.08-.4c.574-.274.875-.616.875-1.067a3.026,3.026,0,0,0-.533-1.532q-.534-.861-1.6-2.325L500.05,42.3H480.9V65.959a2.037,2.037,0,0,0,.862,1.792,5.923,5.923,0,0,0,3.158.6v2.393H461.675V68.352q3.9,0,3.884-2.393V5.689q0-2.393-3.884-2.393V.848Zm-3.487,31.1a36.921,36.921,0,0,0,8.055-.74,14.293,14.293,0,0,0,5.1-2.048,7.745,7.745,0,0,0,2.736-3.118,9.97,9.97,0,0,0,0-7.836,7.723,7.723,0,0,0-2.735-3.118,14.364,14.364,0,0,0-5.1-2.065,37.428,37.428,0,0,0-8.055-.725H480.74v19.65Z" transform="translate(-404.949 19447.785)" fill="#726e6f"/>
    <path id="パス_312" data-name="パス 312" d="M499.679,68.35a3.926,3.926,0,0,0,2.736-1.723,28.171,28.171,0,0,0,2.01-3.323l24.808-51.695q.93-1.723,1.682-3.186a5.78,5.78,0,0,0,.74-2.53,1.956,1.956,0,0,0-.944-1.86,8.125,8.125,0,0,0-2.013-.793V.846h22.661V3.239a11.211,11.211,0,0,0-1.874.74,1.942,1.942,0,0,0-.943,1.928,5.185,5.185,0,0,0,.478,2.12c.315.711.78,1.641,1.366,2.735l27.9,54.074a4.53,4.53,0,0,0,1.805,2.133,27.679,27.679,0,0,0,2.612,1.366v2.393H559.127v-2.38a3.155,3.155,0,0,0,1.365-.4,1.271,1.271,0,0,0,.808-1.187,8.211,8.211,0,0,0-1.081-3.446l-5.1-9.833H522.34l-4.827,9.436a11.066,11.066,0,0,0-1.366,3.993c0,.971.848,1.463,2.543,1.463V70.77H499.651Zm50.6-24.712L539.01,18.925l-12.7,24.713Z" transform="translate(-322.298 19447.789)" fill="#726e6f"/>
    <path id="パス_313" data-name="パス 313" d="M539.677,68.35a3.062,3.062,0,0,0,1.886-.6,2.09,2.09,0,0,0,.809-1.792V5.359a1.764,1.764,0,0,0-.807-1.655,3.707,3.707,0,0,0-1.887-.465V.846h25.081V3.239a2.964,2.964,0,0,0-1.366.4,1.286,1.286,0,0,0-.74,1.19,4.1,4.1,0,0,0,.535,1.723c.355.711.751,1.463,1.2,2.257L583.536,43.35l19.31-34.19q.942-1.723,1.366-2.735a4.273,4.273,0,0,0,.465-1.792q0-1.463-1.751-1.463V.846h24.808V3.239a3.708,3.708,0,0,0-1.874.465,1.751,1.751,0,0,0-.807,1.655v60.6a2.079,2.079,0,0,0,.809,1.791,3.083,3.083,0,0,0,1.873.6v2.393H606.676V68.35q3.624,0,3.624-2.393V21.838h-.259l-26.956,48.9h-.411L556.252,21.7h-.274V65.957q0,2.393,3.762,2.393v2.393H539.622Z" transform="translate(-233.676 19447.789)" fill="#726e6f"/>
  </g>
</svg>
