<svg xmlns="http://www.w3.org/2000/svg" width="249" height="80" viewBox="0 0 249 80"><g transform="translate(-777.5 -4369)"><text transform="translate(777.5 4431)" fill="#fff" font-size="80" font-family="Helvetica"><tspan x="0" y="0">VOICE</tspan></text><path d="M84.219-59.445A33.656,33.656,0,0,1,97.64-56.963a23.247,23.247,0,0,1,9.479,7.483,27.6,27.6,0,0,1,4.357,8.841,39.1,39.1,0,0,1,1.446,10.951,40.854,40.854,0,0,1-1.653,11.914A30.717,30.717,0,0,1,106.3-8.016,24.966,24.966,0,0,1,96.82-.366,30.471,30.471,0,0,1,84.063,2.18,30.912,30.912,0,0,1,72.043-.047a24.753,24.753,0,0,1-9.178-6.7l-.012-.015A29.9,29.9,0,0,1,57.7-16.47,39.526,39.526,0,0,1,55.984-28.4a39.294,39.294,0,0,1,1.465-10.94,31.46,31.46,0,0,1,4.406-9.268,24.346,24.346,0,0,1,9.391-8.133A29.578,29.578,0,0,1,84.219-59.445ZM84.063,1.18A29.483,29.483,0,0,0,96.4-1.275a23.977,23.977,0,0,0,9.1-7.349,29.721,29.721,0,0,0,4.811-9.442,39.859,39.859,0,0,0,1.609-11.622,38.1,38.1,0,0,0-1.406-10.67,26.609,26.609,0,0,0-4.2-8.522,22.259,22.259,0,0,0-9.076-7.165,32.671,32.671,0,0,0-13.024-2.4,28.592,28.592,0,0,0-12.536,2.606,23.357,23.357,0,0,0-9.007,7.805A30.462,30.462,0,0,0,58.41-39.06,38.3,38.3,0,0,0,56.984-28.4,38.531,38.531,0,0,0,58.65-16.772a28.909,28.909,0,0,0,4.976,9.381,23.76,23.76,0,0,0,8.8,6.422A29.923,29.923,0,0,0,84.063,1.18Zm84.023-60.625a30.687,30.687,0,0,1,9.838,1.462,19.894,19.894,0,0,1,7.421,4.418,23.613,23.613,0,0,1,4.778,6.267,19.345,19.345,0,0,1,2.055,7.1l.05.545H183.7l-.09-.387a15.354,15.354,0,0,0-4.972-8.52c-2.46-2.073-5.986-3.125-10.479-3.125A18.6,18.6,0,0,0,160.7-50.24a16.531,16.531,0,0,0-5.854,4.339,18.914,18.914,0,0,0-3.807,7.352,38.937,38.937,0,0,0-1.285,10.58,32.6,32.6,0,0,0,1.157,8.988,21.678,21.678,0,0,0,3.45,7.06,14.327,14.327,0,0,0,5.668,4.546,19.5,19.5,0,0,0,7.975,1.524,16.17,16.17,0,0,0,7.343-1.6,14.167,14.167,0,0,0,5.329-4.786,24.738,24.738,0,0,0,3.478-8.961l.082-.4h8.544l-.062.556a28.887,28.887,0,0,1-2.227,8.477,25.275,25.275,0,0,1-4.622,7A22.524,22.524,0,0,1,177.666.1a28.428,28.428,0,0,1-10.6,1.882A27.57,27.57,0,0,1,157.7.441,23.724,23.724,0,0,1,149.941-4.2a25.24,25.24,0,0,1-6.847-10.389A43.434,43.434,0,0,1,140.828-29.3,38.152,38.152,0,0,1,142.532-41a28.4,28.4,0,0,1,5.13-9.433,23.809,23.809,0,0,1,8.826-6.76A28.627,28.627,0,0,1,168.086-59.445Zm23.038,18.789a18.339,18.339,0,0,0-1.891-6.186,22.617,22.617,0,0,0-4.578-6,18.9,18.9,0,0,0-7.052-4.195,29.7,29.7,0,0,0-9.517-1.409,27.637,27.637,0,0,0-11.195,2.165,22.82,22.82,0,0,0-8.458,6.481,27.407,27.407,0,0,0-4.949,9.1,37.158,37.158,0,0,0-1.656,11.4,42.449,42.449,0,0,0,2.206,14.371,24.251,24.251,0,0,0,6.572,9.983A22.727,22.727,0,0,0,158.041-.5,26.575,26.575,0,0,0,167.07.984a27.437,27.437,0,0,0,10.224-1.81,21.533,21.533,0,0,0,7.846-5.413,24.278,24.278,0,0,0,4.441-6.728,27.638,27.638,0,0,0,2.081-7.628h-6.609a25.293,25.293,0,0,1-3.547,8.923,15.153,15.153,0,0,1-5.7,5.115,17.156,17.156,0,0,1-7.794,1.7,20.488,20.488,0,0,1-8.383-1.611,15.316,15.316,0,0,1-6.06-4.859,22.672,22.672,0,0,1-3.611-7.384,33.6,33.6,0,0,1-1.2-9.264,39.924,39.924,0,0,1,1.323-10.855A19.9,19.9,0,0,1,154.1-46.56a17.524,17.524,0,0,1,6.207-4.6,19.594,19.594,0,0,1,7.861-1.531c4.735,0,8.477,1.13,11.123,3.36a16.2,16.2,0,0,1,5.208,8.671ZM1.317-57.883h9.667L27.107-10.088,43.038-57.883h9.786L31.522.5H22.58Zm8.949,1H2.745L23.28-.5h7.542L51.395-56.883H43.759L27.112-6.943Zm112.672-1h8.852V.5h-8.852Zm7.852,1h-6.852V-.5h6.852Zm71.133-1h42.836v8.031H210.5V-33.43h31.68v7.641H210.5V-7.336h34.844V.5H201.922Zm41.836,1H202.922V-.5h41.422V-6.336H209.5V-26.789h31.68V-32.43H209.5V-50.852h34.258ZM84.688-52.531a21.335,21.335,0,0,1,8.4,1.583,17.482,17.482,0,0,1,6.448,4.763,21.275,21.275,0,0,1,4.066,7.329,30.1,30.1,0,0,1,1.348,9.285,35.007,35.007,0,0,1-1.165,9.149,30.072,30.072,0,0,1-3.5,8.049,15.225,15.225,0,0,1-6.213,5.706A20.328,20.328,0,0,1,85-4.773a24.688,24.688,0,0,1-9.514-1.674,15.32,15.32,0,0,1-6.533-5.072,24.23,24.23,0,0,1-3.695-7.443,31.09,31.09,0,0,1-1.227-8.928A35.858,35.858,0,0,1,65.46-38.5a20.19,20.19,0,0,1,4.328-7.753,18.971,18.971,0,0,1,6.619-4.707A21.248,21.248,0,0,1,84.688-52.531ZM85-5.773a19.346,19.346,0,0,0,8.631-1.789A14.24,14.24,0,0,0,99.439-12.9a29.072,29.072,0,0,0,3.384-7.781,34.007,34.007,0,0,0,1.13-8.888,29.1,29.1,0,0,0-1.3-8.976,20.281,20.281,0,0,0-3.874-6.987A16.491,16.491,0,0,0,92.7-50.028a20.346,20.346,0,0,0-8.012-1.5A20.256,20.256,0,0,0,76.8-50.042a17.978,17.978,0,0,0-6.271,4.463,19.2,19.2,0,0,0-4.109,7.374,34.87,34.87,0,0,0-1.384,10.315,30.094,30.094,0,0,0,1.185,8.64,23.234,23.234,0,0,0,3.542,7.137A14.334,14.334,0,0,0,75.872-7.37,23.7,23.7,0,0,0,85-5.773Z" transform="translate(777.5 4431)" fill="#707070"/></g></svg>